<?xml version="1.0" encoding="utf-8" standalone="yes"?>
<svg xmlns="http://www.w3.org/2000/svg" xmlns:xlink="http://www.w3.org/1999/xlink" version="1.1" width="816" height="1056">
	<!-- Generated by Aspose.Words for .NET 18.5 -->
	<defs>
		<clipPath id="clip1">
			<path d="M-1,-1 L116,-1 L116,109 L-1,109 Z" clip-rule="evenodd">
			</path>
		</clipPath>
		<clipPath id="clip2">
			<path d="M-1,-1 L418,-1 L418,109 L-1,109 Z" clip-rule="evenodd">
			</path>
		</clipPath>
		<clipPath id="clip3">
			<path d="M-1,-1 L116,-1 L116,149 L-1,149 Z" clip-rule="evenodd">
			</path>
		</clipPath>
		<clipPath id="clip4">
			<path d="M-1,-1 L418,-1 L418,149 L-1,149 Z" clip-rule="evenodd">
			</path>
		</clipPath>
		<clipPath id="clip5">
			<path d="M-1,-1 L209.399993896,-1 L209.399993896,86.5 L-1,86.5 Z" clip-rule="evenodd">
			</path>
		</clipPath>
		<clipPath id="clip6">
			<path d="M-0.5,-1 L209.399993896,-1 L209.399993896,86.5 L-0.5,86.5 Z" clip-rule="evenodd">
			</path>
		</clipPath>
		<clipPath id="clip7">
			<path d="M-1,-1 L116,-1 L116,37 L-1,37 Z" clip-rule="evenodd">
			</path>
		</clipPath>
		<clipPath id="clip8">
			<path d="M-1,-1 L418,-1 L418,37 L-1,37 Z" clip-rule="evenodd">
			</path>
		</clipPath>
		<style type="text/css">
			svg{background:white}@font-face{font-family:'Century Gothic';font-weight:normal;font-style:normal;src:local('Century Gothic'),url('https://content.livecareer.com/zty/fonts/CenturyGothic.ttf') format('truetype')}@font-face{font-family:'Century Gothic';font-weight:bold;font-style:normal;src:local('Century Gothic Bold'),url('https://content.livecareer.com/zty/fonts/CenturyGothicBold.ttf') format('truetype')}@font-face{font-family:'Century Gothic';font-weight:bold;font-style:italic;src:local('Century Gothic Bold Italic'),url('https://content.livecareer.com/zty/fonts/CenturyGothicBoldItalic.ttf') format('truetype')}@font-face{font-family:'Century Gothic';font-weight:normal;font-style:italic;src:local('Century Gothic Italic'),url('https://content.livecareer.com/zty/fonts/CenturyGothicItalic.ttf') format('truetype')}
		</style>
	</defs>
	<g transform="scale(1.33333)">
		<g>
			<path d="M0,0 L600,0 L600,450 L0,450 Z" fill="#ffffff" fill-rule="evenodd">
			</path>
			<g transform="matrix(1,0,0,1,600,0)">
				<path d="M0,0 L600,0 L600,450 L0,450 Z" fill="#ffffff" fill-rule="evenodd">
				</path>
			</g>
			<g transform="matrix(1,0,0,1,0,450)">
				<path d="M0,0 L600,0 L600,450 L0,450 Z" fill="#ffffff" fill-rule="evenodd">
				</path>
			</g>
			<g transform="matrix(1,0,0,1,600,450)">
				<path d="M0,0 L600,0 L600,450 L0,450 Z" fill="#ffffff" fill-rule="evenodd">
				</path>
			</g>
			<g transform="matrix(1,0,0,1,40,24)">
				<text>
					<tspan x="0" y="48.210998535" font-family="Century Gothic" font-weight="bold" font-style="normal" font-size="36" fill="#000000">
						Lily
					</tspan>
					<tspan x="65.523002625" y="48.210998535" font-family="Century Gothic" font-weight="bold" font-style="normal" font-size="36" fill="#000000">
						French
					</tspan>
				</text>
				<path d="M-1.450000048,63.138999939 L533.450012207,63.138999939 " stroke-width="2" stroke-miterlimit="10" stroke="#000000" fill="none" fill-rule="evenodd">
				</path>
				<g transform="matrix(1,0,0,1,0,64.138999939)">
					<text>
						<tspan x="0" y="1.006000042" font-family="Century Gothic" font-weight="normal" font-style="normal" font-size="1" fill="#000000">
						</tspan>
					</text>
				</g>
				<g transform="matrix(1,0,0,1,0,65.364997864)">
					<text>
						<tspan x="0" y="19.798000336" font-family="Century Gothic" font-weight="normal" font-style="normal" font-size="10" fill="#000000">
							 Bradford, BD1 6YU | 07941 234 567 | lily.french@example.co.uk
						</tspan>
					</text>
				</g>
				<g transform="matrix(1,0,0,1,0,87.364997864)">
					<text>
						<tspan x="0" y="27.357000351" font-family="Century Gothic" font-weight="bold" font-style="normal" font-size="12" fill="#000000">
							SUMMARY
						</tspan>
					</text>
				</g>
				<g transform="matrix(1,0,0,1,0,119.364997864)">
					<text>
						<tspan x="0" y="14.578000069" font-family="Century Gothic" font-weight="normal" font-style="normal" font-size="11" fill="#000000">
							Highly organised and disciplined pharmacy leader with excellent communication and conflict
						</tspan>
						<tspan x="0" y="31.577999115" font-family="Century Gothic" font-weight="normal" font-style="normal" font-size="11" fill="#000000">
							resolution skills. Competent in managing supplies, reviewing service quality, and maintaining patient
						</tspan>
						<tspan x="0" y="48.577999115" font-family="Century Gothic" font-weight="normal" font-style="normal" font-size="11" fill="#000000">
							confidentiality and satisfaction. Skilled at ordering, storing, and preparing medications for customer
						</tspan>
						<tspan x="0" y="65.57800293" font-family="Century Gothic" font-weight="normal" font-style="normal" font-size="11" fill="#000000">
							use. Accomplished in increasing customer satisfaction while improving controls, team operations,
						</tspan>
						<tspan x="0" y="82.57800293" font-family="Century Gothic" font-weight="normal" font-style="normal" font-size="11" fill="#000000">
							and loss prevention strategies. Knowledgeable in preparing special compounds.
						</tspan>
					</text>
				</g>
				<g transform="matrix(1,0,0,1,0,204.365005493)">
					<text>
						<tspan x="0" y="27.357000351" font-family="Century Gothic" font-weight="bold" font-style="normal" font-size="12" fill="#000000">
							EXPERIENCE
						</tspan>
					</text>
				</g>
				<g transform="matrix(1,0,0,1,0,236.365005493)">
					<g transform="matrix(1,0,0,1,0,0)" clip-path="url(#clip1)">
						<text>
							<tspan x="0" y="15.578000069" font-family="Century Gothic" font-weight="bold" font-style="normal" font-size="11" fill="#000000">
								06/2017 to Current
							</tspan>
						</text>
					</g>
					<g transform="matrix(1,0,0,1,115,0)" clip-path="url(#clip2)">
						<text>
							<tspan x="0" y="15.578000069" font-family="Century Gothic" font-weight="bold" font-style="normal" font-size="11" fill="#000000">
								Pharmacist
							</tspan>
							<tspan x="58.958000183" y="15.578000069" font-family="Century Gothic" font-weight="normal" font-style="normal" font-size="11" fill="#000000">
							</tspan>
						</text>
						<g transform="matrix(1,0,0,1,0,18)">
							<text>
								<tspan x="0" y="15.578000069" font-family="Century Gothic" font-weight="bold" font-style="normal" font-size="11" fill="#000000">
									King Chemist
								</tspan>
								<tspan x="69.733001709" y="15.578000069" font-family="Century Gothic" font-weight="normal" font-style="normal" font-size="8" fill="#000000">
								</tspan>
								<tspan x="71.947998047" y="15.578000069" font-family="MS Mincho" font-weight="normal" font-style="normal" font-size="8" fill="#000000">
									－
								</tspan>
								<tspan x="79.947998047" y="15.578000069" font-family="Century Gothic" font-weight="normal" font-style="normal" font-size="8" fill="#000000">
								</tspan>
								<tspan x="82.163002014" y="15.578000069" font-family="Century Gothic" font-weight="normal" font-style="normal" font-size="11" fill="#000000">
									Birmingham
								</tspan>
							</text>
						</g>
						<g transform="matrix(1,0,0,1,18.950000763,36)">
							<text>
								<tspan x="-0.5" y="14.828000069" font-family="Times New Roman" font-weight="normal" font-style="normal" font-size="8.25" fill="#000000">
									●
								</tspan>
								<tspan x="13.050000191" y="15.578000069" font-family="Century Gothic" font-weight="normal" font-style="normal" font-size="11" fill="#000000">
									Checked more than 30 patient orders against histories each day,
								</tspan>
								<tspan x="13.050000191" y="33.577999115" font-family="Century Gothic" font-weight="normal" font-style="normal" font-size="11" fill="#000000">
									assessed insurance coverage and counted out medicines.
								</tspan>
							</text>
						</g>
						<g transform="matrix(1,0,0,1,18.950000763,72)">
							<text>
								<tspan x="-0.5" y="14.828000069" font-family="Times New Roman" font-weight="normal" font-style="normal" font-size="8.25" fill="#000000">
									●
								</tspan>
								<tspan x="13.050000191" y="15.578000069" font-family="Century Gothic" font-weight="normal" font-style="normal" font-size="11" fill="#000000">
									Provided patient counselling regarding OTC medications.
								</tspan>
							</text>
						</g>
						<g transform="matrix(1,0,0,1,18.950000763,90)">
							<text>
								<tspan x="-0.5" y="14.828000069" font-family="Times New Roman" font-weight="normal" font-style="normal" font-size="8.25" fill="#000000">
									●
								</tspan>
								<tspan x="13.050000191" y="15.578000069" font-family="Century Gothic" font-weight="normal" font-style="normal" font-size="11" fill="#000000">
									Managed weekly schedules and requests for leave.
								</tspan>
							</text>
						</g>
					</g>
				</g>
				<g transform="matrix(1,0,0,1,0,344.364990234)">
					<g transform="matrix(1,0,0,1,0,0)" clip-path="url(#clip3)">
						<g transform="matrix(1,0,0,1,0,4)">
							<text>
								<tspan x="0" y="15.578000069" font-family="Century Gothic" font-weight="bold" font-style="normal" font-size="11" fill="#000000">
									02/2013 to 05/2017
								</tspan>
							</text>
						</g>
					</g>
					<g transform="matrix(1,0,0,1,115,0)" clip-path="url(#clip4)">
						<g transform="matrix(1,0,0,1,0,4)">
							<text>
								<tspan x="0" y="15.578000069" font-family="Century Gothic" font-weight="bold" font-style="normal" font-size="11" fill="#000000">
									Pharmacist
								</tspan>
								<tspan x="58.958000183" y="15.578000069" font-family="Century Gothic" font-weight="normal" font-style="normal" font-size="11" fill="#000000">
								</tspan>
							</text>
						</g>
						<g transform="matrix(1,0,0,1,0,22)">
							<text>
								<tspan x="0" y="15.578000069" font-family="Century Gothic" font-weight="bold" font-style="normal" font-size="11" fill="#000000">
									L Pharma
								</tspan>
								<tspan x="49.060001373" y="15.578000069" font-family="Century Gothic" font-weight="normal" font-style="normal" font-size="8" fill="#000000">
								</tspan>
								<tspan x="51.275001526" y="15.578000069" font-family="MS Mincho" font-weight="normal" font-style="normal" font-size="8" fill="#000000">
									－
								</tspan>
								<tspan x="59.275001526" y="15.578000069" font-family="Century Gothic" font-weight="normal" font-style="normal" font-size="8" fill="#000000">
								</tspan>
								<tspan x="61.490001678" y="15.578000069" font-family="Century Gothic" font-weight="normal" font-style="normal" font-size="11" fill="#000000">
									Birmingham
								</tspan>
							</text>
						</g>
						<g transform="matrix(1,0,0,1,18.950000763,40)">
							<text>
								<tspan x="-0.5" y="14.828000069" font-family="Times New Roman" font-weight="normal" font-style="normal" font-size="8.25" fill="#000000">
									●
								</tspan>
								<tspan x="13.050000191" y="15.578000069" font-family="Century Gothic" font-weight="normal" font-style="normal" font-size="11" fill="#000000">
									Used pharmacy software Meditab to verify prescription and insurance
								</tspan>
								<tspan x="13.050000191" y="33.577999115" font-family="Century Gothic" font-weight="normal" font-style="normal" font-size="11" fill="#000000">
									information.
								</tspan>
							</text>
						</g>
						<g transform="matrix(1,0,0,1,18.950000763,76)">
							<text>
								<tspan x="-0.5" y="14.828000069" font-family="Times New Roman" font-weight="normal" font-style="normal" font-size="8.25" fill="#000000">
									●
								</tspan>
								<tspan x="13.050000191" y="15.578000069" font-family="Century Gothic" font-weight="normal" font-style="normal" font-size="11" fill="#000000">
									Compounded and prepared medications according to prescription
								</tspan>
								<tspan x="13.050000191" y="33.577999115" font-family="Century Gothic" font-weight="normal" font-style="normal" font-size="11" fill="#000000">
									orders for more than 160 prescriptions every week.
								</tspan>
							</text>
						</g>
						<g transform="matrix(1,0,0,1,18.950000763,112)">
							<text>
								<tspan x="-0.5" y="14.828000069" font-family="Times New Roman" font-weight="normal" font-style="normal" font-size="8.25" fill="#000000">
									●
								</tspan>
								<tspan x="13.050000191" y="15.578000069" font-family="Century Gothic" font-weight="normal" font-style="normal" font-size="11" fill="#000000">
									Solicited medical history information from patients to provide best and
								</tspan>
								<tspan x="13.050000191" y="33.577999115" font-family="Century Gothic" font-weight="normal" font-style="normal" font-size="11" fill="#000000">
									most effective medical advice.
								</tspan>
							</text>
						</g>
					</g>
				</g>
				<g transform="matrix(1,0,0,1,0,492.364990234)">
					<text>
						<tspan x="0" y="27.357000351" font-family="Century Gothic" font-weight="bold" font-style="normal" font-size="12" fill="#000000">
							SKILLS
						</tspan>
					</text>
				</g>
				<g transform="matrix(1,0,0,1,115,524.364990234)">
					<g transform="matrix(1,0,0,1,0,0)" clip-path="url(#clip5)">
						<g transform="matrix(1,0,0,1,19.200000763,0.25)">
							<text>
								<tspan x="-0.5" y="13.828000069" font-family="Times New Roman" font-weight="normal" font-style="normal" font-size="8.25" fill="#000000">
									●
								</tspan>
								<tspan x="13.050000191" y="14.578000069" font-family="Century Gothic" font-weight="normal" font-style="normal" font-size="11" fill="#000000">
									Interpreting orders
								</tspan>
							</text>
						</g>
						<g transform="matrix(1,0,0,1,19.200000763,17.25)">
							<text>
								<tspan x="-0.5" y="13.828000069" font-family="Times New Roman" font-weight="normal" font-style="normal" font-size="8.25" fill="#000000">
									●
								</tspan>
								<tspan x="13.050000191" y="14.578000069" font-family="Century Gothic" font-weight="normal" font-style="normal" font-size="11" fill="#000000">
									Dosing recommendations
								</tspan>
							</text>
						</g>
						<g transform="matrix(1,0,0,1,19.200000763,34.25)">
							<text>
								<tspan x="-0.5" y="13.828000069" font-family="Times New Roman" font-weight="normal" font-style="normal" font-size="8.25" fill="#000000">
									●
								</tspan>
								<tspan x="13.050000191" y="14.578000069" font-family="Century Gothic" font-weight="normal" font-style="normal" font-size="11" fill="#000000">
									Compounding abilities
								</tspan>
							</text>
						</g>
						<g transform="matrix(1,0,0,1,19.200000763,51.25)">
							<text>
								<tspan x="-0.5" y="13.828000069" font-family="Times New Roman" font-weight="normal" font-style="normal" font-size="8.25" fill="#000000">
									●
								</tspan>
								<tspan x="13.050000191" y="14.578000069" font-family="Century Gothic" font-weight="normal" font-style="normal" font-size="11" fill="#000000">
									Employee training
								</tspan>
							</text>
						</g>
						<g transform="matrix(1,0,0,1,19.200000763,68.25)">
							<text>
								<tspan x="-0.5" y="13.828000069" font-family="Times New Roman" font-weight="normal" font-style="normal" font-size="8.25" fill="#000000">
									●
								</tspan>
								<tspan x="13.050000191" y="14.578000069" font-family="Century Gothic" font-weight="normal" font-style="normal" font-size="11" fill="#000000">
									Dispensing medicines
								</tspan>
							</text>
						</g>
					</g>
					<g transform="matrix(1,0,0,1,208.399993896,0)" clip-path="url(#clip6)">
						<g transform="matrix(1,0,0,1,19.450000763,0.25)">
							<text>
								<tspan x="-0.5" y="13.828000069" font-family="Times New Roman" font-weight="normal" font-style="normal" font-size="8.25" fill="#000000">
									●
								</tspan>
								<tspan x="13.050000191" y="14.578000069" font-family="Century Gothic" font-weight="normal" font-style="normal" font-size="11" fill="#000000">
									Customer relations
								</tspan>
							</text>
						</g>
						<g transform="matrix(1,0,0,1,19.450000763,17.25)">
							<text>
								<tspan x="-0.5" y="13.828000069" font-family="Times New Roman" font-weight="normal" font-style="normal" font-size="8.25" fill="#000000">
									●
								</tspan>
								<tspan x="13.050000191" y="14.578000069" font-family="Century Gothic" font-weight="normal" font-style="normal" font-size="11" fill="#000000">
									Resolving complaints
								</tspan>
							</text>
						</g>
						<g transform="matrix(1,0,0,1,19.450000763,34.25)">
							<text>
								<tspan x="-0.5" y="13.828000069" font-family="Times New Roman" font-weight="normal" font-style="normal" font-size="8.25" fill="#000000">
									●
								</tspan>
								<tspan x="13.050000191" y="14.578000069" font-family="Century Gothic" font-weight="normal" font-style="normal" font-size="11" fill="#000000">
									Sales skills
								</tspan>
							</text>
						</g>
						<g transform="matrix(1,0,0,1,19.450000763,51.25)">
							<text>
								<tspan x="-0.5" y="13.828000069" font-family="Times New Roman" font-weight="normal" font-style="normal" font-size="8.25" fill="#000000">
									●
								</tspan>
								<tspan x="13.050000191" y="14.578000069" font-family="Century Gothic" font-weight="normal" font-style="normal" font-size="11" fill="#000000">
									Patient education
								</tspan>
							</text>
						</g>
					</g>
					<path d="M208.399993896,0 L208.399993896,85.5 " stroke-width="1" stroke-miterlimit="10" stroke="#fefdfd" fill="none" fill-rule="evenodd">
					</path>
				</g>
				<g transform="matrix(1,0,0,1,0,609.864990234)">
					<text>
						<tspan x="0" y="27.357000351" font-family="Century Gothic" font-weight="bold" font-style="normal" font-size="12" fill="#000000">
							EDUCATION
						</tspan>
					</text>
				</g>
				<g transform="matrix(1,0,0,1,0,641.864990234)">
					<g transform="matrix(1,0,0,1,0,0)" clip-path="url(#clip7)">
						<text>
							<tspan x="0" y="15.578000069" font-family="Century Gothic" font-weight="bold" font-style="normal" font-size="11" fill="#000000">
								2010
							</tspan>
						</text>
					</g>
					<g transform="matrix(1,0,0,1,115,0)" clip-path="url(#clip8)">
						<text>
							<tspan x="0" y="15.578000069" font-family="Century Gothic" font-weight="bold" font-style="normal" font-size="11" fill="#000000">
								Masters degree in pharmacy
							</tspan>
							<tspan x="154.00100708" y="15.578000069" font-family="Century Gothic" font-weight="normal" font-style="normal" font-size="11" fill="#000000">
							</tspan>
						</text>
						<g transform="matrix(1,0,0,1,0,18)">
							<text>
								<tspan x="0" y="15.578000069" font-family="Century Gothic" font-weight="bold" font-style="normal" font-size="11" fill="#000000">
									Birmingham University
								</tspan>
								<tspan x="116.810997009" y="15.578000069" font-family="Century Gothic" font-weight="normal" font-style="normal" font-size="11" fill="#000000">
								</tspan>
								<tspan x="119.856002808" y="15.578000069" font-family="MS Mincho" font-weight="normal" font-style="normal" font-size="8" fill="#000000">
									－
								</tspan>
								<tspan x="127.856002808" y="15.578000069" font-family="Century Gothic" font-weight="normal" font-style="normal" font-size="8" fill="#000000">
								</tspan>
								<tspan x="130.070999146" y="15.578000069" font-family="Century Gothic" font-weight="normal" font-style="normal" font-size="11" fill="#000000">
									Birmingham
								</tspan>
							</text>
						</g>
					</g>
				</g>
				<g transform="matrix(1,0,0,1,0,677.864990234)">
					<text>
						<tspan x="0" y="27.357000351" font-family="Century Gothic" font-weight="bold" font-style="normal" font-size="12" fill="#000000">
							ADDITIONAL INFORMATION
						</tspan>
					</text>
				</g>
				<g transform="matrix(1,0,0,1,115,709.864990234)">
					<text>
						<tspan x="0" y="14.578000069" font-family="Century Gothic" font-weight="normal" font-style="normal" font-size="11" fill="#000000">
							Registered at General Pharmaceutical Council.
						</tspan>
					</text>
				</g>
			</g>
		</g>
	</g>
</svg>
