<?xml version="1.0" encoding="utf-8" standalone="yes"?>
<svg xmlns="http://www.w3.org/2000/svg" xmlns:xlink="http://www.w3.org/1999/xlink" version="1.1" width="816" height="1056">
	<!-- Generated by Aspose.Words for .NET 18.5 -->
	<defs>
		<clipPath id="clip1">
			<path d="M-1,-1 L116,-1 L116,97 L-1,97 Z" clip-rule="evenodd">
			</path>
		</clipPath>
		<clipPath id="clip2">
			<path d="M-1,-1 L418,-1 L418,97 L-1,97 Z" clip-rule="evenodd">
			</path>
		</clipPath>
		<clipPath id="clip3">
			<path d="M-1,-1 L116,-1 L116,137 L-1,137 Z" clip-rule="evenodd">
			</path>
		</clipPath>
		<clipPath id="clip4">
			<path d="M-1,-1 L418,-1 L418,137 L-1,137 Z" clip-rule="evenodd">
			</path>
		</clipPath>
		<clipPath id="clip5">
			<path d="M-1,-1 L209.399993896,-1 L209.399993896,76.5 L-1,76.5 Z" clip-rule="evenodd">
			</path>
		</clipPath>
		<clipPath id="clip6">
			<path d="M-0.5,-1 L209.399993896,-1 L209.399993896,76.5 L-0.5,76.5 Z" clip-rule="evenodd">
			</path>
		</clipPath>
		<clipPath id="clip7">
			<path d="M-1,-1 L116,-1 L116,33 L-1,33 Z" clip-rule="evenodd">
			</path>
		</clipPath>
		<clipPath id="clip8">
			<path d="M-1,-1 L418,-1 L418,33 L-1,33 Z" clip-rule="evenodd">
			</path>
		</clipPath>
		<style type="text/css">
			svg{background:white}@font-face{font-family:'Century Gothic';font-weight:normal;font-style:normal;src:local('Century Gothic'),url('https://content.livecareer.com/zty/fonts/CenturyGothic.ttf') format('truetype')}@font-face{font-family:'Century Gothic';font-weight:bold;font-style:normal;src:local('Century Gothic Bold'),url('https://content.livecareer.com/zty/fonts/CenturyGothicBold.ttf') format('truetype')}@font-face{font-family:'Century Gothic';font-weight:bold;font-style:italic;src:local('Century Gothic Bold Italic'),url('https://content.livecareer.com/zty/fonts/CenturyGothicBoldItalic.ttf') format('truetype')}@font-face{font-family:'Century Gothic';font-weight:normal;font-style:italic;src:local('Century Gothic Italic'),url('https://content.livecareer.com/zty/fonts/CenturyGothicItalic.ttf') format('truetype')}
		</style>
	</defs>
	<g transform="scale(1.33333)">
		<g>
			<path d="M0,0 L600,0 L600,450 L0,450 Z" fill="#ffffff" fill-rule="evenodd">
			</path>
			<g transform="matrix(1,0,0,1,600,0)">
				<path d="M0,0 L600,0 L600,450 L0,450 Z" fill="#ffffff" fill-rule="evenodd">
				</path>
			</g>
			<g transform="matrix(1,0,0,1,0,450)">
				<path d="M0,0 L600,0 L600,450 L0,450 Z" fill="#ffffff" fill-rule="evenodd">
				</path>
			</g>
			<g transform="matrix(1,0,0,1,600,450)">
				<path d="M0,0 L600,0 L600,450 L0,450 Z" fill="#ffffff" fill-rule="evenodd">
				</path>
			</g>
			<g transform="matrix(1,0,0,1,40,24)">
				<text>
					<tspan x="0" y="47.205001831" font-family="Century Gothic" font-weight="bold" font-style="normal" font-size="35" fill="#009999">
						Lily
					</tspan>
					<tspan x="55.564002991" y="47.205001831" font-family="Century Gothic" font-weight="bold" font-style="normal" font-size="35" fill="#009999">
						French
					</tspan>
				</text>
				<g transform="matrix(1,0,0,1,0,54.912998199)">
					<text>
						<tspan x="0" y="1.006000042" font-family="Century Gothic" font-weight="normal" font-style="normal" font-size="1" fill="#333333">
						</tspan>
					</text>
				</g>
				<g transform="matrix(1,0,0,1,0,56.138999939)">
					<text>
						<tspan x="0" y="17.017999649" font-family="Century Gothic" font-weight="normal" font-style="normal" font-size="9" fill="#333333">
							 Bradford, BD1 6YU | 07941 234 567 | lily.french@example.co.uk
						</tspan>
					</text>
				</g>
				<g transform="matrix(1,0,0,1,0,75.138999939)">
					<text>
						<tspan x="0" y="26.357000351" font-family="Century Gothic" font-weight="bold" font-style="normal" font-size="12" fill="#009999">
							SUMMARY
						</tspan>
					</text>
				</g>
				<g transform="matrix(1,0,0,1,0,108.138999939)">
					<text>
						<tspan x="0" y="12.798000336" font-family="Century Gothic" font-weight="normal" font-style="normal" font-size="10" fill="#333333">
							Highly organised and disciplined pharmacy leader with excellent communication and conflict resolution skills.
						</tspan>
						<tspan x="0" y="27.798000336" font-family="Century Gothic" font-weight="normal" font-style="normal" font-size="10" fill="#333333">
							Competent in managing supplies, reviewing service quality, and maintaining patient confidentiality and
						</tspan>
						<tspan x="0" y="42.798000336" font-family="Century Gothic" font-weight="normal" font-style="normal" font-size="10" fill="#333333">
							satisfaction. Skilled at ordering, storing, and preparing medications for customer use. Accomplished in
						</tspan>
						<tspan x="0" y="57.798000336" font-family="Century Gothic" font-weight="normal" font-style="normal" font-size="10" fill="#333333">
							increasing customer satisfaction while improving controls, team operations, and loss prevention strategies.
						</tspan>
						<tspan x="0" y="72.79800415" font-family="Century Gothic" font-weight="normal" font-style="normal" font-size="10" fill="#333333">
							Knowledgeable in preparing special compounds.
						</tspan>
					</text>
				</g>
				<g transform="matrix(1,0,0,1,0,183.139007568)">
					<text>
						<tspan x="0" y="26.357000351" font-family="Century Gothic" font-weight="bold" font-style="normal" font-size="12" fill="#009999">
							EXPERIENCE
						</tspan>
					</text>
				</g>
				<g transform="matrix(1,0,0,1,0,216.139007568)">
					<g transform="matrix(1,0,0,1,0,0)" clip-path="url(#clip1)">
						<text>
							<tspan x="0" y="13.798000336" font-family="Century Gothic" font-weight="bold" font-style="normal" font-size="10" fill="#333333">
								06/2017 to Current
							</tspan>
						</text>
					</g>
					<g transform="matrix(1,0,0,1,115,0)" clip-path="url(#clip2)">
						<text>
							<tspan x="0" y="13.798000336" font-family="Century Gothic" font-weight="bold" font-style="normal" font-size="10" fill="#333333">
								Pharmacist
							</tspan>
							<tspan x="53.598999023" y="13.798000336" font-family="Century Gothic" font-weight="normal" font-style="normal" font-size="10" fill="#333333">
							</tspan>
						</text>
						<g transform="matrix(1,0,0,1,0,16)">
							<text>
								<tspan x="0" y="13.798000336" font-family="Century Gothic" font-weight="bold" font-style="normal" font-size="10" fill="#333333">
									King Chemist
								</tspan>
								<tspan x="63.394001007" y="13.798000336" font-family="Century Gothic" font-weight="normal" font-style="normal" font-size="7" fill="#333333">
								</tspan>
								<tspan x="65.332000732" y="13.798000336" font-family="MS Mincho" font-weight="normal" font-style="normal" font-size="7" fill="#333333">
									－
								</tspan>
								<tspan x="72.332000732" y="13.798000336" font-family="Century Gothic" font-weight="normal" font-style="normal" font-size="7" fill="#333333">
								</tspan>
								<tspan x="74.269996643" y="13.798000336" font-family="Century Gothic" font-weight="normal" font-style="normal" font-size="10" fill="#333333">
									Birmingham
								</tspan>
							</text>
						</g>
						<g transform="matrix(1,0,0,1,19.399999619,32)">
							<text>
								<tspan x="-0.5" y="13.048000336" font-family="Times New Roman" font-weight="normal" font-style="normal" font-size="7.5" fill="#333333">
									●
								</tspan>
								<tspan x="12.600000381" y="13.798000336" font-family="Century Gothic" font-weight="normal" font-style="normal" font-size="10" fill="#333333">
									Checked more than 30 patient orders against histories each day, assessed
								</tspan>
								<tspan x="12.600000381" y="29.798000336" font-family="Century Gothic" font-weight="normal" font-style="normal" font-size="10" fill="#333333">
									insurance coverage and counted out medicines.
								</tspan>
							</text>
						</g>
						<g transform="matrix(1,0,0,1,19.399999619,64)">
							<text>
								<tspan x="-0.5" y="13.048000336" font-family="Times New Roman" font-weight="normal" font-style="normal" font-size="7.5" fill="#333333">
									●
								</tspan>
								<tspan x="12.600000381" y="13.798000336" font-family="Century Gothic" font-weight="normal" font-style="normal" font-size="10" fill="#333333">
									Provided patient counselling regarding OTC medications.
								</tspan>
							</text>
						</g>
						<g transform="matrix(1,0,0,1,19.399999619,80)">
							<text>
								<tspan x="-0.5" y="13.048000336" font-family="Times New Roman" font-weight="normal" font-style="normal" font-size="7.5" fill="#333333">
									●
								</tspan>
								<tspan x="12.600000381" y="13.798000336" font-family="Century Gothic" font-weight="normal" font-style="normal" font-size="10" fill="#333333">
									Managed weekly schedules and requests for leave.
								</tspan>
							</text>
						</g>
					</g>
				</g>
				<g transform="matrix(1,0,0,1,0,312.139007568)">
					<g transform="matrix(1,0,0,1,0,0)" clip-path="url(#clip3)">
						<g transform="matrix(1,0,0,1,0,8)">
							<text>
								<tspan x="0" y="13.798000336" font-family="Century Gothic" font-weight="bold" font-style="normal" font-size="10" fill="#333333">
									02/2013 to 05/2017
								</tspan>
							</text>
						</g>
					</g>
					<g transform="matrix(1,0,0,1,115,0)" clip-path="url(#clip4)">
						<g transform="matrix(1,0,0,1,0,8)">
							<text>
								<tspan x="0" y="13.798000336" font-family="Century Gothic" font-weight="bold" font-style="normal" font-size="10" fill="#333333">
									Pharmacist
								</tspan>
								<tspan x="53.598999023" y="13.798000336" font-family="Century Gothic" font-weight="normal" font-style="normal" font-size="10" fill="#333333">
								</tspan>
							</text>
						</g>
						<g transform="matrix(1,0,0,1,0,24)">
							<text>
								<tspan x="0" y="13.798000336" font-family="Century Gothic" font-weight="bold" font-style="normal" font-size="10" fill="#333333">
									L Pharma
								</tspan>
								<tspan x="44.598999023" y="13.798000336" font-family="Century Gothic" font-weight="normal" font-style="normal" font-size="7" fill="#333333">
								</tspan>
								<tspan x="46.536998749" y="13.798000336" font-family="MS Mincho" font-weight="normal" font-style="normal" font-size="7" fill="#333333">
									－
								</tspan>
								<tspan x="53.536998749" y="13.798000336" font-family="Century Gothic" font-weight="normal" font-style="normal" font-size="7" fill="#333333">
								</tspan>
								<tspan x="55.474998474" y="13.798000336" font-family="Century Gothic" font-weight="normal" font-style="normal" font-size="10" fill="#333333">
									Birmingham
								</tspan>
							</text>
						</g>
						<g transform="matrix(1,0,0,1,19.399999619,40)">
							<text>
								<tspan x="-0.5" y="13.048000336" font-family="Times New Roman" font-weight="normal" font-style="normal" font-size="7.5" fill="#333333">
									●
								</tspan>
								<tspan x="12.600000381" y="13.798000336" font-family="Century Gothic" font-weight="normal" font-style="normal" font-size="10" fill="#333333">
									Used pharmacy software Meditab to verify prescription and insurance
								</tspan>
								<tspan x="12.600000381" y="29.798000336" font-family="Century Gothic" font-weight="normal" font-style="normal" font-size="10" fill="#333333">
									information.
								</tspan>
							</text>
						</g>
						<g transform="matrix(1,0,0,1,19.399999619,72)">
							<text>
								<tspan x="-0.5" y="13.048000336" font-family="Times New Roman" font-weight="normal" font-style="normal" font-size="7.5" fill="#333333">
									●
								</tspan>
								<tspan x="12.600000381" y="13.798000336" font-family="Century Gothic" font-weight="normal" font-style="normal" font-size="10" fill="#333333">
									Compounded and prepared medications according to prescription orders for
								</tspan>
								<tspan x="12.600000381" y="29.798000336" font-family="Century Gothic" font-weight="normal" font-style="normal" font-size="10" fill="#333333">
									more than 160 prescriptions every week.
								</tspan>
							</text>
						</g>
						<g transform="matrix(1,0,0,1,19.399999619,104)">
							<text>
								<tspan x="-0.5" y="13.048000336" font-family="Times New Roman" font-weight="normal" font-style="normal" font-size="7.5" fill="#333333">
									●
								</tspan>
								<tspan x="12.600000381" y="13.798000336" font-family="Century Gothic" font-weight="normal" font-style="normal" font-size="10" fill="#333333">
									Solicited medical history information from patients to provide best and most
								</tspan>
								<tspan x="12.600000381" y="29.798000336" font-family="Century Gothic" font-weight="normal" font-style="normal" font-size="10" fill="#333333">
									effective medical advice.
								</tspan>
							</text>
						</g>
					</g>
				</g>
				<g transform="matrix(1,0,0,1,0,448.139007568)">
					<text>
						<tspan x="0" y="26.357000351" font-family="Century Gothic" font-weight="bold" font-style="normal" font-size="12" fill="#009999">
							SKILLS
						</tspan>
					</text>
				</g>
				<g transform="matrix(1,0,0,1,115,481.139007568)">
					<g transform="matrix(1,0,0,1,0,0)" clip-path="url(#clip5)">
						<g transform="matrix(1,0,0,1,19.649999619,0.25)">
							<text>
								<tspan x="-0.5" y="12.048000336" font-family="Times New Roman" font-weight="normal" font-style="normal" font-size="7.5" fill="#333333">
									●
								</tspan>
								<tspan x="12.600000381" y="12.798000336" font-family="Century Gothic" font-weight="normal" font-style="normal" font-size="10" fill="#333333">
									Interpreting orders
								</tspan>
							</text>
						</g>
						<g transform="matrix(1,0,0,1,19.649999619,15.25)">
							<text>
								<tspan x="-0.5" y="12.048000336" font-family="Times New Roman" font-weight="normal" font-style="normal" font-size="7.5" fill="#333333">
									●
								</tspan>
								<tspan x="12.600000381" y="12.798000336" font-family="Century Gothic" font-weight="normal" font-style="normal" font-size="10" fill="#333333">
									Dosing recommendations
								</tspan>
							</text>
						</g>
						<g transform="matrix(1,0,0,1,19.649999619,30.25)">
							<text>
								<tspan x="-0.5" y="12.048000336" font-family="Times New Roman" font-weight="normal" font-style="normal" font-size="7.5" fill="#333333">
									●
								</tspan>
								<tspan x="12.600000381" y="12.798000336" font-family="Century Gothic" font-weight="normal" font-style="normal" font-size="10" fill="#333333">
									Compounding abilities
								</tspan>
							</text>
						</g>
						<g transform="matrix(1,0,0,1,19.649999619,45.25)">
							<text>
								<tspan x="-0.5" y="12.048000336" font-family="Times New Roman" font-weight="normal" font-style="normal" font-size="7.5" fill="#333333">
									●
								</tspan>
								<tspan x="12.600000381" y="12.798000336" font-family="Century Gothic" font-weight="normal" font-style="normal" font-size="10" fill="#333333">
									Employee training
								</tspan>
							</text>
						</g>
						<g transform="matrix(1,0,0,1,19.649999619,60.25)">
							<text>
								<tspan x="-0.5" y="12.048000336" font-family="Times New Roman" font-weight="normal" font-style="normal" font-size="7.5" fill="#333333">
									●
								</tspan>
								<tspan x="12.600000381" y="12.798000336" font-family="Century Gothic" font-weight="normal" font-style="normal" font-size="10" fill="#333333">
									Dispensing medicines
								</tspan>
							</text>
						</g>
					</g>
					<g transform="matrix(1,0,0,1,208.399993896,0)" clip-path="url(#clip6)">
						<g transform="matrix(1,0,0,1,19.899999619,0.25)">
							<text>
								<tspan x="-0.5" y="12.048000336" font-family="Times New Roman" font-weight="normal" font-style="normal" font-size="7.5" fill="#333333">
									●
								</tspan>
								<tspan x="12.600000381" y="12.798000336" font-family="Century Gothic" font-weight="normal" font-style="normal" font-size="10" fill="#333333">
									Customer relations
								</tspan>
							</text>
						</g>
						<g transform="matrix(1,0,0,1,19.899999619,15.25)">
							<text>
								<tspan x="-0.5" y="12.048000336" font-family="Times New Roman" font-weight="normal" font-style="normal" font-size="7.5" fill="#333333">
									●
								</tspan>
								<tspan x="12.600000381" y="12.798000336" font-family="Century Gothic" font-weight="normal" font-style="normal" font-size="10" fill="#333333">
									Resolving complaints
								</tspan>
							</text>
						</g>
						<g transform="matrix(1,0,0,1,19.899999619,30.25)">
							<text>
								<tspan x="-0.5" y="12.048000336" font-family="Times New Roman" font-weight="normal" font-style="normal" font-size="7.5" fill="#333333">
									●
								</tspan>
								<tspan x="12.600000381" y="12.798000336" font-family="Century Gothic" font-weight="normal" font-style="normal" font-size="10" fill="#333333">
									Sales skills
								</tspan>
							</text>
						</g>
						<g transform="matrix(1,0,0,1,19.899999619,45.25)">
							<text>
								<tspan x="-0.5" y="12.048000336" font-family="Times New Roman" font-weight="normal" font-style="normal" font-size="7.5" fill="#333333">
									●
								</tspan>
								<tspan x="12.600000381" y="12.798000336" font-family="Century Gothic" font-weight="normal" font-style="normal" font-size="10" fill="#333333">
									Patient education
								</tspan>
							</text>
						</g>
					</g>
					<path d="M208.399993896,0 L208.399993896,75.5 " stroke-width="1" stroke-miterlimit="10" stroke="#fefdfd" fill="none" fill-rule="evenodd">
					</path>
				</g>
				<g transform="matrix(1,0,0,1,0,556.638977051)">
					<text>
						<tspan x="0" y="26.357000351" font-family="Century Gothic" font-weight="bold" font-style="normal" font-size="12" fill="#009999">
							EDUCATION
						</tspan>
					</text>
				</g>
				<g transform="matrix(1,0,0,1,0,589.638977051)">
					<g transform="matrix(1,0,0,1,0,0)" clip-path="url(#clip7)">
						<text>
							<tspan x="0" y="13.798000336" font-family="Century Gothic" font-weight="bold" font-style="normal" font-size="10" fill="#333333">
								2010
							</tspan>
						</text>
					</g>
					<g transform="matrix(1,0,0,1,115,0)" clip-path="url(#clip8)">
						<text>
							<tspan x="0" y="13.798000336" font-family="Century Gothic" font-weight="bold" font-style="normal" font-size="10" fill="#333333">
								Masters degree in pharmacy
							</tspan>
							<tspan x="139.99899292" y="13.798000336" font-family="Century Gothic" font-weight="normal" font-style="normal" font-size="10" fill="#333333">
							</tspan>
						</text>
						<g transform="matrix(1,0,0,1,0,16)">
							<text>
								<tspan x="0" y="13.798000336" font-family="Century Gothic" font-weight="bold" font-style="normal" font-size="10" fill="#333333">
									Birmingham University
								</tspan>
								<tspan x="106.192001343" y="13.798000336" font-family="Century Gothic" font-weight="normal" font-style="normal" font-size="10" fill="#333333">
								</tspan>
								<tspan x="108.960998535" y="13.798000336" font-family="MS Mincho" font-weight="normal" font-style="normal" font-size="7" fill="#333333">
									－
								</tspan>
								<tspan x="115.960998535" y="13.798000336" font-family="Century Gothic" font-weight="normal" font-style="normal" font-size="7" fill="#333333">
								</tspan>
								<tspan x="117.899002075" y="13.798000336" font-family="Century Gothic" font-weight="normal" font-style="normal" font-size="10" fill="#333333">
									Birmingham
								</tspan>
							</text>
						</g>
					</g>
				</g>
				<g transform="matrix(1,0,0,1,0,621.638977051)">
					<text>
						<tspan x="0" y="26.357000351" font-family="Century Gothic" font-weight="bold" font-style="normal" font-size="12" fill="#009999">
							ADDITIONAL INFORMATION
						</tspan>
					</text>
				</g>
				<g transform="matrix(1,0,0,1,115,654.638977051)">
					<text>
						<tspan x="0" y="12.798000336" font-family="Century Gothic" font-weight="normal" font-style="normal" font-size="10" fill="#333333">
							Registered at General Pharmaceutical Council.
						</tspan>
					</text>
				</g>
			</g>
		</g>
	</g>
</svg>
