<?xml version="1.0" encoding="utf-8" standalone="yes"?>
<svg xmlns="http://www.w3.org/2000/svg" xmlns:xlink="http://www.w3.org/1999/xlink" version="1.1" width="816" height="1056">
	<!-- Generated by Aspose.Words for .NET 18.5 -->
	<defs>
		<clipPath id="clip1">
			<path d="M-1,-1 L116,-1 L116,81.92199707 L-1,81.92199707 Z" clip-rule="evenodd">
			</path>
		</clipPath>
		<clipPath id="clip2">
			<path d="M-1,-1 L418,-1 L418,81.92199707 L-1,81.92199707 Z" clip-rule="evenodd">
			</path>
		</clipPath>
		<clipPath id="clip3">
			<path d="M-1,-1 L116,-1 L116,112.896003723 L-1,112.896003723 Z" clip-rule="evenodd">
			</path>
		</clipPath>
		<clipPath id="clip4">
			<path d="M-1,-1 L418,-1 L418,112.896003723 L-1,112.896003723 Z" clip-rule="evenodd">
			</path>
		</clipPath>
		<clipPath id="clip5">
			<path d="M-1,-1 L209.399993896,-1 L209.399993896,68.934997559 L-1,68.934997559 Z" clip-rule="evenodd">
			</path>
		</clipPath>
		<clipPath id="clip6">
			<path d="M-0.5,-1 L209.399993896,-1 L209.399993896,68.934997559 L-0.5,68.934997559 Z" clip-rule="evenodd">
			</path>
		</clipPath>
		<clipPath id="clip7">
			<path d="M-1,-1 L116,-1 L116,27.974000931 L-1,27.974000931 Z" clip-rule="evenodd">
			</path>
		</clipPath>
		<clipPath id="clip8">
			<path d="M-1,-1 L418,-1 L418,27.974000931 L-1,27.974000931 Z" clip-rule="evenodd">
			</path>
		</clipPath>
		<style type="text/css">
			svg{background:white}@font-face{font-family:'Century Gothic';font-weight:normal;font-style:normal;src:local('Century Gothic'),url('https://content.livecareer.com/zty/fonts/CenturyGothic.ttf') format('truetype')}@font-face{font-family:'Century Gothic';font-weight:bold;font-style:normal;src:local('Century Gothic Bold'),url('https://content.livecareer.com/zty/fonts/CenturyGothicBold.ttf') format('truetype')}@font-face{font-family:'Century Gothic';font-weight:bold;font-style:italic;src:local('Century Gothic Bold Italic'),url('https://content.livecareer.com/zty/fonts/CenturyGothicBoldItalic.ttf') format('truetype')}@font-face{font-family:'Century Gothic';font-weight:normal;font-style:italic;src:local('Century Gothic Italic'),url('https://content.livecareer.com/zty/fonts/CenturyGothicItalic.ttf') format('truetype')}
		</style>
	</defs>
	<g transform="scale(1.33333)">
		<g>
			<path d="M0,0 L600,0 L600,450 L0,450 Z" fill="#ffffff" fill-rule="evenodd">
			</path>
			<g transform="matrix(1,0,0,1,600,0)">
				<path d="M0,0 L600,0 L600,450 L0,450 Z" fill="#ffffff" fill-rule="evenodd">
				</path>
			</g>
			<g transform="matrix(1,0,0,1,0,450)">
				<path d="M0,0 L600,0 L600,450 L0,450 Z" fill="#ffffff" fill-rule="evenodd">
				</path>
			</g>
			<g transform="matrix(1,0,0,1,600,450)">
				<path d="M0,0 L600,0 L600,450 L0,450 Z" fill="#ffffff" fill-rule="evenodd">
				</path>
			</g>
			<g transform="matrix(1,0,0,1,40,24)">
				<text>
					<tspan x="0" y="46.210998535" font-family="Century Gothic" font-weight="bold" font-style="normal" font-size="36" fill="#990000">
						Lily
					</tspan>
					<tspan x="60.523002625" y="46.210998535" font-family="Century Gothic" font-weight="bold" font-style="normal" font-size="36" fill="#990000">
						French
					</tspan>
				</text>
				<path d="M-1.450000048,56.138999939 L533.450012207,56.138999939 " stroke-width="2" stroke-miterlimit="10" stroke="#ff0000" fill="none" fill-rule="evenodd">
				</path>
				<g transform="matrix(1,0,0,1,0,57.138999939)">
					<text>
						<tspan x="0" y="1.006000042" font-family="Century Gothic" font-weight="normal" font-style="normal" font-size="1" fill="#000000">
						</tspan>
					</text>
				</g>
				<g transform="matrix(1,0,0,1,0,58.365001678)">
					<text>
						<tspan x="0" y="10.059000015" font-family="Century Gothic" font-weight="normal" font-style="normal" font-size="10" fill="#000000">
							 Bradford, BD1 6YU | 07941 234 567 | lily.french@example.co.uk
						</tspan>
					</text>
				</g>
				<g transform="matrix(1,0,0,1,0,70.625999451)">
					<text>
						<tspan x="0" y="22.069999695" font-family="Century Gothic" font-weight="bold" font-style="normal" font-size="12" fill="#990000">
							SUMMARY
						</tspan>
					</text>
				</g>
				<g transform="matrix(1,0,0,1,0,97.338996887)">
					<text>
						<tspan x="0" y="11.06499958" font-family="Century Gothic" font-weight="normal" font-style="normal" font-size="11" fill="#000000">
							Highly organised and disciplined pharmacy leader with excellent communication and conflict
						</tspan>
						<tspan x="0" y="24.552000046" font-family="Century Gothic" font-weight="normal" font-style="normal" font-size="11" fill="#000000">
							resolution skills. Competent in managing supplies, reviewing service quality, and maintaining patient
						</tspan>
						<tspan x="0" y="38.039001465" font-family="Century Gothic" font-weight="normal" font-style="normal" font-size="11" fill="#000000">
							confidentiality and satisfaction. Skilled at ordering, storing, and preparing medications for customer
						</tspan>
						<tspan x="0" y="51.525997162" font-family="Century Gothic" font-weight="normal" font-style="normal" font-size="11" fill="#000000">
							use. Accomplished in increasing customer satisfaction while improving controls, team operations,
						</tspan>
						<tspan x="0" y="65.013000488" font-family="Century Gothic" font-weight="normal" font-style="normal" font-size="11" fill="#000000">
							and loss prevention strategies. Knowledgeable in preparing special compounds.
						</tspan>
					</text>
				</g>
				<g transform="matrix(1,0,0,1,0,164.774002075)">
					<text>
						<tspan x="0" y="22.069999695" font-family="Century Gothic" font-weight="bold" font-style="normal" font-size="12" fill="#990000">
							EXPERIENCE
						</tspan>
					</text>
				</g>
				<g transform="matrix(1,0,0,1,0,191.486999512)">
					<g transform="matrix(1,0,0,1,0,0)" clip-path="url(#clip1)">
						<text>
							<tspan x="0" y="11.06499958" font-family="Century Gothic" font-weight="bold" font-style="normal" font-size="11" fill="#000000">
								06/2017 to Current
							</tspan>
						</text>
					</g>
					<g transform="matrix(1,0,0,1,115,0)" clip-path="url(#clip2)">
						<text>
							<tspan x="0" y="11.06499958" font-family="Century Gothic" font-weight="bold" font-style="normal" font-size="11" fill="#000000">
								Pharmacist
							</tspan>
							<tspan x="58.958000183" y="11.06499958" font-family="Century Gothic" font-weight="normal" font-style="normal" font-size="11" fill="#000000">
							</tspan>
						</text>
						<g transform="matrix(1,0,0,1,0,13.487000465)">
							<text>
								<tspan x="0" y="11.06499958" font-family="Century Gothic" font-weight="bold" font-style="normal" font-size="11" fill="#000000">
									King Chemist
								</tspan>
								<tspan x="69.733001709" y="11.06499958" font-family="Century Gothic" font-weight="normal" font-style="normal" font-size="8" fill="#000000">
								</tspan>
								<tspan x="71.947998047" y="11.06499958" font-family="MS Mincho" font-weight="normal" font-style="normal" font-size="8" fill="#000000">
									－
								</tspan>
								<tspan x="79.947998047" y="11.06499958" font-family="Century Gothic" font-weight="normal" font-style="normal" font-size="8" fill="#000000">
								</tspan>
								<tspan x="82.163002014" y="11.06499958" font-family="Century Gothic" font-weight="normal" font-style="normal" font-size="11" fill="#000000">
									Birmingham
								</tspan>
							</text>
						</g>
						<g transform="matrix(1,0,0,1,18.950000763,26.974000931)">
							<text>
								<tspan x="-0.5" y="10.31499958" font-family="Times New Roman" font-weight="normal" font-style="normal" font-size="8.25" fill="#000000">
									●
								</tspan>
								<tspan x="13.050000191" y="11.06499958" font-family="Century Gothic" font-weight="normal" font-style="normal" font-size="11" fill="#000000">
									Checked more than 30 patient orders against histories each day,
								</tspan>
								<tspan x="13.050000191" y="24.552000046" font-family="Century Gothic" font-weight="normal" font-style="normal" font-size="11" fill="#000000">
									assessed insurance coverage and counted out medicines.
								</tspan>
							</text>
						</g>
						<g transform="matrix(1,0,0,1,18.950000763,53.948001862)">
							<text>
								<tspan x="-0.5" y="10.31499958" font-family="Times New Roman" font-weight="normal" font-style="normal" font-size="8.25" fill="#000000">
									●
								</tspan>
								<tspan x="13.050000191" y="11.06499958" font-family="Century Gothic" font-weight="normal" font-style="normal" font-size="11" fill="#000000">
									Provided patient counselling regarding OTC medications.
								</tspan>
							</text>
						</g>
						<g transform="matrix(1,0,0,1,18.950000763,67.434997559)">
							<text>
								<tspan x="-0.5" y="10.31499958" font-family="Times New Roman" font-weight="normal" font-style="normal" font-size="8.25" fill="#000000">
									●
								</tspan>
								<tspan x="13.050000191" y="11.06499958" font-family="Century Gothic" font-weight="normal" font-style="normal" font-size="11" fill="#000000">
									Managed weekly schedules and requests for leave.
								</tspan>
							</text>
						</g>
					</g>
				</g>
				<g transform="matrix(1,0,0,1,0,272.408996582)">
					<g transform="matrix(1,0,0,1,0,0)" clip-path="url(#clip3)">
						<g transform="matrix(1,0,0,1,0,4)">
							<text>
								<tspan x="0" y="11.06499958" font-family="Century Gothic" font-weight="bold" font-style="normal" font-size="11" fill="#000000">
									02/2013 to 05/2017
								</tspan>
							</text>
						</g>
					</g>
					<g transform="matrix(1,0,0,1,115,0)" clip-path="url(#clip4)">
						<g transform="matrix(1,0,0,1,0,4)">
							<text>
								<tspan x="0" y="11.06499958" font-family="Century Gothic" font-weight="bold" font-style="normal" font-size="11" fill="#000000">
									Pharmacist
								</tspan>
								<tspan x="58.958000183" y="11.06499958" font-family="Century Gothic" font-weight="normal" font-style="normal" font-size="11" fill="#000000">
								</tspan>
							</text>
						</g>
						<g transform="matrix(1,0,0,1,0,17.486999512)">
							<text>
								<tspan x="0" y="11.06499958" font-family="Century Gothic" font-weight="bold" font-style="normal" font-size="11" fill="#000000">
									L Pharma
								</tspan>
								<tspan x="49.060001373" y="11.06499958" font-family="Century Gothic" font-weight="normal" font-style="normal" font-size="8" fill="#000000">
								</tspan>
								<tspan x="51.275001526" y="11.06499958" font-family="MS Mincho" font-weight="normal" font-style="normal" font-size="8" fill="#000000">
									－
								</tspan>
								<tspan x="59.275001526" y="11.06499958" font-family="Century Gothic" font-weight="normal" font-style="normal" font-size="8" fill="#000000">
								</tspan>
								<tspan x="61.490001678" y="11.06499958" font-family="Century Gothic" font-weight="normal" font-style="normal" font-size="11" fill="#000000">
									Birmingham
								</tspan>
							</text>
						</g>
						<g transform="matrix(1,0,0,1,18.950000763,30.974000931)">
							<text>
								<tspan x="-0.5" y="10.31499958" font-family="Times New Roman" font-weight="normal" font-style="normal" font-size="8.25" fill="#000000">
									●
								</tspan>
								<tspan x="13.050000191" y="11.06499958" font-family="Century Gothic" font-weight="normal" font-style="normal" font-size="11" fill="#000000">
									Used pharmacy software Meditab to verify prescription and insurance
								</tspan>
								<tspan x="13.050000191" y="24.552000046" font-family="Century Gothic" font-weight="normal" font-style="normal" font-size="11" fill="#000000">
									information.
								</tspan>
							</text>
						</g>
						<g transform="matrix(1,0,0,1,18.950000763,57.948001862)">
							<text>
								<tspan x="-0.5" y="10.31499958" font-family="Times New Roman" font-weight="normal" font-style="normal" font-size="8.25" fill="#000000">
									●
								</tspan>
								<tspan x="13.050000191" y="11.06499958" font-family="Century Gothic" font-weight="normal" font-style="normal" font-size="11" fill="#000000">
									Compounded and prepared medications according to prescription
								</tspan>
								<tspan x="13.050000191" y="24.552000046" font-family="Century Gothic" font-weight="normal" font-style="normal" font-size="11" fill="#000000">
									orders for more than 160 prescriptions every week.
								</tspan>
							</text>
						</g>
						<g transform="matrix(1,0,0,1,18.950000763,84.92199707)">
							<text>
								<tspan x="-0.5" y="10.31499958" font-family="Times New Roman" font-weight="normal" font-style="normal" font-size="8.25" fill="#000000">
									●
								</tspan>
								<tspan x="13.050000191" y="11.06499958" font-family="Century Gothic" font-weight="normal" font-style="normal" font-size="11" fill="#000000">
									Solicited medical history information from patients to provide best and
								</tspan>
								<tspan x="13.050000191" y="24.552000046" font-family="Century Gothic" font-weight="normal" font-style="normal" font-size="11" fill="#000000">
									most effective medical advice.
								</tspan>
							</text>
						</g>
					</g>
				</g>
				<g transform="matrix(1,0,0,1,0,384.304992676)">
					<text>
						<tspan x="0" y="22.069999695" font-family="Century Gothic" font-weight="bold" font-style="normal" font-size="12" fill="#990000">
							SKILLS
						</tspan>
					</text>
				</g>
				<g transform="matrix(1,0,0,1,115,411.018005371)">
					<g transform="matrix(1,0,0,1,0,0)" clip-path="url(#clip5)">
						<g transform="matrix(1,0,0,1,19.200000763,0.25)">
							<text>
								<tspan x="-0.5" y="10.31499958" font-family="Times New Roman" font-weight="normal" font-style="normal" font-size="8.25" fill="#000000">
									●
								</tspan>
								<tspan x="13.050000191" y="11.06499958" font-family="Century Gothic" font-weight="normal" font-style="normal" font-size="11" fill="#000000">
									Interpreting orders
								</tspan>
							</text>
						</g>
						<g transform="matrix(1,0,0,1,19.200000763,13.737000465)">
							<text>
								<tspan x="-0.5" y="10.31499958" font-family="Times New Roman" font-weight="normal" font-style="normal" font-size="8.25" fill="#000000">
									●
								</tspan>
								<tspan x="13.050000191" y="11.06499958" font-family="Century Gothic" font-weight="normal" font-style="normal" font-size="11" fill="#000000">
									Dosing recommendations
								</tspan>
							</text>
						</g>
						<g transform="matrix(1,0,0,1,19.200000763,27.224000931)">
							<text>
								<tspan x="-0.5" y="10.31499958" font-family="Times New Roman" font-weight="normal" font-style="normal" font-size="8.25" fill="#000000">
									●
								</tspan>
								<tspan x="13.050000191" y="11.06499958" font-family="Century Gothic" font-weight="normal" font-style="normal" font-size="11" fill="#000000">
									Compounding abilities
								</tspan>
							</text>
						</g>
						<g transform="matrix(1,0,0,1,19.200000763,40.710998535)">
							<text>
								<tspan x="-0.5" y="10.31499958" font-family="Times New Roman" font-weight="normal" font-style="normal" font-size="8.25" fill="#000000">
									●
								</tspan>
								<tspan x="13.050000191" y="11.06499958" font-family="Century Gothic" font-weight="normal" font-style="normal" font-size="11" fill="#000000">
									Employee training
								</tspan>
							</text>
						</g>
						<g transform="matrix(1,0,0,1,19.200000763,54.198001862)">
							<text>
								<tspan x="-0.5" y="10.31499958" font-family="Times New Roman" font-weight="normal" font-style="normal" font-size="8.25" fill="#000000">
									●
								</tspan>
								<tspan x="13.050000191" y="11.06499958" font-family="Century Gothic" font-weight="normal" font-style="normal" font-size="11" fill="#000000">
									Dispensing medicines
								</tspan>
							</text>
						</g>
					</g>
					<g transform="matrix(1,0,0,1,208.399993896,0)" clip-path="url(#clip6)">
						<g transform="matrix(1,0,0,1,19.450000763,0.25)">
							<text>
								<tspan x="-0.5" y="10.31499958" font-family="Times New Roman" font-weight="normal" font-style="normal" font-size="8.25" fill="#000000">
									●
								</tspan>
								<tspan x="13.050000191" y="11.06499958" font-family="Century Gothic" font-weight="normal" font-style="normal" font-size="11" fill="#000000">
									Customer relations
								</tspan>
							</text>
						</g>
						<g transform="matrix(1,0,0,1,19.450000763,13.737000465)">
							<text>
								<tspan x="-0.5" y="10.31499958" font-family="Times New Roman" font-weight="normal" font-style="normal" font-size="8.25" fill="#000000">
									●
								</tspan>
								<tspan x="13.050000191" y="11.06499958" font-family="Century Gothic" font-weight="normal" font-style="normal" font-size="11" fill="#000000">
									Resolving complaints
								</tspan>
							</text>
						</g>
						<g transform="matrix(1,0,0,1,19.450000763,27.224000931)">
							<text>
								<tspan x="-0.5" y="10.31499958" font-family="Times New Roman" font-weight="normal" font-style="normal" font-size="8.25" fill="#000000">
									●
								</tspan>
								<tspan x="13.050000191" y="11.06499958" font-family="Century Gothic" font-weight="normal" font-style="normal" font-size="11" fill="#000000">
									Sales skills
								</tspan>
							</text>
						</g>
						<g transform="matrix(1,0,0,1,19.450000763,40.710998535)">
							<text>
								<tspan x="-0.5" y="10.31499958" font-family="Times New Roman" font-weight="normal" font-style="normal" font-size="8.25" fill="#000000">
									●
								</tspan>
								<tspan x="13.050000191" y="11.06499958" font-family="Century Gothic" font-weight="normal" font-style="normal" font-size="11" fill="#000000">
									Patient education
								</tspan>
							</text>
						</g>
					</g>
					<path d="M208.399993896,0 L208.399993896,67.934997559 " stroke-width="1" stroke-miterlimit="10" stroke="#fefdfd" fill="none" fill-rule="evenodd">
					</path>
				</g>
				<g transform="matrix(1,0,0,1,0,478.95300293)">
					<text>
						<tspan x="0" y="22.069999695" font-family="Century Gothic" font-weight="bold" font-style="normal" font-size="12" fill="#990000">
							EDUCATION
						</tspan>
					</text>
				</g>
				<g transform="matrix(1,0,0,1,0,505.665985107)">
					<g transform="matrix(1,0,0,1,0,0)" clip-path="url(#clip7)">
						<text>
							<tspan x="0" y="11.06499958" font-family="Century Gothic" font-weight="bold" font-style="normal" font-size="11" fill="#000000">
								2010
							</tspan>
						</text>
					</g>
					<g transform="matrix(1,0,0,1,115,0)" clip-path="url(#clip8)">
						<text>
							<tspan x="0" y="11.06499958" font-family="Century Gothic" font-weight="bold" font-style="normal" font-size="11" fill="#000000">
								Masters degree in pharmacy
							</tspan>
							<tspan x="154.00100708" y="11.06499958" font-family="Century Gothic" font-weight="normal" font-style="normal" font-size="11" fill="#000000">
							</tspan>
						</text>
						<g transform="matrix(1,0,0,1,0,13.487000465)">
							<text>
								<tspan x="0" y="11.06499958" font-family="Century Gothic" font-weight="bold" font-style="normal" font-size="11" fill="#000000">
									Birmingham University
								</tspan>
								<tspan x="116.810997009" y="11.06499958" font-family="Century Gothic" font-weight="normal" font-style="normal" font-size="11" fill="#000000">
								</tspan>
								<tspan x="119.856002808" y="11.06499958" font-family="MS Mincho" font-weight="normal" font-style="normal" font-size="8" fill="#000000">
									－
								</tspan>
								<tspan x="127.856002808" y="11.06499958" font-family="Century Gothic" font-weight="normal" font-style="normal" font-size="8" fill="#000000">
								</tspan>
								<tspan x="130.070999146" y="11.06499958" font-family="Century Gothic" font-weight="normal" font-style="normal" font-size="11" fill="#000000">
									Birmingham
								</tspan>
							</text>
						</g>
					</g>
				</g>
				<g transform="matrix(1,0,0,1,0,532.640014648)">
					<text>
						<tspan x="0" y="22.069999695" font-family="Century Gothic" font-weight="bold" font-style="normal" font-size="12" fill="#990000">
							ADDITIONAL INFORMATION
						</tspan>
					</text>
				</g>
				<g transform="matrix(1,0,0,1,115,559.353027344)">
					<text>
						<tspan x="0" y="11.06499958" font-family="Century Gothic" font-weight="normal" font-style="normal" font-size="11" fill="#000000">
							Registered at General Pharmaceutical Council.
						</tspan>
					</text>
				</g>
			</g>
		</g>
	</g>
</svg>
