<?xml version="1.0" encoding="utf-8" standalone="yes"?>
<svg xmlns="http://www.w3.org/2000/svg" xmlns:xlink="http://www.w3.org/1999/xlink" version="1.1" width="816" height="1056">
	<!-- Generated by Aspose.Words for .NET 18.5 -->
	<defs>
		<clipPath id="clip1">
			<path d="M-1,-1 L101,-1 L101,100.134002686 L-1,100.134002686 Z" clip-rule="evenodd">
			</path>
		</clipPath>
		<clipPath id="clip2">
			<path d="M-1,-1 L433,-1 L433,100.134002686 L-1,100.134002686 Z" clip-rule="evenodd">
			</path>
		</clipPath>
		<clipPath id="clip3">
			<path d="M-1,-1 L101,-1 L101,134.511993408 L-1,134.511993408 Z" clip-rule="evenodd">
			</path>
		</clipPath>
		<clipPath id="clip4">
			<path d="M-1,-1 L433,-1 L433,134.511993408 L-1,134.511993408 Z" clip-rule="evenodd">
			</path>
		</clipPath>
		<clipPath id="clip5">
			<path d="M-1,-1 L216.899993896,-1 L216.899993896,82.444999695 L-1,82.444999695 Z" clip-rule="evenodd">
			</path>
		</clipPath>
		<clipPath id="clip6">
			<path d="M-0.5,-1 L216.899993896,-1 L216.899993896,82.444999695 L-0.5,82.444999695 Z" clip-rule="evenodd">
			</path>
		</clipPath>
		<clipPath id="clip7">
			<path d="M-1,-1 L101,-1 L101,35.377998352 L-1,35.377998352 Z" clip-rule="evenodd">
			</path>
		</clipPath>
		<clipPath id="clip8">
			<path d="M-1,-1 L433,-1 L433,35.377998352 L-1,35.377998352 Z" clip-rule="evenodd">
			</path>
		</clipPath>
		<style type="text/css">
			svg{background:white}@font-face{font-family:'Palatino Linotype';font-weight:normal;font-style:normal;src:local('Palatino Linotype'),url('https://lccontentprod.blob.core.windows.net/fonts/pala.ttf') format('truetype')}@font-face{font-family:'Palatino Linotype';font-weight:bold;font-style:normal;src:local('Palatino Linotype Bold'),url('https://lccontentprod.blob.core.windows.net/fonts/palab.ttf') format('truetype')}@font-face{font-family:'Palatino Linotype';font-weight:bold;font-style:italic;src:local('Palatino Linotype Bold Italic'),url('https://lccontentprod.blob.core.windows.net/fonts/palabi.ttf') format('truetype')}@font-face{font-family:'Palatino Linotype';font-weight:normal;font-style:italic;src:local('Palatino Linotype Italic'),url('https://lccontentprod.blob.core.windows.net/fonts/palai.ttf') format('truetype')}
		</style>
	</defs>
	<g transform="scale(1.33333)">
		<g>
			<path d="M0,0 L600,0 L600,450 L0,450 Z" fill="#ffffff" fill-rule="evenodd">
			</path>
			<g transform="matrix(1,0,0,1,600,0)">
				<path d="M0,0 L600,0 L600,450 L0,450 Z" fill="#ffffff" fill-rule="evenodd">
				</path>
			</g>
			<g transform="matrix(1,0,0,1,0,450)">
				<path d="M0,0 L600,0 L600,450 L0,450 Z" fill="#ffffff" fill-rule="evenodd">
				</path>
			</g>
			<g transform="matrix(1,0,0,1,600,450)">
				<path d="M0,0 L600,0 L600,450 L0,450 Z" fill="#ffffff" fill-rule="evenodd">
				</path>
			</g>
			<g transform="matrix(1,0,0,1,40,30)">
				<text>
					<tspan x="0" y="25.847000122" font-family="Palatino Linotype" font-weight="normal" font-style="normal" font-size="12" fill="#000000">
					</tspan>
					<tspan x="220.050003052" y="25.847000122" font-family="Palatino Linotype" font-weight="bold" font-style="normal" font-size="17" fill="#000000">
						Lily French
					</tspan>
					<tspan x="532" y="25.847000122" font-family="Palatino Linotype" font-weight="bold" font-style="normal" font-size="17" fill="#000000">
					</tspan>
				</text>
				<path d="M3,21.246999741 L196.050003052,21.246999741 " stroke-width="1" stroke-miterlimit="10" stroke="#000000" fill="none" fill-rule="evenodd">
				</path>
				<path d="M339.097991943,21.246999741 L532,21.246999741 " stroke-width="1" stroke-miterlimit="10" stroke="#000000" fill="none" fill-rule="evenodd">
				</path>
				<g transform="matrix(1,0,0,1,0,30.934999466)">
					<text>
						<tspan x="209.397003174" y="16.597000122" font-family="Palatino Linotype" font-weight="bold" font-style="normal" font-size="12" fill="#000000">
							 Bradford, BD1 6YU
						</tspan>
					</text>
				</g>
				<g transform="matrix(1,0,0,1,0,51.124000549)">
					<text>
						<tspan x="150.369995117" y="12.597000122" font-family="Palatino Linotype" font-weight="bold" font-style="normal" font-size="12" fill="#000000">
							07941 234 567 (E) lily.french@example.co.uk
						</tspan>
					</text>
				</g>
				<g transform="matrix(1,0,0,1,0,67.31300354)">
					<text>
						<tspan x="0" y="21.648000717" font-family="Palatino Linotype" font-weight="bold" font-style="normal" font-size="13" fill="#000000">
							Summary
						</tspan>
					</text>
					<path d="M67.539001465,18.048000336 L532,18.048000336 " stroke-width="1" stroke-miterlimit="10" stroke="#000000" fill="none" fill-rule="evenodd">
					</path>
				</g>
				<g transform="matrix(1,0,0,1,100,94.851997375)">
					<text>
						<tspan x="0" y="12.597000122" font-family="Palatino Linotype" font-weight="normal" font-style="normal" font-size="12" fill="#000000">
							Highly organised and disciplined pharmacy leader with excellent
						</tspan>
						<tspan x="0" y="28.785999298" font-family="Palatino Linotype" font-weight="normal" font-style="normal" font-size="12" fill="#000000">
							communication and conflict resolution skills. Competent in managing supplies,
						</tspan>
						<tspan x="0" y="44.974998474" font-family="Palatino Linotype" font-weight="normal" font-style="normal" font-size="12" fill="#000000">
							reviewing service quality, and maintaining patient confidentiality and
						</tspan>
						<tspan x="0" y="61.164001465" font-family="Palatino Linotype" font-weight="normal" font-style="normal" font-size="12" fill="#000000">
							satisfaction. Skilled at ordering, storing, and preparing medications for customer
						</tspan>
						<tspan x="0" y="77.352996826" font-family="Palatino Linotype" font-weight="normal" font-style="normal" font-size="12" fill="#000000">
							use. Accomplished in increasing customer satisfaction while improving controls,
						</tspan>
						<tspan x="0" y="93.541999817" font-family="Palatino Linotype" font-weight="normal" font-style="normal" font-size="12" fill="#000000">
							team operations, and loss prevention strategies. Knowledgeable in preparing
						</tspan>
						<tspan x="0" y="109.731002808" font-family="Palatino Linotype" font-weight="normal" font-style="normal" font-size="12" fill="#000000">
							special compounds.
						</tspan>
					</text>
				</g>
				<g transform="matrix(1,0,0,1,0,208.175003052)">
					<text>
						<tspan x="0" y="21.648000717" font-family="Palatino Linotype" font-weight="bold" font-style="normal" font-size="13" fill="#000000">
							Experience
						</tspan>
					</text>
					<path d="M74.666999817,18.048000336 L532,18.048000336 " stroke-width="1" stroke-miterlimit="10" stroke="#000000" fill="none" fill-rule="evenodd">
					</path>
				</g>
				<g transform="matrix(1,0,0,1,0,233.714004517)">
					<g transform="matrix(1,0,0,1,0,0)" clip-path="url(#clip1)">
						<g transform="matrix(1,0,0,1,0,2)">
							<text>
								<tspan x="0" y="11.708000183" font-family="Palatino Linotype" font-weight="normal" font-style="normal" font-size="11" fill="#000000">
									06/2017 - Current
								</tspan>
							</text>
						</g>
					</g>
					<g transform="matrix(1,0,0,1,100,0)" clip-path="url(#clip2)">
						<g transform="matrix(1,0,0,1,0,2)">
							<text>
								<tspan x="0" y="12.597000122" font-family="Palatino Linotype" font-weight="bold" font-style="normal" font-size="12" fill="#000000">
									King Chemist
								</tspan>
								<tspan x="76.212997437" y="12.597000122" font-family="Palatino Linotype" font-weight="normal" font-style="normal" font-size="9" fill="#000000">
								</tspan>
								<tspan x="78.462997437" y="12.597000122" font-family="MS Mincho" font-weight="normal" font-style="normal" font-size="9" fill="#000000">
									－
								</tspan>
								<tspan x="87.462997437" y="12.597000122" font-family="Palatino Linotype" font-weight="normal" font-style="normal" font-size="9" fill="#000000">
								</tspan>
								<tspan x="89.712997437" y="12.597000122" font-family="Palatino Linotype" font-weight="normal" font-style="normal" font-size="12" fill="#000000">
									Birmingham
								</tspan>
							</text>
						</g>
						<g transform="matrix(1,0,0,1,0,18.188999176)">
							<text>
								<tspan x="0" y="12.597000122" font-family="Palatino Linotype" font-weight="bold" font-style="normal" font-size="12" fill="#000000">
									Pharmacist
								</tspan>
							</text>
						</g>
						<g transform="matrix(1,0,0,1,18.5,34.377998352)">
							<text>
								<tspan x="-0.5" y="11.847000122" font-family="Times New Roman" font-weight="normal" font-style="normal" font-size="9" fill="#000000">
									●
								</tspan>
								<tspan x="13.5" y="12.597000122" font-family="Palatino Linotype" font-weight="normal" font-style="normal" font-size="12" fill="#000000">
									Checked more than 30 patient orders against histories each day, assessed
								</tspan>
								<tspan x="13.5" y="28.785999298" font-family="Palatino Linotype" font-weight="normal" font-style="normal" font-size="12" fill="#000000">
									insurance coverage and counted out medicines.
								</tspan>
							</text>
						</g>
						<g transform="matrix(1,0,0,1,18.5,66.755996704)">
							<text>
								<tspan x="-0.5" y="11.847000122" font-family="Times New Roman" font-weight="normal" font-style="normal" font-size="9" fill="#000000">
									●
								</tspan>
								<tspan x="13.5" y="12.597000122" font-family="Palatino Linotype" font-weight="normal" font-style="normal" font-size="12" fill="#000000">
									Provided patient counselling regarding OTC medications.
								</tspan>
							</text>
						</g>
						<g transform="matrix(1,0,0,1,18.5,82.944999695)">
							<text>
								<tspan x="-0.5" y="11.847000122" font-family="Times New Roman" font-weight="normal" font-style="normal" font-size="9" fill="#000000">
									●
								</tspan>
								<tspan x="13.5" y="12.597000122" font-family="Palatino Linotype" font-weight="normal" font-style="normal" font-size="12" fill="#000000">
									Managed weekly schedules and requests for leave.
								</tspan>
							</text>
						</g>
					</g>
				</g>
				<g transform="matrix(1,0,0,1,0,332.847991943)">
					<g transform="matrix(1,0,0,1,0,0)" clip-path="url(#clip3)">
						<g transform="matrix(1,0,0,1,0,4)">
							<text>
								<tspan x="0" y="11.708000183" font-family="Palatino Linotype" font-weight="normal" font-style="normal" font-size="11" fill="#000000">
									02/2013 - 05/2017
								</tspan>
							</text>
						</g>
					</g>
					<g transform="matrix(1,0,0,1,100,0)" clip-path="url(#clip4)">
						<g transform="matrix(1,0,0,1,0,4)">
							<text>
								<tspan x="0" y="12.597000122" font-family="Palatino Linotype" font-weight="bold" font-style="normal" font-size="12" fill="#000000">
									L Pharma
								</tspan>
								<tspan x="52.26499939" y="12.597000122" font-family="Palatino Linotype" font-weight="normal" font-style="normal" font-size="9" fill="#000000">
								</tspan>
								<tspan x="54.51499939" y="12.597000122" font-family="MS Mincho" font-weight="normal" font-style="normal" font-size="9" fill="#000000">
									－
								</tspan>
								<tspan x="63.51499939" y="12.597000122" font-family="Palatino Linotype" font-weight="normal" font-style="normal" font-size="9" fill="#000000">
								</tspan>
								<tspan x="65.76499939" y="12.597000122" font-family="Palatino Linotype" font-weight="normal" font-style="normal" font-size="12" fill="#000000">
									Birmingham
								</tspan>
							</text>
						</g>
						<g transform="matrix(1,0,0,1,0,20.188999176)">
							<text>
								<tspan x="0" y="12.597000122" font-family="Palatino Linotype" font-weight="bold" font-style="normal" font-size="12" fill="#000000">
									Pharmacist
								</tspan>
							</text>
						</g>
						<g transform="matrix(1,0,0,1,18.5,36.377998352)">
							<text>
								<tspan x="-0.5" y="11.847000122" font-family="Times New Roman" font-weight="normal" font-style="normal" font-size="9" fill="#000000">
									●
								</tspan>
								<tspan x="13.5" y="12.597000122" font-family="Palatino Linotype" font-weight="normal" font-style="normal" font-size="12" fill="#000000">
									Used pharmacy software Meditab to verify prescription and insurance
								</tspan>
								<tspan x="13.5" y="28.785999298" font-family="Palatino Linotype" font-weight="normal" font-style="normal" font-size="12" fill="#000000">
									information.
								</tspan>
							</text>
						</g>
						<g transform="matrix(1,0,0,1,18.5,68.755996704)">
							<text>
								<tspan x="-0.5" y="11.847000122" font-family="Times New Roman" font-weight="normal" font-style="normal" font-size="9" fill="#000000">
									●
								</tspan>
								<tspan x="13.5" y="12.597000122" font-family="Palatino Linotype" font-weight="normal" font-style="normal" font-size="12" fill="#000000">
									Compounded and prepared medications according to prescription orders
								</tspan>
								<tspan x="13.5" y="28.785999298" font-family="Palatino Linotype" font-weight="normal" font-style="normal" font-size="12" fill="#000000">
									for more than 160 prescriptions every week.
								</tspan>
							</text>
						</g>
						<g transform="matrix(1,0,0,1,18.5,101.134002686)">
							<text>
								<tspan x="-0.5" y="11.847000122" font-family="Times New Roman" font-weight="normal" font-style="normal" font-size="9" fill="#000000">
									●
								</tspan>
								<tspan x="13.5" y="12.597000122" font-family="Palatino Linotype" font-weight="normal" font-style="normal" font-size="12" fill="#000000">
									Solicited medical history information from patients to provide best and
								</tspan>
								<tspan x="13.5" y="28.785999298" font-family="Palatino Linotype" font-weight="normal" font-style="normal" font-size="12" fill="#000000">
									most effective medical advice.
								</tspan>
							</text>
						</g>
					</g>
				</g>
				<g transform="matrix(1,0,0,1,0,466.359985352)">
					<text>
						<tspan x="0" y="21.648000717" font-family="Palatino Linotype" font-weight="bold" font-style="normal" font-size="13" fill="#000000">
							Skills
						</tspan>
					</text>
					<path d="M44.388999939,18.048000336 L532,18.048000336 " stroke-width="1" stroke-miterlimit="10" stroke="#000000" fill="none" fill-rule="evenodd">
					</path>
				</g>
				<g transform="matrix(1,0,0,1,100,493.898986816)">
					<g transform="matrix(1,0,0,1,0,0)" clip-path="url(#clip5)">
						<g transform="matrix(1,0,0,1,18.75,0.25)">
							<text>
								<tspan x="-0.5" y="11.847000122" font-family="Times New Roman" font-weight="normal" font-style="normal" font-size="9" fill="#000000">
									●
								</tspan>
								<tspan x="13.5" y="12.597000122" font-family="Palatino Linotype" font-weight="normal" font-style="normal" font-size="12" fill="#000000">
									Interpreting orders
								</tspan>
							</text>
						</g>
						<g transform="matrix(1,0,0,1,18.75,16.438999176)">
							<text>
								<tspan x="-0.5" y="11.847000122" font-family="Times New Roman" font-weight="normal" font-style="normal" font-size="9" fill="#000000">
									●
								</tspan>
								<tspan x="13.5" y="12.597000122" font-family="Palatino Linotype" font-weight="normal" font-style="normal" font-size="12" fill="#000000">
									Dosing recommendations
								</tspan>
							</text>
						</g>
						<g transform="matrix(1,0,0,1,18.75,32.627998352)">
							<text>
								<tspan x="-0.5" y="11.847000122" font-family="Times New Roman" font-weight="normal" font-style="normal" font-size="9" fill="#000000">
									●
								</tspan>
								<tspan x="13.5" y="12.597000122" font-family="Palatino Linotype" font-weight="normal" font-style="normal" font-size="12" fill="#000000">
									Compounding abilities
								</tspan>
							</text>
						</g>
						<g transform="matrix(1,0,0,1,18.75,48.817001343)">
							<text>
								<tspan x="-0.5" y="11.847000122" font-family="Times New Roman" font-weight="normal" font-style="normal" font-size="9" fill="#000000">
									●
								</tspan>
								<tspan x="13.5" y="12.597000122" font-family="Palatino Linotype" font-weight="normal" font-style="normal" font-size="12" fill="#000000">
									Employee training
								</tspan>
							</text>
						</g>
						<g transform="matrix(1,0,0,1,18.75,65.005996704)">
							<text>
								<tspan x="-0.5" y="11.847000122" font-family="Times New Roman" font-weight="normal" font-style="normal" font-size="9" fill="#000000">
									●
								</tspan>
								<tspan x="13.5" y="12.597000122" font-family="Palatino Linotype" font-weight="normal" font-style="normal" font-size="12" fill="#000000">
									Dispensing medicines
								</tspan>
							</text>
						</g>
					</g>
					<g transform="matrix(1,0,0,1,215.899993896,0)" clip-path="url(#clip6)">
						<g transform="matrix(1,0,0,1,19,0.25)">
							<text>
								<tspan x="-0.5" y="11.847000122" font-family="Times New Roman" font-weight="normal" font-style="normal" font-size="9" fill="#000000">
									●
								</tspan>
								<tspan x="13.5" y="12.597000122" font-family="Palatino Linotype" font-weight="normal" font-style="normal" font-size="12" fill="#000000">
									Customer relations
								</tspan>
							</text>
						</g>
						<g transform="matrix(1,0,0,1,19,16.438999176)">
							<text>
								<tspan x="-0.5" y="11.847000122" font-family="Times New Roman" font-weight="normal" font-style="normal" font-size="9" fill="#000000">
									●
								</tspan>
								<tspan x="13.5" y="12.597000122" font-family="Palatino Linotype" font-weight="normal" font-style="normal" font-size="12" fill="#000000">
									Resolving complaints
								</tspan>
							</text>
						</g>
						<g transform="matrix(1,0,0,1,19,32.627998352)">
							<text>
								<tspan x="-0.5" y="11.847000122" font-family="Times New Roman" font-weight="normal" font-style="normal" font-size="9" fill="#000000">
									●
								</tspan>
								<tspan x="13.5" y="12.597000122" font-family="Palatino Linotype" font-weight="normal" font-style="normal" font-size="12" fill="#000000">
									Sales skills
								</tspan>
							</text>
						</g>
						<g transform="matrix(1,0,0,1,19,48.817001343)">
							<text>
								<tspan x="-0.5" y="11.847000122" font-family="Times New Roman" font-weight="normal" font-style="normal" font-size="9" fill="#000000">
									●
								</tspan>
								<tspan x="13.5" y="12.597000122" font-family="Palatino Linotype" font-weight="normal" font-style="normal" font-size="12" fill="#000000">
									Patient education
								</tspan>
							</text>
						</g>
					</g>
					<path d="M215.899993896,0 L215.899993896,81.444999695 " stroke-width="1" stroke-miterlimit="10" stroke="#fefdfd" fill="none" fill-rule="evenodd">
					</path>
				</g>
				<g transform="matrix(1,0,0,1,0,575.343994141)">
					<text>
						<tspan x="0" y="21.648000717" font-family="Palatino Linotype" font-weight="bold" font-style="normal" font-size="13" fill="#000000">
							Education
						</tspan>
					</text>
					<path d="M69.608001709,18.048000336 L532,18.048000336 " stroke-width="1" stroke-miterlimit="10" stroke="#000000" fill="none" fill-rule="evenodd">
					</path>
				</g>
				<g transform="matrix(1,0,0,1,0,602.882995605)">
					<g transform="matrix(1,0,0,1,0,0)" clip-path="url(#clip7)">
						<g transform="matrix(1,0,0,1,0,2)">
							<text>
								<tspan x="0" y="11.708000183" font-family="Palatino Linotype" font-weight="normal" font-style="normal" font-size="11" fill="#000000">
									2010
								</tspan>
							</text>
						</g>
					</g>
					<g transform="matrix(1,0,0,1,100,0)" clip-path="url(#clip8)">
						<g transform="matrix(1,0,0,1,0,2)">
							<text>
								<tspan x="0" y="12.597000122" font-family="Palatino Linotype" font-weight="bold" font-style="normal" font-size="12" fill="#000000">
									Birmingham University
								</tspan>
								<tspan x="130.248001099" y="12.597000122" font-family="Palatino Linotype" font-weight="normal" font-style="normal" font-size="12" fill="#000000">
								</tspan>
								<tspan x="133.248001099" y="12.597000122" font-family="MS Mincho" font-weight="normal" font-style="normal" font-size="9" fill="#000000">
									－
								</tspan>
								<tspan x="142.248001099" y="12.597000122" font-family="Palatino Linotype" font-weight="normal" font-style="normal" font-size="9" fill="#000000">
								</tspan>
								<tspan x="144.498001099" y="12.597000122" font-family="Palatino Linotype" font-weight="normal" font-style="normal" font-size="12" fill="#000000">
									Birmingham
								</tspan>
							</text>
						</g>
						<g transform="matrix(1,0,0,1,0,18.188999176)">
							<text>
								<tspan x="0" y="12.597000122" font-family="Palatino Linotype" font-weight="normal" font-style="normal" font-size="12" fill="#000000">
									Masters degree in pharmacy
								</tspan>
							</text>
						</g>
					</g>
				</g>
				<g transform="matrix(1,0,0,1,0,637.260986328)">
					<text>
						<tspan x="0" y="21.648000717" font-family="Palatino Linotype" font-weight="bold" font-style="normal" font-size="13" fill="#000000">
							Additional Information
						</tspan>
					</text>
					<path d="M150.216995239,18.048000336 L532,18.048000336 " stroke-width="1" stroke-miterlimit="10" stroke="#000000" fill="none" fill-rule="evenodd">
					</path>
				</g>
				<g transform="matrix(1,0,0,1,100,664.799987793)">
					<text>
						<tspan x="0" y="12.597000122" font-family="Palatino Linotype" font-weight="normal" font-style="normal" font-size="12" fill="#000000">
							Registered at General Pharmaceutical Council.
						</tspan>
					</text>
				</g>
			</g>
		</g>
	</g>
</svg>
