<?xml version="1.0" encoding="utf-8" standalone="yes"?>
<svg xmlns="http://www.w3.org/2000/svg" xmlns:xlink="http://www.w3.org/1999/xlink" version="1.1" width="816" height="1056">
	<!-- Generated by Aspose.Words for .NET 18.5 -->
	<defs>
		<clipPath id="clip1">
			<path d="M-1,-1 L101,-1 L101,93.169998169 L-1,93.169998169 Z" clip-rule="evenodd">
			</path>
		</clipPath>
		<clipPath id="clip2">
			<path d="M-1,-1 L449,-1 L449,93.169998169 L-1,93.169998169 Z" clip-rule="evenodd">
			</path>
		</clipPath>
		<clipPath id="clip3">
			<path d="M-1,-1 L101,-1 L101,111.169998169 L-1,111.169998169 Z" clip-rule="evenodd">
			</path>
		</clipPath>
		<clipPath id="clip4">
			<path d="M-1,-1 L449,-1 L449,111.169998169 L-1,111.169998169 Z" clip-rule="evenodd">
			</path>
		</clipPath>
		<clipPath id="clip5">
			<path d="M-1,-1 L224.899993896,-1 L224.899993896,68.449996948 L-1,68.449996948 Z" clip-rule="evenodd">
			</path>
		</clipPath>
		<clipPath id="clip6">
			<path d="M-0.5,-1 L224.899993896,-1 L224.899993896,68.449996948 L-0.5,68.449996948 Z" clip-rule="evenodd">
			</path>
		</clipPath>
		<clipPath id="clip7">
			<path d="M-1,-1 L101,-1 L101,53 L-1,53 Z" clip-rule="evenodd">
			</path>
		</clipPath>
		<clipPath id="clip8">
			<path d="M-1,-1 L449,-1 L449,53 L-1,53 Z" clip-rule="evenodd">
			</path>
		</clipPath>
		<style type="text/css">
			svg{background:white}
		</style>
	</defs>
	<g transform="scale(1.33333)">
		<g>
			<path d="M0,0 L600,0 L600,450 L0,450 Z" fill="#ffffff" fill-rule="evenodd">
			</path>
			<g transform="matrix(1,0,0,1,600,0)">
				<path d="M0,0 L600,0 L600,450 L0,450 Z" fill="#ffffff" fill-rule="evenodd">
				</path>
			</g>
			<g transform="matrix(1,0,0,1,0,450)">
				<path d="M0,0 L600,0 L600,450 L0,450 Z" fill="#ffffff" fill-rule="evenodd">
				</path>
			</g>
			<g transform="matrix(1,0,0,1,600,450)">
				<path d="M0,0 L600,0 L600,450 L0,450 Z" fill="#ffffff" fill-rule="evenodd">
				</path>
			</g>
			<g transform="matrix(1,0,0,1,32,30)">
				<path d="M-1.450000048,13 L549.450012207,13 L549.450012207,34.249000549 L-1.450000048,34.249000549 Z" fill="#cccccc" fill-rule="evenodd">
				</path>
				<text>
					<tspan x="242.740997314" y="29.069999695" font-family="Arial" font-weight="bold" font-style="normal" font-size="15" fill="#000000">
						Lily French
					</tspan>
				</text>
				<path d="M-1.450000048,12.5 L549.450012207,12.5 " stroke-width="1" stroke-miterlimit="10" stroke="#000000" fill="none" fill-rule="evenodd">
				</path>
				<path d="M-1.450000048,34.749000549 L549.450012207,34.749000549 " stroke-width="1" stroke-miterlimit="10" stroke="#000000" fill="none" fill-rule="evenodd">
				</path>
				<g transform="matrix(1,0,0,1,0,35.249000549)">
					<text>
						<tspan x="0" y="0.938000023" font-family="Arial" font-weight="normal" font-style="normal" font-size="1" fill="#000000">
						</tspan>
					</text>
				</g>
				<g transform="matrix(1,0,0,1,0,36.39899826)">
					<text>
						<tspan x="244.871002197" y="16.669000626" font-family="Arial" font-weight="normal" font-style="normal" font-size="11" fill="#000000">
							
						</tspan>
					</text>
				</g>
				<g transform="matrix(1,0,0,1,0,55.39899826)">
					<text>
						<tspan x="227.759002686" y="10.668999672" font-family="Arial" font-weight="normal" font-style="normal" font-size="11" fill="#000000">
							Bradford, BD1 6YU
						</tspan>
					</text>
				</g>
				<g transform="matrix(1,0,0,1,0,68.399002075)">
					<text>
						<tspan x="241.095001221" y="10.668999672" font-family="Arial" font-weight="normal" font-style="normal" font-size="11" fill="#000000">
							07941 234 567
						</tspan>
					</text>
				</g>
				<g transform="matrix(1,0,0,1,0,81.399002075)">
					<text>
						<tspan x="210.341995239" y="10.668999672" font-family="Arial" font-weight="normal" font-style="normal" font-size="11" fill="#000000">
							lily.french@example.co.uk
						</tspan>
					</text>
				</g>
				<g transform="matrix(1,0,0,1,0,104.399002075)">
					<text>
						<tspan x="248.932998657" y="14.668999672" font-family="Arial" font-weight="bold" font-style="normal" font-size="11" fill="#000000">
							Summary
						</tspan>
					</text>
				</g>
				<path d="M-1.450000048,106.899002075 L549.450012207,106.899002075 " stroke-width="1" stroke-miterlimit="10" stroke="#000000" fill="none" fill-rule="evenodd">
				</path>
				<path d="M-1.450000048,123.899002075 L549.450012207,123.899002075 " stroke-width="1" stroke-miterlimit="10" stroke="#000000" fill="none" fill-rule="evenodd">
				</path>
				<g transform="matrix(1,0,0,1,100,126.399002075)">
					<text>
						<tspan x="0" y="10.668999672" font-family="Arial" font-weight="normal" font-style="normal" font-size="11" fill="#000000">
							Highly organised and disciplined pharmacy leader with excellent communication and conflict
						</tspan>
						<tspan x="0" y="23.668998718" font-family="Arial" font-weight="normal" font-style="normal" font-size="11" fill="#000000">
							resolution skills. Competent in managing supplies, reviewing service quality, and
						</tspan>
						<tspan x="0" y="36.668998718" font-family="Arial" font-weight="normal" font-style="normal" font-size="11" fill="#000000">
							maintaining patient confidentiality and satisfaction. Skilled at ordering, storing, and
						</tspan>
						<tspan x="0" y="49.668998718" font-family="Arial" font-weight="normal" font-style="normal" font-size="11" fill="#000000">
							preparing medications for customer use. Accomplished in increasing customer satisfaction
						</tspan>
						<tspan x="0" y="62.668998718" font-family="Arial" font-weight="normal" font-style="normal" font-size="11" fill="#000000">
							while improving controls, team operations, and loss prevention strategies. Knowledgeable in
						</tspan>
						<tspan x="0" y="75.668998718" font-family="Arial" font-weight="normal" font-style="normal" font-size="11" fill="#000000">
							preparing special compounds.
						</tspan>
					</text>
				</g>
				<g transform="matrix(1,0,0,1,0,204.399002075)">
					<text>
						<tspan x="244.649002075" y="23.669000626" font-family="Arial" font-weight="bold" font-style="normal" font-size="11" fill="#000000">
							Experience
						</tspan>
					</text>
				</g>
				<path d="M-1.450000048,216.899002075 L549.450012207,216.899002075 " stroke-width="1" stroke-miterlimit="10" stroke="#000000" fill="none" fill-rule="evenodd">
				</path>
				<path d="M-1.450000048,230.899002075 L549.450012207,230.899002075 " stroke-width="1" stroke-miterlimit="10" stroke="#000000" fill="none" fill-rule="evenodd">
				</path>
				<g transform="matrix(1,0,0,1,0,233.399002075)">
					<g transform="matrix(1,0,0,1,0,0)" clip-path="url(#clip1)">
						<text>
							<tspan x="0" y="10.880999565" font-family="Arial" font-weight="normal" font-style="normal" font-size="10" fill="#000000">
								June 2017 to Current
							</tspan>
						</text>
					</g>
					<g transform="matrix(1,0,0,1,100,0)" clip-path="url(#clip2)">
						<text>
							<tspan x="0" y="10.668999672" font-family="Arial" font-weight="bold" font-style="normal" font-size="11" fill="#000000">
								King Chemist
							</tspan>
							<tspan x="70.891998291" y="10.668999672" font-family="Arial" font-weight="normal" font-style="normal" font-size="11" fill="#000000">
							</tspan>
						</text>
						<g transform="matrix(1,0,0,1,0,13)">
							<text>
								<tspan x="0" y="10.668999672" font-family="Arial" font-weight="normal" font-style="normal" font-size="11" fill="#000000">
									Birmingham
								</tspan>
							</text>
						</g>
						<g transform="matrix(1,0,0,1,0,26)">
							<text>
								<tspan x="0" y="10.668999672" font-family="Arial" font-weight="bold" font-style="normal" font-size="11" fill="#000000">
									Pharmacist
								</tspan>
							</text>
						</g>
						<g transform="matrix(1,0,0,1,18.950000763,39)">
							<text>
								<tspan x="-0.5" y="10.309000015" font-family="Times New Roman" font-weight="normal" font-style="normal" font-size="8.25" fill="#000000">
									●
								</tspan>
								<tspan x="13.050000191" y="11.059000015" font-family="Arial" font-weight="normal" font-style="normal" font-size="11" fill="#000000">
									Checked more than 30 patient orders against histories each day, assessed insurance
								</tspan>
								<tspan x="13.050000191" y="24.059000015" font-family="Arial" font-weight="normal" font-style="normal" font-size="11" fill="#000000">
									coverage and counted out medicines.
								</tspan>
							</text>
						</g>
						<g transform="matrix(1,0,0,1,18.950000763,65.38999939)">
							<text>
								<tspan x="-0.5" y="10.309000015" font-family="Times New Roman" font-weight="normal" font-style="normal" font-size="8.25" fill="#000000">
									●
								</tspan>
								<tspan x="13.050000191" y="11.059000015" font-family="Arial" font-weight="normal" font-style="normal" font-size="11" fill="#000000">
									Provided patient counselling regarding OTC medications.
								</tspan>
							</text>
						</g>
						<g transform="matrix(1,0,0,1,18.950000763,78.779998779)">
							<text>
								<tspan x="-0.5" y="10.309000015" font-family="Times New Roman" font-weight="normal" font-style="normal" font-size="8.25" fill="#000000">
									●
								</tspan>
								<tspan x="13.050000191" y="11.059000015" font-family="Arial" font-weight="normal" font-style="normal" font-size="11" fill="#000000">
									Managed weekly schedules and requests for leave.
								</tspan>
							</text>
						</g>
					</g>
				</g>
				<g transform="matrix(1,0,0,1,0,325.569000244)">
					<g transform="matrix(1,0,0,1,0,0)" clip-path="url(#clip3)">
						<g transform="matrix(1,0,0,1,0,5)">
							<text>
								<tspan x="0" y="10.880999565" font-family="Arial" font-weight="normal" font-style="normal" font-size="10" fill="#000000">
									February 2013 to May
								</tspan>
								<tspan x="0" y="23.881000519" font-family="Arial" font-weight="normal" font-style="normal" font-size="10" fill="#000000">
									2017
								</tspan>
							</text>
						</g>
					</g>
					<g transform="matrix(1,0,0,1,100,0)" clip-path="url(#clip4)">
						<g transform="matrix(1,0,0,1,0,5)">
							<text>
								<tspan x="0" y="10.668999672" font-family="Arial" font-weight="bold" font-style="normal" font-size="11" fill="#000000">
									L Pharma
								</tspan>
								<tspan x="50.127998352" y="10.668999672" font-family="Arial" font-weight="normal" font-style="normal" font-size="11" fill="#000000">
								</tspan>
							</text>
						</g>
						<g transform="matrix(1,0,0,1,0,18)">
							<text>
								<tspan x="0" y="10.668999672" font-family="Arial" font-weight="normal" font-style="normal" font-size="11" fill="#000000">
									Birmingham
								</tspan>
							</text>
						</g>
						<g transform="matrix(1,0,0,1,0,31)">
							<text>
								<tspan x="0" y="10.668999672" font-family="Arial" font-weight="bold" font-style="normal" font-size="11" fill="#000000">
									Pharmacist
								</tspan>
							</text>
						</g>
						<g transform="matrix(1,0,0,1,18.950000763,44)">
							<text>
								<tspan x="-0.5" y="10.309000015" font-family="Times New Roman" font-weight="normal" font-style="normal" font-size="8.25" fill="#000000">
									●
								</tspan>
								<tspan x="13.050000191" y="11.059000015" font-family="Arial" font-weight="normal" font-style="normal" font-size="11" fill="#000000">
									Used pharmacy software Meditab to verify prescription and insurance information.
								</tspan>
							</text>
						</g>
						<g transform="matrix(1,0,0,1,18.950000763,57.38999939)">
							<text>
								<tspan x="-0.5" y="10.309000015" font-family="Times New Roman" font-weight="normal" font-style="normal" font-size="8.25" fill="#000000">
									●
								</tspan>
								<tspan x="13.050000191" y="11.059000015" font-family="Arial" font-weight="normal" font-style="normal" font-size="11" fill="#000000">
									Compounded and prepared medications according to prescription orders for more
								</tspan>
								<tspan x="13.050000191" y="24.059000015" font-family="Arial" font-weight="normal" font-style="normal" font-size="11" fill="#000000">
									than 160 prescriptions every week.
								</tspan>
							</text>
						</g>
						<g transform="matrix(1,0,0,1,18.950000763,83.779998779)">
							<text>
								<tspan x="-0.5" y="10.309000015" font-family="Times New Roman" font-weight="normal" font-style="normal" font-size="8.25" fill="#000000">
									●
								</tspan>
								<tspan x="13.050000191" y="11.059000015" font-family="Arial" font-weight="normal" font-style="normal" font-size="11" fill="#000000">
									Solicited medical history information from patients to provide best and most effective
								</tspan>
								<tspan x="13.050000191" y="24.059000015" font-family="Arial" font-weight="normal" font-style="normal" font-size="11" fill="#000000">
									medical advice.
								</tspan>
							</text>
						</g>
					</g>
				</g>
				<g transform="matrix(1,0,0,1,0,435.739013672)">
					<text>
						<tspan x="259.628997803" y="24.669000626" font-family="Arial" font-weight="bold" font-style="normal" font-size="11" fill="#000000">
							Skills
						</tspan>
					</text>
				</g>
				<path d="M-1.450000048,448.239013672 L549.450012207,448.239013672 " stroke-width="1" stroke-miterlimit="10" stroke="#000000" fill="none" fill-rule="evenodd">
				</path>
				<path d="M-1.450000048,465.239013672 L549.450012207,465.239013672 " stroke-width="1" stroke-miterlimit="10" stroke="#000000" fill="none" fill-rule="evenodd">
				</path>
				<g transform="matrix(1,0,0,1,100,467.739013672)">
					<g transform="matrix(1,0,0,1,0,0)" clip-path="url(#clip5)">
						<g transform="matrix(1,0,0,1,19.200000763,0.25)">
							<text>
								<tspan x="-0.5" y="10.309000015" font-family="Times New Roman" font-weight="normal" font-style="normal" font-size="8.25" fill="#000000">
									●
								</tspan>
								<tspan x="13.050000191" y="11.059000015" font-family="Arial" font-weight="normal" font-style="normal" font-size="11" fill="#000000">
									Interpreting orders
								</tspan>
							</text>
						</g>
						<g transform="matrix(1,0,0,1,19.200000763,13.640000343)">
							<text>
								<tspan x="-0.5" y="10.309000015" font-family="Times New Roman" font-weight="normal" font-style="normal" font-size="8.25" fill="#000000">
									●
								</tspan>
								<tspan x="13.050000191" y="11.059000015" font-family="Arial" font-weight="normal" font-style="normal" font-size="11" fill="#000000">
									Dosing recommendations
								</tspan>
							</text>
						</g>
						<g transform="matrix(1,0,0,1,19.200000763,27.030000687)">
							<text>
								<tspan x="-0.5" y="10.309000015" font-family="Times New Roman" font-weight="normal" font-style="normal" font-size="8.25" fill="#000000">
									●
								</tspan>
								<tspan x="13.050000191" y="11.059000015" font-family="Arial" font-weight="normal" font-style="normal" font-size="11" fill="#000000">
									Compounding abilities
								</tspan>
							</text>
						</g>
						<g transform="matrix(1,0,0,1,19.200000763,40.419998169)">
							<text>
								<tspan x="-0.5" y="10.309000015" font-family="Times New Roman" font-weight="normal" font-style="normal" font-size="8.25" fill="#000000">
									●
								</tspan>
								<tspan x="13.050000191" y="11.059000015" font-family="Arial" font-weight="normal" font-style="normal" font-size="11" fill="#000000">
									Employee training
								</tspan>
							</text>
						</g>
						<g transform="matrix(1,0,0,1,19.200000763,53.810001373)">
							<text>
								<tspan x="-0.5" y="10.309000015" font-family="Times New Roman" font-weight="normal" font-style="normal" font-size="8.25" fill="#000000">
									●
								</tspan>
								<tspan x="13.050000191" y="11.059000015" font-family="Arial" font-weight="normal" font-style="normal" font-size="11" fill="#000000">
									Dispensing medicines
								</tspan>
							</text>
						</g>
					</g>
					<g transform="matrix(1,0,0,1,223.899993896,0)" clip-path="url(#clip6)">
						<g transform="matrix(1,0,0,1,19.450000763,0.25)">
							<text>
								<tspan x="-0.5" y="10.309000015" font-family="Times New Roman" font-weight="normal" font-style="normal" font-size="8.25" fill="#000000">
									●
								</tspan>
								<tspan x="13.050000191" y="11.059000015" font-family="Arial" font-weight="normal" font-style="normal" font-size="11" fill="#000000">
									Customer relations
								</tspan>
							</text>
						</g>
						<g transform="matrix(1,0,0,1,19.450000763,13.640000343)">
							<text>
								<tspan x="-0.5" y="10.309000015" font-family="Times New Roman" font-weight="normal" font-style="normal" font-size="8.25" fill="#000000">
									●
								</tspan>
								<tspan x="13.050000191" y="11.059000015" font-family="Arial" font-weight="normal" font-style="normal" font-size="11" fill="#000000">
									Resolving complaints
								</tspan>
							</text>
						</g>
						<g transform="matrix(1,0,0,1,19.450000763,27.030000687)">
							<text>
								<tspan x="-0.5" y="10.309000015" font-family="Times New Roman" font-weight="normal" font-style="normal" font-size="8.25" fill="#000000">
									●
								</tspan>
								<tspan x="13.050000191" y="11.059000015" font-family="Arial" font-weight="normal" font-style="normal" font-size="11" fill="#000000">
									Sales skills
								</tspan>
							</text>
						</g>
						<g transform="matrix(1,0,0,1,19.450000763,40.419998169)">
							<text>
								<tspan x="-0.5" y="10.309000015" font-family="Times New Roman" font-weight="normal" font-style="normal" font-size="8.25" fill="#000000">
									●
								</tspan>
								<tspan x="13.050000191" y="11.059000015" font-family="Arial" font-weight="normal" font-style="normal" font-size="11" fill="#000000">
									Patient education
								</tspan>
							</text>
						</g>
					</g>
					<path d="M223.899993896,0 L223.899993896,67.449996948 " stroke-width="1" stroke-miterlimit="10" stroke="#fefdfd" fill="none" fill-rule="evenodd">
					</path>
				</g>
				<g transform="matrix(1,0,0,1,0,535.189025879)">
					<text>
						<tspan x="247.416000366" y="24.669000626" font-family="Arial" font-weight="bold" font-style="normal" font-size="11" fill="#000000">
							Education
						</tspan>
					</text>
				</g>
				<path d="M-1.450000048,547.689025879 L549.450012207,547.689025879 " stroke-width="1" stroke-miterlimit="10" stroke="#000000" fill="none" fill-rule="evenodd">
				</path>
				<path d="M-1.450000048,564.689025879 L549.450012207,564.689025879 " stroke-width="1" stroke-miterlimit="10" stroke="#000000" fill="none" fill-rule="evenodd">
				</path>
				<g transform="matrix(1,0,0,1,0,567.189025879)">
					<g transform="matrix(1,0,0,1,0,0)" clip-path="url(#clip7)">
						<text>
							<tspan x="0" y="10.880999565" font-family="Arial" font-weight="normal" font-style="normal" font-size="10" fill="#000000">
								2010
							</tspan>
						</text>
					</g>
					<g transform="matrix(1,0,0,1,100,0)" clip-path="url(#clip8)">
						<text>
							<tspan x="0" y="10.668999672" font-family="Arial" font-weight="bold" font-style="normal" font-size="11" fill="#000000">
								Birmingham University
							</tspan>
							<tspan x="120.419998169" y="10.668999672" font-family="Arial" font-weight="normal" font-style="normal" font-size="11" fill="#000000">
							</tspan>
						</text>
						<g transform="matrix(1,0,0,1,0,13)">
							<text>
								<tspan x="0" y="10.668999672" font-family="Arial" font-weight="normal" font-style="normal" font-size="11" fill="#000000">
									Birmingham
								</tspan>
							</text>
						</g>
						<g transform="matrix(1,0,0,1,0,26)">
							<text>
								<tspan x="0" y="23.668998718" font-family="Arial" font-weight="normal" font-style="normal" font-size="11" fill="#000000">
									Masters degree in pharmacy
								</tspan>
							</text>
						</g>
					</g>
				</g>
				<g transform="matrix(1,0,0,1,0,619.189025879)">
					<text>
						<tspan x="215.339004517" y="24.669000626" font-family="Arial" font-weight="bold" font-style="normal" font-size="11" fill="#000000">
							Additional Information
						</tspan>
					</text>
				</g>
				<path d="M-1.450000048,631.689025879 L549.450012207,631.689025879 " stroke-width="1" stroke-miterlimit="10" stroke="#000000" fill="none" fill-rule="evenodd">
				</path>
				<path d="M-1.450000048,648.689025879 L549.450012207,648.689025879 " stroke-width="1" stroke-miterlimit="10" stroke="#000000" fill="none" fill-rule="evenodd">
				</path>
				<g transform="matrix(1,0,0,1,100,651.189025879)">
					<text>
						<tspan x="0" y="10.668999672" font-family="Arial" font-weight="normal" font-style="normal" font-size="11" fill="#000000">
							Registered at General Pharmaceutical Council.
						</tspan>
					</text>
				</g>
			</g>
		</g>
	</g>
</svg>
