<?xml version="1.0" encoding="utf-8" standalone="yes"?>
<svg xmlns="http://www.w3.org/2000/svg" xmlns:xlink="http://www.w3.org/1999/xlink" version="1.1" width="816" height="1056">
	<!-- Generated by Aspose.Words for .NET 18.5 -->
	<defs>
		<clipPath id="clip1">
			<path d="M0,0 L612,0 L612,0.096000001 L0,0.096000001 Z" clip-rule="evenodd">
			</path>
		</clipPath>
		<clipPath id="clip10">
			<path d="M-1,-1 L81,-1 L81,30.225999832 L-1,30.225999832 Z" clip-rule="evenodd">
			</path>
		</clipPath>
		<clipPath id="clip11">
			<path d="M-1,-1 L81,-1 L81,30.225999832 L-1,30.225999832 Z" clip-rule="evenodd">
			</path>
		</clipPath>
		<clipPath id="clip2">
			<path d="M0,0 L612,0 L612,0.096000001 L0,0.096000001 Z" clip-rule="evenodd">
			</path>
		</clipPath>
		<clipPath id="clip3">
			<path d="M-1,0.5 L163,0.5 L163,27.25 L-1,27.25 Z" clip-rule="evenodd">
			</path>
		</clipPath>
		<clipPath id="clip4">
			<path d="M-1,-1 L612.799987793,-1 L612.799987793,155.102005005 L-1,155.102005005 Z" clip-rule="evenodd">
			</path>
		</clipPath>
		<clipPath id="clip5">
			<path d="M-1,-1 L81,-1 L81,30.225999832 L-1,30.225999832 Z" clip-rule="evenodd">
			</path>
		</clipPath>
		<clipPath id="clip6">
			<path d="M-1,-1 L81,-1 L81,30.225999832 L-1,30.225999832 Z" clip-rule="evenodd">
			</path>
		</clipPath>
		<clipPath id="clip7">
			<path d="M-1,-1 L81,-1 L81,30.225999832 L-1,30.225999832 Z" clip-rule="evenodd">
			</path>
		</clipPath>
		<clipPath id="clip8">
			<path d="M-1,-1 L264.899993896,-1 L264.899993896,71.5 L-1,71.5 Z" clip-rule="evenodd">
			</path>
		</clipPath>
		<clipPath id="clip9">
			<path d="M-1,-1 L264.899993896,-1 L264.899993896,71.5 L-1,71.5 Z" clip-rule="evenodd">
			</path>
		</clipPath>
		<style type="text/css">
			svg{background:white}@font-face{font-family:'Century Gothic';font-weight:normal;font-style:normal;src:local('Century Gothic'),url('https://content.livecareer.com/zty/fonts/CenturyGothic.ttf') format('truetype')}@font-face{font-family:'Century Gothic';font-weight:bold;font-style:normal;src:local('Century Gothic Bold'),url('https://content.livecareer.com/zty/fonts/CenturyGothicBold.ttf') format('truetype')}@font-face{font-family:'Century Gothic';font-weight:bold;font-style:italic;src:local('Century Gothic Bold Italic'),url('https://content.livecareer.com/zty/fonts/CenturyGothicBoldItalic.ttf') format('truetype')}@font-face{font-family:'Century Gothic';font-weight:normal;font-style:italic;src:local('Century Gothic Italic'),url('https://content.livecareer.com/zty/fonts/CenturyGothicItalic.ttf') format('truetype')}
		</style>
	</defs>
	<g transform="scale(1.33333)">
		<g>
			<path d="M0,0 L600,0 L600,450 L0,450 Z" fill="#ffffff" fill-rule="evenodd">
			</path>
			<g transform="matrix(1,0,0,1,600,0)">
				<path d="M0,0 L600,0 L600,450 L0,450 Z" fill="#ffffff" fill-rule="evenodd">
				</path>
			</g>
			<g transform="matrix(1,0,0,1,0,450)">
				<path d="M0,0 L600,0 L600,450 L0,450 Z" fill="#ffffff" fill-rule="evenodd">
				</path>
			</g>
			<g transform="matrix(1,0,0,1,600,450)">
				<path d="M0,0 L600,0 L600,450 L0,450 Z" fill="#ffffff" fill-rule="evenodd">
				</path>
			</g>
			<g transform="matrix(1,0,0,1,0,0)" clip-path="url(#clip1)">
				<text>
					<tspan x="0" y="0.077" font-family="Times New Roman" font-weight="normal" font-style="normal" font-size="1" fill="#ffffff">
						.
					</tspan>
				</text>
			</g>
			<g transform="matrix(1,0,0,1,0,791.903991699)" clip-path="url(#clip2)">
				<text>
					<tspan x="0" y="0.077" font-family="Times New Roman" font-weight="normal" font-style="normal" font-size="1" fill="#ffffff">
						.
					</tspan>
				</text>
			</g>
			<g transform="matrix(1,0,0,1,0,0.096000001)">
				<path d="M0,0 L1,0 L1,154.102005005 L0,154.102005005 Z" fill="#084b81" fill-rule="evenodd">
				</path>
				<path d="M1,0 L612.799987793,0 L612.799987793,154.102005005 L1,154.102005005 Z" fill="#084b81" fill-rule="evenodd">
				</path>
				<g transform="matrix(1,0,0,1,1,25)">
					<path d="M0,0 L224.899993896,0 L224.899993896,26.25 L0,26.25 Z" fill="#084b81" fill-rule="evenodd">
					</path>
					<path d="M224.899993896,1.5 L386.899993896,1.5 L386.899993896,26.25 L224.899993896,26.25 Z" fill="#084b81" fill-rule="evenodd">
					</path>
					<g transform="matrix(1,0,0,1,224.899993896,0)" clip-path="url(#clip3)">
						<g transform="matrix(1,0,0,1,0,2.25)">
							<text>
								<tspan x="80.86000061" y="1.006000042" font-family="Century Gothic" font-weight="bold" font-style="normal" font-size="1" fill="#084b81">
								</tspan>
							</text>
						</g>
					</g>
					<path d="M386.899993896,0 L611.799987793,0 L611.799987793,26.25 L386.899993896,26.25 Z" fill="#084b81" fill-rule="evenodd">
					</path>
					<path d="M224.899993896,0.75 L386.899993896,0.75 " stroke-width="1.5" stroke-miterlimit="10" stroke="#e3d7da" fill="none" fill-rule="evenodd">
					</path>
				</g>
				<g transform="matrix(1,0,0,1,1,0)" clip-path="url(#clip4)">
					<g transform="matrix(1,0,0,1,42,51.25)">
						<text>
							<tspan x="151.208000183" y="48.282001495" font-family="Century Gothic" font-weight="bold" font-style="normal" font-size="48" fill="#ffffff">
								Lily French
							</tspan>
						</text>
					</g>
					<g transform="matrix(1,0,0,1,42,125.101997375)">
						<text>
							<tspan x="125.677001953" y="17.017999649" font-family="Century Gothic" font-weight="normal" font-style="normal" font-size="9" fill="#ffffff">
								 Bradford, BD1 6YU   |  07941 234 567  |   E: lily.french@example.co.uk
							</tspan>
						</text>
					</g>
				</g>
			</g>
			<g transform="matrix(1,0,0,1,42,154.197998047)">
				<g transform="matrix(1,0,0,1,0,0)" clip-path="url(#clip5)">
					<g transform="matrix(1,0,0,1,0,21)">
						<text>
							<tspan x="0" y="2.006000042" font-family="Century Gothic" font-weight="normal" font-style="normal" font-size="1" fill="#231f20">
							</tspan>
						</text>
					</g>
					<path d="M-1.450000048,21.5 L81.450004578,21.5 " stroke-width="1" stroke-miterlimit="10" stroke="#e3d7da" fill="none" fill-rule="evenodd">
					</path>
				</g>
				<g transform="matrix(1,0,0,1,0,29.225999832)">
					<text>
						<tspan x="0" y="14.081999779" font-family="Century Gothic" font-weight="bold" font-style="normal" font-size="14" fill="#084b81">
							Summary
						</tspan>
					</text>
				</g>
				<g transform="matrix(1,0,0,1,0,46.39099884)">
					<text>
						<tspan x="0" y="12.017999649" font-family="Century Gothic" font-weight="normal" font-style="normal" font-size="9" fill="#231f20">
							Highly organised and disciplined pharmacy leader with excellent communication and conflict resolution skills.
						</tspan>
						<tspan x="0" y="26.017999649" font-family="Century Gothic" font-weight="normal" font-style="normal" font-size="9" fill="#231f20">
							Competent in managing supplies, reviewing service quality, and maintaining patient confidentiality and satisfaction.
						</tspan>
						<tspan x="0" y="40.017997742" font-family="Century Gothic" font-weight="normal" font-style="normal" font-size="9" fill="#231f20">
							Skilled at ordering, storing, and preparing medications for customer use. Accomplished in increasing customer
						</tspan>
						<tspan x="0" y="54.017997742" font-family="Century Gothic" font-weight="normal" font-style="normal" font-size="9" fill="#231f20">
							satisfaction while improving controls, team operations, and loss prevention strategies. Knowledgeable in preparing
						</tspan>
						<tspan x="0" y="68.017997742" font-family="Century Gothic" font-weight="normal" font-style="normal" font-size="9" fill="#231f20">
							special compounds.
						</tspan>
					</text>
				</g>
				<g transform="matrix(1,0,0,1,0,116.39099884)">
					<g transform="matrix(1,0,0,1,0,0)" clip-path="url(#clip6)">
						<g transform="matrix(1,0,0,1,0,21)">
							<text>
								<tspan x="0" y="2.006000042" font-family="Century Gothic" font-weight="normal" font-style="normal" font-size="1" fill="#231f20">
								</tspan>
							</text>
						</g>
						<path d="M-1.450000048,21.5 L81.450004578,21.5 " stroke-width="1" stroke-miterlimit="10" stroke="#e3d7da" fill="none" fill-rule="evenodd">
						</path>
					</g>
				</g>
				<g transform="matrix(1,0,0,1,0,145.617004395)">
					<text>
						<tspan x="0" y="14.081999779" font-family="Century Gothic" font-weight="bold" font-style="normal" font-size="14" fill="#084b81">
							Experience
						</tspan>
					</text>
				</g>
				<g transform="matrix(1,0,0,1,0,167.781997681)">
					<text>
						<tspan x="0" y="12.017999649" font-family="Century Gothic" font-weight="bold" font-style="normal" font-size="9" fill="#231f20">
							PHARMACIST
						</tspan>
						<tspan x="55.792999268" y="12.017999649" font-family="Century Gothic" font-weight="normal" font-style="normal" font-size="9" fill="#231f20">
							| 06/2017 to Current
						</tspan>
					</text>
				</g>
				<g transform="matrix(1,0,0,1,0,181.781997681)">
					<text>
						<tspan x="0" y="12.017999649" font-family="Century Gothic" font-weight="bold" font-style="normal" font-size="9" fill="#000000">
							King Chemist - Birmingham
						</tspan>
					</text>
				</g>
				<g transform="matrix(1,0,0,1,4.849999905,195.781997681)">
					<text>
						<tspan x="-0.5" y="11.267999649" font-family="Times New Roman" font-weight="normal" font-style="normal" font-size="6.75" fill="#231f20">
							●
						</tspan>
						<tspan x="14.149999619" y="12.017999649" font-family="Century Gothic" font-weight="normal" font-style="normal" font-size="9" fill="#231f20">
							Checked more than 30 patient orders against histories each day, assessed insurance coverage and counted out
						</tspan>
						<tspan x="14.149999619" y="26.017999649" font-family="Century Gothic" font-weight="normal" font-style="normal" font-size="9" fill="#231f20">
							medicines.
						</tspan>
					</text>
				</g>
				<g transform="matrix(1,0,0,1,4.849999905,223.781997681)">
					<text>
						<tspan x="-0.5" y="11.267999649" font-family="Times New Roman" font-weight="normal" font-style="normal" font-size="6.75" fill="#231f20">
							●
						</tspan>
						<tspan x="14.149999619" y="12.017999649" font-family="Century Gothic" font-weight="normal" font-style="normal" font-size="9" fill="#231f20">
							Provided patient counselling regarding OTC medications.
						</tspan>
					</text>
				</g>
				<g transform="matrix(1,0,0,1,4.849999905,237.781997681)">
					<text>
						<tspan x="-0.5" y="11.267999649" font-family="Times New Roman" font-weight="normal" font-style="normal" font-size="6.75" fill="#231f20">
							●
						</tspan>
						<tspan x="14.149999619" y="12.017999649" font-family="Century Gothic" font-weight="normal" font-style="normal" font-size="9" fill="#231f20">
							Managed weekly schedules and requests for leave.
						</tspan>
					</text>
				</g>
				<g transform="matrix(1,0,0,1,0,251.781997681)">
					<text>
						<tspan x="0" y="27.017999649" font-family="Century Gothic" font-weight="bold" font-style="normal" font-size="9" fill="#231f20">
							PHARMACIST
						</tspan>
						<tspan x="55.792999268" y="27.017999649" font-family="Century Gothic" font-weight="normal" font-style="normal" font-size="9" fill="#231f20">
							| 02/2013 to 05/2017
						</tspan>
					</text>
				</g>
				<g transform="matrix(1,0,0,1,0,280.782012939)">
					<text>
						<tspan x="0" y="12.017999649" font-family="Century Gothic" font-weight="bold" font-style="normal" font-size="9" fill="#000000">
							L Pharma - Birmingham
						</tspan>
					</text>
				</g>
				<g transform="matrix(1,0,0,1,4.849999905,294.782012939)">
					<text>
						<tspan x="-0.5" y="11.267999649" font-family="Times New Roman" font-weight="normal" font-style="normal" font-size="6.75" fill="#231f20">
							●
						</tspan>
						<tspan x="14.149999619" y="12.017999649" font-family="Century Gothic" font-weight="normal" font-style="normal" font-size="9" fill="#231f20">
							Used pharmacy software Meditab to verify prescription and insurance information.
						</tspan>
					</text>
				</g>
				<g transform="matrix(1,0,0,1,4.849999905,308.782012939)">
					<text>
						<tspan x="-0.5" y="11.267999649" font-family="Times New Roman" font-weight="normal" font-style="normal" font-size="6.75" fill="#231f20">
							●
						</tspan>
						<tspan x="14.149999619" y="12.017999649" font-family="Century Gothic" font-weight="normal" font-style="normal" font-size="9" fill="#231f20">
							Compounded and prepared medications according to prescription orders for more than 160 prescriptions every
						</tspan>
						<tspan x="14.149999619" y="26.017999649" font-family="Century Gothic" font-weight="normal" font-style="normal" font-size="9" fill="#231f20">
							week.
						</tspan>
					</text>
				</g>
				<g transform="matrix(1,0,0,1,4.849999905,336.782012939)">
					<text>
						<tspan x="-0.5" y="11.267999649" font-family="Times New Roman" font-weight="normal" font-style="normal" font-size="6.75" fill="#231f20">
							●
						</tspan>
						<tspan x="14.149999619" y="12.017999649" font-family="Century Gothic" font-weight="normal" font-style="normal" font-size="9" fill="#231f20">
							Solicited medical history information from patients to provide best and most effective medical advice.
						</tspan>
					</text>
				</g>
				<g transform="matrix(1,0,0,1,0,350.782012939)">
					<g transform="matrix(1,0,0,1,0,0)" clip-path="url(#clip7)">
						<g transform="matrix(1,0,0,1,0,21)">
							<text>
								<tspan x="0" y="2.006000042" font-family="Century Gothic" font-weight="normal" font-style="normal" font-size="1" fill="#231f20">
								</tspan>
							</text>
						</g>
						<path d="M-1.450000048,21.5 L81.450004578,21.5 " stroke-width="1" stroke-miterlimit="10" stroke="#e3d7da" fill="none" fill-rule="evenodd">
						</path>
					</g>
				</g>
				<g transform="matrix(1,0,0,1,0,380.007995605)">
					<text>
						<tspan x="0" y="14.081999779" font-family="Century Gothic" font-weight="bold" font-style="normal" font-size="14" fill="#084b81">
							Skills
						</tspan>
					</text>
				</g>
				<g transform="matrix(1,0,0,1,0,402.17300415)">
					<g transform="matrix(1,0,0,1,0,0)" clip-path="url(#clip8)">
						<g transform="matrix(1,0,0,1,5.099999905,0.25)">
							<text>
								<tspan x="-0.5" y="11.267999649" font-family="Times New Roman" font-weight="normal" font-style="normal" font-size="6.75" fill="#231f20">
									●
								</tspan>
								<tspan x="14.149999619" y="12.017999649" font-family="Century Gothic" font-weight="normal" font-style="normal" font-size="9" fill="#231f20">
									Interpreting orders
								</tspan>
							</text>
						</g>
						<g transform="matrix(1,0,0,1,5.099999905,14.25)">
							<text>
								<tspan x="-0.5" y="11.267999649" font-family="Times New Roman" font-weight="normal" font-style="normal" font-size="6.75" fill="#231f20">
									●
								</tspan>
								<tspan x="14.149999619" y="12.017999649" font-family="Century Gothic" font-weight="normal" font-style="normal" font-size="9" fill="#231f20">
									Dosing recommendations
								</tspan>
							</text>
						</g>
						<g transform="matrix(1,0,0,1,5.099999905,28.25)">
							<text>
								<tspan x="-0.5" y="11.267999649" font-family="Times New Roman" font-weight="normal" font-style="normal" font-size="6.75" fill="#231f20">
									●
								</tspan>
								<tspan x="14.149999619" y="12.017999649" font-family="Century Gothic" font-weight="normal" font-style="normal" font-size="9" fill="#231f20">
									Compounding abilities
								</tspan>
							</text>
						</g>
						<g transform="matrix(1,0,0,1,5.099999905,42.25)">
							<text>
								<tspan x="-0.5" y="11.267999649" font-family="Times New Roman" font-weight="normal" font-style="normal" font-size="6.75" fill="#231f20">
									●
								</tspan>
								<tspan x="14.149999619" y="12.017999649" font-family="Century Gothic" font-weight="normal" font-style="normal" font-size="9" fill="#231f20">
									Employee training
								</tspan>
							</text>
						</g>
						<g transform="matrix(1,0,0,1,5.099999905,56.25)">
							<text>
								<tspan x="-0.5" y="11.267999649" font-family="Times New Roman" font-weight="normal" font-style="normal" font-size="6.75" fill="#231f20">
									●
								</tspan>
								<tspan x="14.149999619" y="12.017999649" font-family="Century Gothic" font-weight="normal" font-style="normal" font-size="9" fill="#231f20">
									Dispensing medicines
								</tspan>
							</text>
						</g>
					</g>
					<g transform="matrix(1,0,0,1,263.899993896,0)" clip-path="url(#clip9)">
						<g transform="matrix(1,0,0,1,5.099999905,0.25)">
							<text>
								<tspan x="-0.5" y="11.267999649" font-family="Times New Roman" font-weight="normal" font-style="normal" font-size="6.75" fill="#231f20">
									●
								</tspan>
								<tspan x="14.149999619" y="12.017999649" font-family="Century Gothic" font-weight="normal" font-style="normal" font-size="9" fill="#231f20">
									Customer relations
								</tspan>
							</text>
						</g>
						<g transform="matrix(1,0,0,1,5.099999905,14.25)">
							<text>
								<tspan x="-0.5" y="11.267999649" font-family="Times New Roman" font-weight="normal" font-style="normal" font-size="6.75" fill="#231f20">
									●
								</tspan>
								<tspan x="14.149999619" y="12.017999649" font-family="Century Gothic" font-weight="normal" font-style="normal" font-size="9" fill="#231f20">
									Resolving complaints
								</tspan>
							</text>
						</g>
						<g transform="matrix(1,0,0,1,5.099999905,28.25)">
							<text>
								<tspan x="-0.5" y="11.267999649" font-family="Times New Roman" font-weight="normal" font-style="normal" font-size="6.75" fill="#231f20">
									●
								</tspan>
								<tspan x="14.149999619" y="12.017999649" font-family="Century Gothic" font-weight="normal" font-style="normal" font-size="9" fill="#231f20">
									Sales skills
								</tspan>
							</text>
						</g>
						<g transform="matrix(1,0,0,1,5.099999905,42.25)">
							<text>
								<tspan x="-0.5" y="11.267999649" font-family="Times New Roman" font-weight="normal" font-style="normal" font-size="6.75" fill="#231f20">
									●
								</tspan>
								<tspan x="14.149999619" y="12.017999649" font-family="Century Gothic" font-weight="normal" font-style="normal" font-size="9" fill="#231f20">
									Patient education
								</tspan>
							</text>
						</g>
					</g>
				</g>
				<g transform="matrix(1,0,0,1,0,472.67300415)">
					<g transform="matrix(1,0,0,1,0,0)" clip-path="url(#clip10)">
						<g transform="matrix(1,0,0,1,0,21)">
							<text>
								<tspan x="0" y="2.006000042" font-family="Century Gothic" font-weight="normal" font-style="normal" font-size="1" fill="#231f20">
								</tspan>
							</text>
						</g>
						<path d="M-1.450000048,21.5 L81.450004578,21.5 " stroke-width="1" stroke-miterlimit="10" stroke="#e3d7da" fill="none" fill-rule="evenodd">
						</path>
					</g>
				</g>
				<g transform="matrix(1,0,0,1,0,501.898986816)">
					<text>
						<tspan x="0" y="14.081999779" font-family="Century Gothic" font-weight="bold" font-style="normal" font-size="14" fill="#084b81">
							Education
						</tspan>
					</text>
				</g>
				<g transform="matrix(1,0,0,1,0,524.064025879)">
					<text>
						<tspan x="0" y="12.017999649" font-family="Century Gothic" font-weight="bold" font-style="normal" font-size="9" fill="#000000">
							Birmingham University - Birmingham | Masters degree in pharmacy
						</tspan>
					</text>
				</g>
				<g transform="matrix(1,0,0,1,0,538.064025879)">
					<text>
						<tspan x="0" y="12.017999649" font-family="Century Gothic" font-weight="normal" font-style="normal" font-size="9" fill="#231f20">
							2010
						</tspan>
					</text>
				</g>
				<g transform="matrix(1,0,0,1,0,552.064025879)">
					<g transform="matrix(1,0,0,1,0,0)" clip-path="url(#clip11)">
						<g transform="matrix(1,0,0,1,0,21)">
							<text>
								<tspan x="0" y="2.006000042" font-family="Century Gothic" font-weight="normal" font-style="normal" font-size="1" fill="#231f20">
								</tspan>
							</text>
						</g>
						<path d="M-1.450000048,21.5 L81.450004578,21.5 " stroke-width="1" stroke-miterlimit="10" stroke="#e3d7da" fill="none" fill-rule="evenodd">
						</path>
					</g>
				</g>
				<g transform="matrix(1,0,0,1,0,581.289978027)">
					<text>
						<tspan x="0" y="14.081999779" font-family="Century Gothic" font-weight="bold" font-style="normal" font-size="14" fill="#084b81">
							Additional Information
						</tspan>
					</text>
				</g>
				<g transform="matrix(1,0,0,1,0,603.45501709)">
					<text>
						<tspan x="0" y="12.017999649" font-family="Century Gothic" font-weight="normal" font-style="normal" font-size="9" fill="#231f20">
							Registered at General Pharmaceutical Council.
						</tspan>
					</text>
				</g>
			</g>
		</g>
	</g>
</svg>
