<?xml version="1.0" encoding="utf-8" standalone="yes"?><svg xmlns="http://www.w3.org/2000/svg" xmlns:xlink="http://www.w3.org/1999/xlink" version="1.1" width="100%" height="100%" viewBox="0 0 816 1056"><!--Generated by Aspose.Words for .NET 18.5--><defs><clipPath id="clip1"><path d="M-1,-1 L264.899993896,-1 L264.899993896,81.5 L-1,81.5 Z" clip-rule="evenodd"></path></clipPath><clipPath id="clip2"><path d="M-1,-1 L264.899993896,-1 L264.899993896,81.5 L-1,81.5 Z" clip-rule="evenodd"></path></clipPath><style type="text/css">svg{background:white}@font-face{font-family:'Century Gothic';font-weight:normal;font-style:normal;src:local('Century Gothic'),url('https://lccontentprod.blob.core.windows.net/fonts/CenturyGothic.woff2') format('woff2'),url('https://content.livecareer.com/zty/fonts/CenturyGothic.ttf') format('truetype')}@font-face{font-family:'Century Gothic';font-weight:bold;font-style:normal;src:local('Century Gothic Bold'),url('https://lccontentprod.blob.core.windows.net/fonts/CenturyGothicBold.woff2') format('woff2'),url('https://content.livecareer.com/zty/fonts/CenturyGothicBold.ttf') format('truetype')}@font-face{font-family:'Century Gothic';font-weight:bold;font-style:italic;src:local('Century Gothic Bold Italic'),url('https://lccontentprod.blob.core.windows.net/fonts/CenturyGothicBoldItalic.woff2') format('woff2'),url('https://content.livecareer.com/zty/fonts/CenturyGothicBoldItalic.ttf') format('truetype')}@font-face{font-family:'Century Gothic';font-weight:normal;font-style:italic;src:local('Century Gothic Italic'),url('https://lccontentprod.blob.core.windows.net/fonts/CenturyGothicItalic.woff2') format('woff2'),url('https://content.livecareer.com/zty/fonts/CenturyGothicItalic.ttf') format('truetype')}</style></defs><g transform="scale(1.33333)"><g><path d="M0,0 L600,0 L600,450 L0,450 Z" fill="#ffffff" fill-rule="evenodd"></path><g transform="matrix(1,0,0,1,600,0)"><path d="M0,0 L600,0 L600,450 L0,450 Z" fill="#ffffff" fill-rule="evenodd"></path></g><g transform="matrix(1,0,0,1,0,450)"><path d="M0,0 L600,0 L600,450 L0,450 Z" fill="#ffffff" fill-rule="evenodd"></path></g><g transform="matrix(1,0,0,1,600,450)"><path d="M0,0 L600,0 L600,450 L0,450 Z" fill="#ffffff" fill-rule="evenodd"></path></g><g transform="matrix(1,0,0,1,42,52)"><text><tspan x="0" y="49.173000336" font-family="Century Gothic" font-weight="bold" font-style="normal" font-size="31" fill="#333333">Lily French</tspan></text><g transform="matrix(1,0,0,1,0,56)"><text><tspan x="0" y="18.577999115" font-family="Century Gothic" font-weight="normal" font-style="normal" font-size="11" fill="#787878">07941 234 567 | lily.french@example.co.uk |  Bradford, BD1 6YU </tspan></text></g><g transform="matrix(1,0,0,1,0,77)"><text><tspan x="0" y="34.069999695" font-family="Century Gothic" font-weight="bold" font-style="normal" font-size="12" fill="#333333">SUMMARY</tspan></text></g><g transform="matrix(1,0,0,1,0,120.712997437)"><text><tspan x="0" y="13.578000069" font-family="Century Gothic" font-weight="normal" font-style="normal" font-size="11" fill="#787878">Highly organised and disciplined pharmacy leader with excellent communication and conflict </tspan><tspan x="0" y="29.577999115" font-family="Century Gothic" font-weight="normal" font-style="normal" font-size="11" fill="#787878">resolution skills. Competent in managing supplies, reviewing service quality, and maintaining </tspan><tspan x="0" y="45.577999115" font-family="Century Gothic" font-weight="normal" font-style="normal" font-size="11" fill="#787878">patient confidentiality and satisfaction. Skilled at ordering, storing, and preparing medications for </tspan><tspan x="0" y="61.577999115" font-family="Century Gothic" font-weight="normal" font-style="normal" font-size="11" fill="#787878">customer use. Accomplished in increasing customer satisfaction while improving controls, team </tspan><tspan x="0" y="77.57800293" font-family="Century Gothic" font-weight="normal" font-style="normal" font-size="11" fill="#787878">operations, and loss prevention strategies. Knowledgeable in preparing special compounds.</tspan></text></g><g transform="matrix(1,0,0,1,0,200.712997437)"><text><tspan x="0" y="34.069999695" font-family="Century Gothic" font-weight="bold" font-style="normal" font-size="12" fill="#333333">EXPERIENCE</tspan></text></g><g transform="matrix(1,0,0,1,0,244.425994873)"><text><tspan x="0" y="13.578000069" font-family="Century Gothic" font-weight="normal" font-style="normal" font-size="11" fill="#333333">Pharmacist, King Chemist, June 2017-Current </tspan></text></g><g transform="matrix(1,0,0,1,0,260.425994873)"><text><tspan x="0" y="13.578000069" font-family="Century Gothic" font-weight="normal" font-style="normal" font-size="11" fill="#333333">Birmingham </tspan></text></g><g transform="matrix(1,0,0,1,12.949999809,276.425994873)"><text><tspan x="-0.5" y="12.828000069" font-family="Times New Roman" font-weight="normal" font-style="normal" font-size="8.25" fill="#787878">●</tspan><tspan x="10.050000191" y="13.578000069" font-family="Century Gothic" font-weight="normal" font-style="normal" font-size="11" fill="#787878">Checked more than 30 patient orders against histories each day, assessed insurance </tspan><tspan x="10.050000191" y="29.577999115" font-family="Century Gothic" font-weight="normal" font-style="normal" font-size="11" fill="#787878">coverage and counted out medicines.</tspan></text></g><g transform="matrix(1,0,0,1,12.949999809,308.425994873)"><text><tspan x="-0.5" y="12.828000069" font-family="Times New Roman" font-weight="normal" font-style="normal" font-size="8.25" fill="#787878">●</tspan><tspan x="10.050000191" y="13.578000069" font-family="Century Gothic" font-weight="normal" font-style="normal" font-size="11" fill="#787878">Provided patient counselling regarding OTC medications.</tspan></text></g><g transform="matrix(1,0,0,1,12.949999809,324.425994873)"><text><tspan x="-0.5" y="12.828000069" font-family="Times New Roman" font-weight="normal" font-style="normal" font-size="8.25" fill="#787878">●</tspan><tspan x="10.050000191" y="13.578000069" font-family="Century Gothic" font-weight="normal" font-style="normal" font-size="11" fill="#787878">Managed weekly schedules and requests for leave.</tspan></text></g><g transform="matrix(1,0,0,1,0,340.425994873)"><text><tspan x="0" y="23.577999115" font-family="Century Gothic" font-weight="normal" font-style="normal" font-size="11" fill="#333333">Pharmacist, L Pharma, February 2013-May 2017 </tspan></text></g><g transform="matrix(1,0,0,1,0,366.425994873)"><text><tspan x="0" y="13.578000069" font-family="Century Gothic" font-weight="normal" font-style="normal" font-size="11" fill="#333333">Birmingham </tspan></text></g><g transform="matrix(1,0,0,1,12.949999809,382.425994873)"><text><tspan x="-0.5" y="12.828000069" font-family="Times New Roman" font-weight="normal" font-style="normal" font-size="8.25" fill="#787878">●</tspan><tspan x="10.050000191" y="13.578000069" font-family="Century Gothic" font-weight="normal" font-style="normal" font-size="11" fill="#787878">Used pharmacy software Meditab to verify prescription and insurance information.</tspan></text></g><g transform="matrix(1,0,0,1,12.949999809,398.425994873)"><text><tspan x="-0.5" y="12.828000069" font-family="Times New Roman" font-weight="normal" font-style="normal" font-size="8.25" fill="#787878">●</tspan><tspan x="10.050000191" y="13.578000069" font-family="Century Gothic" font-weight="normal" font-style="normal" font-size="11" fill="#787878">Compounded and prepared medications according to prescription orders for more than 160 </tspan><tspan x="10.050000191" y="29.577999115" font-family="Century Gothic" font-weight="normal" font-style="normal" font-size="11" fill="#787878">prescriptions every week.</tspan></text></g><g transform="matrix(1,0,0,1,12.949999809,430.425994873)"><text><tspan x="-0.5" y="12.828000069" font-family="Times New Roman" font-weight="normal" font-style="normal" font-size="8.25" fill="#787878">●</tspan><tspan x="10.050000191" y="13.578000069" font-family="Century Gothic" font-weight="normal" font-style="normal" font-size="11" fill="#787878">Solicited medical history information from patients to provide best and most effective medical </tspan><tspan x="10.050000191" y="29.577999115" font-family="Century Gothic" font-weight="normal" font-style="normal" font-size="11" fill="#787878">advice.</tspan></text></g><g transform="matrix(1,0,0,1,0,462.425994873)"><text><tspan x="0" y="34.069999695" font-family="Century Gothic" font-weight="bold" font-style="normal" font-size="12" fill="#333333">SKILLS</tspan></text></g><g transform="matrix(1,0,0,1,0,506.139007568)"><g transform="matrix(1,0,0,1,0,0)" clip-path="url(#clip1)"><g transform="matrix(1,0,0,1,13.199999809,0.25)"><text><tspan x="-0.5" y="12.828000069" font-family="Times New Roman" font-weight="normal" font-style="normal" font-size="8.25" fill="#787878">●</tspan><tspan x="10.050000191" y="13.578000069" font-family="Century Gothic" font-weight="normal" font-style="normal" font-size="11" fill="#787878">Interpreting orders</tspan></text></g><g transform="matrix(1,0,0,1,13.199999809,16.25)"><text><tspan x="-0.5" y="12.828000069" font-family="Times New Roman" font-weight="normal" font-style="normal" font-size="8.25" fill="#787878">●</tspan><tspan x="10.050000191" y="13.578000069" font-family="Century Gothic" font-weight="normal" font-style="normal" font-size="11" fill="#787878">Dosing recommendations</tspan></text></g><g transform="matrix(1,0,0,1,13.199999809,32.25)"><text><tspan x="-0.5" y="12.828000069" font-family="Times New Roman" font-weight="normal" font-style="normal" font-size="8.25" fill="#787878">●</tspan><tspan x="10.050000191" y="13.578000069" font-family="Century Gothic" font-weight="normal" font-style="normal" font-size="11" fill="#787878">Compounding abilities</tspan></text></g><g transform="matrix(1,0,0,1,13.199999809,48.25)"><text><tspan x="-0.5" y="12.828000069" font-family="Times New Roman" font-weight="normal" font-style="normal" font-size="8.25" fill="#787878">●</tspan><tspan x="10.050000191" y="13.578000069" font-family="Century Gothic" font-weight="normal" font-style="normal" font-size="11" fill="#787878">Employee training</tspan></text></g><g transform="matrix(1,0,0,1,13.199999809,64.25)"><text><tspan x="-0.5" y="12.828000069" font-family="Times New Roman" font-weight="normal" font-style="normal" font-size="8.25" fill="#787878">●</tspan><tspan x="10.050000191" y="13.578000069" font-family="Century Gothic" font-weight="normal" font-style="normal" font-size="11" fill="#787878">Dispensing medicines</tspan></text></g></g><g transform="matrix(1,0,0,1,263.899993896,0)" clip-path="url(#clip2)"><g transform="matrix(1,0,0,1,13.199999809,0.25)"><text><tspan x="-0.5" y="12.828000069" font-family="Times New Roman" font-weight="normal" font-style="normal" font-size="8.25" fill="#787878">●</tspan><tspan x="10.050000191" y="13.578000069" font-family="Century Gothic" font-weight="normal" font-style="normal" font-size="11" fill="#787878">Customer relations</tspan></text></g><g transform="matrix(1,0,0,1,13.199999809,16.25)"><text><tspan x="-0.5" y="12.828000069" font-family="Times New Roman" font-weight="normal" font-style="normal" font-size="8.25" fill="#787878">●</tspan><tspan x="10.050000191" y="13.578000069" font-family="Century Gothic" font-weight="normal" font-style="normal" font-size="11" fill="#787878">Resolving complaints</tspan></text></g><g transform="matrix(1,0,0,1,13.199999809,32.25)"><text><tspan x="-0.5" y="12.828000069" font-family="Times New Roman" font-weight="normal" font-style="normal" font-size="8.25" fill="#787878">●</tspan><tspan x="10.050000191" y="13.578000069" font-family="Century Gothic" font-weight="normal" font-style="normal" font-size="11" fill="#787878">Sales skills</tspan></text></g><g transform="matrix(1,0,0,1,13.199999809,48.25)"><text><tspan x="-0.5" y="12.828000069" font-family="Times New Roman" font-weight="normal" font-style="normal" font-size="8.25" fill="#787878">●</tspan><tspan x="10.050000191" y="13.578000069" font-family="Century Gothic" font-weight="normal" font-style="normal" font-size="11" fill="#787878">Patient education</tspan></text></g></g></g><g transform="matrix(1,0,0,1,0,586.638977051)"><text><tspan x="0" y="34.069999695" font-family="Century Gothic" font-weight="bold" font-style="normal" font-size="12" fill="#333333">EDUCATION</tspan></text></g><g transform="matrix(1,0,0,1,0,630.351989746)"><text><tspan x="0" y="13.578000069" font-family="Century Gothic" font-weight="normal" font-style="normal" font-size="11" fill="#333333">Masters degree in pharmacy </tspan></text></g><g transform="matrix(1,0,0,1,0,646.351989746)"><text><tspan x="0" y="13.578000069" font-family="Century Gothic" font-weight="normal" font-style="normal" font-size="11" fill="#333333">Birmingham University, Birmingham 2010</tspan></text></g></g></g></g></svg>