<?xml version="1.0" encoding="utf-8" standalone="yes"?>
<svg xmlns="http://www.w3.org/2000/svg" xmlns:xlink="http://www.w3.org/1999/xlink" version="1.1" width="100%" height="100%" viewBox="0 0 794 1123">
	<!-- Generated by Aspose.Words for .NET 18.5 -->
	<defs>
		<clipPath id="clip1">
			<path d="M0,0 L595.299987793,0 L595.299987793,0.096000001 L0,0.096000001 Z" clip-rule="evenodd">
			</path>
		</clipPath>
		<clipPath id="clip2">
			<path d="M0,0 L595.299987793,0 L595.299987793,0.096000001 L0,0.096000001 Z" clip-rule="evenodd">
			</path>
		</clipPath>
		<clipPath id="clip3">
			<path d="M-1,24 L596.299987793,24 L596.299987793,90.379997253 L-1,90.379997253 Z" clip-rule="evenodd">
			</path>
		</clipPath>
		<clipPath id="clip4">
			<path d="M-1,0 L596.299987793,0 L596.299987793,23.569999695 L-1,23.569999695 Z" clip-rule="evenodd">
			</path>
		</clipPath>
		<clipPath id="clip5">
			<path d="M-1,-1 L336.700012207,-1 L336.700012207,465.161987305 L-1,465.161987305 Z" clip-rule="evenodd">
			</path>
		</clipPath>
		<clipPath id="clip6">
			<path d="M-1,-1 L163.600006104,-1 L163.600006104,46.066001892 L-1,46.066001892 Z" clip-rule="evenodd">
			</path>
		</clipPath>
		<clipPath id="clip7">
			<path d="M-1,-1 L179.600006104,-1 L179.600006104,465.161987305 L-1,465.161987305 Z" clip-rule="evenodd">
			</path>
		</clipPath>
		<clipPath id="clip8">
			<path d="M-1,-1 L163.600006104,-1 L163.600006104,50.066001892 L-1,50.066001892 Z" clip-rule="evenodd">
			</path>
		</clipPath>
		<clipPath id="clip9">
			<path d="M-1,-1 L179.600006104,-1 L179.600006104,465.161987305 L-1,465.161987305 Z" clip-rule="evenodd">
			</path>
		</clipPath>
		<style type="text/css">
			@import url('https://fonts.googleapis.com/css2?family=Source+Sans+Pro:wght@400;700');@import url('https://fonts.googleapis.com/css2?family=Montserrat:wght@700');svg{background:white}
		</style>
	</defs>
	<g transform="scale(1.33333)">
		<g transform="translate(0.100006104,0)">
			<path d="M0,0 L600,0 L600,450 L0,450 Z" fill="#ffffff" fill-rule="evenodd">
			</path>
			<g transform="matrix(1,0,0,1,0,450)">
				<path d="M0,0 L600,0 L600,450 L0,450 Z" fill="#ffffff" fill-rule="evenodd">
				</path>
			</g>
			<g transform="matrix(1,0,0,1,0,0)" clip-path="url(#clip1)">
				<text>
					<tspan x="0" y="0.077" font-family="Times New Roman" font-weight="normal" font-style="normal" font-size="1" fill="#ffffff">
						.
					</tspan>
				</text>
			</g>
			<g transform="matrix(1,0,0,1,0,841.804016113)" clip-path="url(#clip2)">
				<text>
					<tspan x="0" y="0.077" font-family="Times New Roman" font-weight="normal" font-style="normal" font-size="1" fill="#ffffff">
						.
					</tspan>
				</text>
			</g>
			<g transform="matrix(1,0,0,1,0,0.096000001)">
				<g transform="matrix(1,0,0,1,0,0)" clip-path="url(#clip3)">
					<g transform="matrix(1,0,0,1,55,45)">
						<text>
							<tspan x="166.529998779" y="19.36000061" font-family="Montserrat" font-weight="bold" font-style="normal" font-size="20" fill="#404040">
								Lily French
							</tspan>
						</text>
					</g>
				</g>
				<g transform="matrix(1,0,0,1,0,89.379997253)">
					<g transform="matrix(1,0,0,1,0,0)" clip-path="url(#clip4)">
						<g transform="matrix(1,0,0,1,40,1.5)">
							<text>
								<tspan x="120.155000687" y="13.840000153" font-family="Source Sans Pro" font-weight="normal" font-style="normal" font-size="10" fill="#404040">
									 Bradford, BD1 6YU      •     07941 234 567      •     lily.french@example.co.uk
								</tspan>
							</text>
						</g>
					</g>
				</g>
				<path d="M0,12.5 L595.299987793,12.5 " stroke-width="25" stroke-miterlimit="10" stroke="#404040" fill="none" fill-rule="evenodd">
				</path>
				<path d="M0,89.879997253 L595.299987793,89.879997253 " stroke-width="1" stroke-miterlimit="10" stroke="#404040" fill="none" fill-rule="evenodd">
				</path>
				<path d="M0,112.449996948 L595.299987793,112.449996948 " stroke-width="1" stroke-miterlimit="10" stroke="#404040" fill="none" fill-rule="evenodd">
				</path>
				<g transform="matrix(1,0,0,1,0,112.949996948)">
					<text>
						<tspan x="0" y="0" font-family="Times New Roman" font-weight="normal" font-style="normal" font-size="1" fill="#ffffff">
							.
						</tspan>
					</text>
				</g>
			</g>
			<g transform="matrix(1,0,0,1,35,113.04599762)">
				<g transform="matrix(1,0,0,1,0,0)" clip-path="url(#clip5)">
					<text>
						<tspan x="0" y="33.551998138" font-family="Montserrat" font-weight="bold" font-style="normal" font-size="14" fill="#404040">
							SUMMARY
						</tspan>
					</text>
					<g transform="matrix(1,0,0,1,0,43.066001892)">
						<text>
							<tspan x="0" y="9.840000153" font-family="Source Sans Pro" font-weight="normal" font-style="normal" font-size="10" fill="#404040">
								Highly organised and disciplined pharmacy leader with excellent
							</tspan>
							<tspan x="0" y="22.409999847" font-family="Source Sans Pro" font-weight="normal" font-style="normal" font-size="10" fill="#404040">
								communication and conflict resolution skills. Competent in managing
							</tspan>
							<tspan x="0" y="34.979999542" font-family="Source Sans Pro" font-weight="normal" font-style="normal" font-size="10" fill="#404040">
								supplies, reviewing service quality, and maintaining patient
							</tspan>
							<tspan x="0" y="47.549999237" font-family="Source Sans Pro" font-weight="normal" font-style="normal" font-size="10" fill="#404040">
								confidentiality and satisfaction. Skilled at ordering, storing, and
							</tspan>
							<tspan x="0" y="60.119998932" font-family="Source Sans Pro" font-weight="normal" font-style="normal" font-size="10" fill="#404040">
								preparing medications for customer use. Accomplished in increasing
							</tspan>
							<tspan x="0" y="72.690002441" font-family="Source Sans Pro" font-weight="normal" font-style="normal" font-size="10" fill="#404040">
								customer satisfaction while improving controls, team operations, and
							</tspan>
							<tspan x="0" y="85.259994507" font-family="Source Sans Pro" font-weight="normal" font-style="normal" font-size="10" fill="#404040">
								loss prevention strategies. Knowledgeable in preparing special
							</tspan>
							<tspan x="0" y="97.830001831" font-family="Source Sans Pro" font-weight="normal" font-style="normal" font-size="10" fill="#404040">
								compounds.
							</tspan>
						</text>
					</g>
					<g transform="matrix(1,0,0,1,0,143.62600708)">
						<text>
							<tspan x="0" y="37.551998138" font-family="Montserrat" font-weight="bold" font-style="normal" font-size="14" fill="#404040">
								EXPERIENCE
							</tspan>
						</text>
					</g>
					<g transform="matrix(1,0,0,1,0,190.692001343)">
						<text>
							<tspan x="0" y="9.840000153" font-family="Source Sans Pro" font-weight="bold" font-style="normal" font-size="10" fill="#404040">
								Pharmacist
							</tspan>
							<tspan x="50.680000305" y="9.840000153" font-family="Source Sans Pro" font-weight="normal" font-style="normal" font-size="10" fill="#404040">
								, 06/2017 to Current
							</tspan>
						</text>
					</g>
					<g transform="matrix(1,0,0,1,0,203.261993408)">
						<text>
							<tspan x="0" y="9.840000153" font-family="Source Sans Pro" font-weight="bold" font-style="normal" font-size="10" fill="#404040">
								King Chemist
							</tspan>
							<tspan x="58.310001373" y="9.840000153" font-family="Source Sans Pro" font-weight="normal" font-style="normal" font-size="10" fill="#404040">
								- Birmingham
							</tspan>
						</text>
					</g>
					<g transform="matrix(1,0,0,1,1.399999976,218.832000732)">
						<text>
							<tspan x="-0.5" y="9.303999901" font-family="Times New Roman" font-weight="normal" font-style="normal" font-size="7.5" fill="#404040">
								●
							</tspan>
							<tspan x="9.600000381" y="10.053999901" font-family="Source Sans Pro" font-weight="normal" font-style="normal" font-size="10" fill="#404040">
								Checked more than 30 patient orders against histories each day,
							</tspan>
							<tspan x="9.600000381" y="22.624000549" font-family="Source Sans Pro" font-weight="normal" font-style="normal" font-size="10" fill="#404040">
								assessed insurance coverage and counted out medicines.
							</tspan>
						</text>
					</g>
					<g transform="matrix(1,0,0,1,1.399999976,244.186004639)">
						<text>
							<tspan x="-0.5" y="9.303999901" font-family="Times New Roman" font-weight="normal" font-style="normal" font-size="7.5" fill="#404040">
								●
							</tspan>
							<tspan x="9.600000381" y="10.053999901" font-family="Source Sans Pro" font-weight="normal" font-style="normal" font-size="10" fill="#404040">
								Provided patient counselling regarding OTC medications.
							</tspan>
						</text>
					</g>
					<g transform="matrix(1,0,0,1,1.399999976,256.970001221)">
						<text>
							<tspan x="-0.5" y="9.303999901" font-family="Times New Roman" font-weight="normal" font-style="normal" font-size="7.5" fill="#404040">
								●
							</tspan>
							<tspan x="9.600000381" y="10.053999901" font-family="Source Sans Pro" font-weight="normal" font-style="normal" font-size="10" fill="#404040">
								Managed weekly schedules and requests for leave.
							</tspan>
						</text>
					</g>
					<g transform="matrix(1,0,0,1,0,269.753997803)">
						<text>
							<tspan x="0" y="19.840000153" font-family="Source Sans Pro" font-weight="bold" font-style="normal" font-size="10" fill="#404040">
								Pharmacist
							</tspan>
							<tspan x="50.680000305" y="19.840000153" font-family="Source Sans Pro" font-weight="normal" font-style="normal" font-size="10" fill="#404040">
								, 02/2013 to 05/2017
							</tspan>
						</text>
					</g>
					<g transform="matrix(1,0,0,1,0,292.324005127)">
						<text>
							<tspan x="0" y="9.840000153" font-family="Source Sans Pro" font-weight="bold" font-style="normal" font-size="10" fill="#404040">
								L Pharma
							</tspan>
							<tspan x="42.229999542" y="9.840000153" font-family="Source Sans Pro" font-weight="normal" font-style="normal" font-size="10" fill="#404040">
								- Birmingham
							</tspan>
						</text>
					</g>
					<g transform="matrix(1,0,0,1,1.399999976,307.894012451)">
						<text>
							<tspan x="-0.5" y="9.303999901" font-family="Times New Roman" font-weight="normal" font-style="normal" font-size="7.5" fill="#404040">
								●
							</tspan>
							<tspan x="9.600000381" y="10.053999901" font-family="Source Sans Pro" font-weight="normal" font-style="normal" font-size="10" fill="#404040">
								Used pharmacy software Meditab to verify prescription and insurance
							</tspan>
							<tspan x="9.600000381" y="22.624000549" font-family="Source Sans Pro" font-weight="normal" font-style="normal" font-size="10" fill="#404040">
								information.
							</tspan>
						</text>
					</g>
					<g transform="matrix(1,0,0,1,1.399999976,333.24798584)">
						<text>
							<tspan x="-0.5" y="9.303999901" font-family="Times New Roman" font-weight="normal" font-style="normal" font-size="7.5" fill="#404040">
								●
							</tspan>
							<tspan x="9.600000381" y="10.053999901" font-family="Source Sans Pro" font-weight="normal" font-style="normal" font-size="10" fill="#404040">
								Compounded and prepared medications according to prescription
							</tspan>
							<tspan x="9.600000381" y="22.624000549" font-family="Source Sans Pro" font-weight="normal" font-style="normal" font-size="10" fill="#404040">
								orders for more than 160 prescriptions every week.
							</tspan>
						</text>
					</g>
					<g transform="matrix(1,0,0,1,1.399999976,358.601989746)">
						<text>
							<tspan x="-0.5" y="9.303999901" font-family="Times New Roman" font-weight="normal" font-style="normal" font-size="7.5" fill="#404040">
								●
							</tspan>
							<tspan x="9.600000381" y="10.053999901" font-family="Source Sans Pro" font-weight="normal" font-style="normal" font-size="10" fill="#404040">
								Solicited medical history information from patients to provide best
							</tspan>
							<tspan x="9.600000381" y="22.624000549" font-family="Source Sans Pro" font-weight="normal" font-style="normal" font-size="10" fill="#404040">
								and most effective medical advice.
							</tspan>
						</text>
					</g>
					<g transform="matrix(1,0,0,1,0,383.955993652)">
						<text>
							<tspan x="0" y="37.551998138" font-family="Montserrat" font-weight="bold" font-style="normal" font-size="14" fill="#404040">
								ADDITIONAL INFORMATION
							</tspan>
						</text>
					</g>
					<g transform="matrix(1,0,0,1,0,431.022003174)">
						<text>
							<tspan x="0" y="9.840000153" font-family="Source Sans Pro" font-weight="normal" font-style="normal" font-size="10" fill="#404040">
								Registered at General Pharmaceutical Council.
							</tspan>
						</text>
					</g>
				</g>
				<g transform="matrix(1,0,0,1,352.200012207,0)">
					<g transform="matrix(1,0,0,1,0,0)" clip-path="url(#clip6)">
						<g transform="matrix(1,0,0,1,0,20)">
							<text>
								<tspan x="0" y="13.552000046" font-family="Montserrat" font-weight="bold" font-style="normal" font-size="14" fill="#404040">
									SKILLS
								</tspan>
							</text>
						</g>
					</g>
				</g>
				<g transform="matrix(1,0,0,1,336.200012207,0)" clip-path="url(#clip7)">
					<g transform="matrix(1,0,0,1,17.399999619,45.066001892)">
						<text>
							<tspan x="-0.5" y="9.303999901" font-family="Times New Roman" font-weight="normal" font-style="normal" font-size="7.5" fill="#404040">
								●
							</tspan>
							<tspan x="9.600000381" y="10.053999901" font-family="Source Sans Pro" font-weight="normal" font-style="normal" font-size="10" fill="#404040">
								Interpreting orders
							</tspan>
						</text>
					</g>
					<g transform="matrix(1,0,0,1,17.399999619,57.849998474)">
						<text>
							<tspan x="-0.5" y="9.303999901" font-family="Times New Roman" font-weight="normal" font-style="normal" font-size="7.5" fill="#404040">
								●
							</tspan>
							<tspan x="9.600000381" y="10.053999901" font-family="Source Sans Pro" font-weight="normal" font-style="normal" font-size="10" fill="#404040">
								Dosing recommendations
							</tspan>
						</text>
					</g>
					<g transform="matrix(1,0,0,1,17.399999619,70.634002686)">
						<text>
							<tspan x="-0.5" y="9.303999901" font-family="Times New Roman" font-weight="normal" font-style="normal" font-size="7.5" fill="#404040">
								●
							</tspan>
							<tspan x="9.600000381" y="10.053999901" font-family="Source Sans Pro" font-weight="normal" font-style="normal" font-size="10" fill="#404040">
								Compounding abilities
							</tspan>
						</text>
					</g>
					<g transform="matrix(1,0,0,1,17.399999619,83.417999268)">
						<text>
							<tspan x="-0.5" y="9.303999901" font-family="Times New Roman" font-weight="normal" font-style="normal" font-size="7.5" fill="#404040">
								●
							</tspan>
							<tspan x="9.600000381" y="10.053999901" font-family="Source Sans Pro" font-weight="normal" font-style="normal" font-size="10" fill="#404040">
								Employee training
							</tspan>
						</text>
					</g>
					<g transform="matrix(1,0,0,1,17.399999619,96.202003479)">
						<text>
							<tspan x="-0.5" y="9.303999901" font-family="Times New Roman" font-weight="normal" font-style="normal" font-size="7.5" fill="#404040">
								●
							</tspan>
							<tspan x="9.600000381" y="10.053999901" font-family="Source Sans Pro" font-weight="normal" font-style="normal" font-size="10" fill="#404040">
								Dispensing medicines
							</tspan>
						</text>
					</g>
					<g transform="matrix(1,0,0,1,17.399999619,108.986000061)">
						<text>
							<tspan x="-0.5" y="9.303999901" font-family="Times New Roman" font-weight="normal" font-style="normal" font-size="7.5" fill="#404040">
								●
							</tspan>
							<tspan x="9.600000381" y="10.053999901" font-family="Source Sans Pro" font-weight="normal" font-style="normal" font-size="10" fill="#404040">
								Customer relations
							</tspan>
						</text>
					</g>
					<g transform="matrix(1,0,0,1,17.399999619,121.769996643)">
						<text>
							<tspan x="-0.5" y="9.303999901" font-family="Times New Roman" font-weight="normal" font-style="normal" font-size="7.5" fill="#404040">
								●
							</tspan>
							<tspan x="9.600000381" y="10.053999901" font-family="Source Sans Pro" font-weight="normal" font-style="normal" font-size="10" fill="#404040">
								Resolving complaints
							</tspan>
						</text>
					</g>
					<g transform="matrix(1,0,0,1,17.399999619,134.554000854)">
						<text>
							<tspan x="-0.5" y="9.303999901" font-family="Times New Roman" font-weight="normal" font-style="normal" font-size="7.5" fill="#404040">
								●
							</tspan>
							<tspan x="9.600000381" y="10.053999901" font-family="Source Sans Pro" font-weight="normal" font-style="normal" font-size="10" fill="#404040">
								Sales skills
							</tspan>
						</text>
					</g>
					<g transform="matrix(1,0,0,1,17.399999619,147.337997437)">
						<text>
							<tspan x="-0.5" y="9.303999901" font-family="Times New Roman" font-weight="normal" font-style="normal" font-size="7.5" fill="#404040">
								●
							</tspan>
							<tspan x="9.600000381" y="10.053999901" font-family="Source Sans Pro" font-weight="normal" font-style="normal" font-size="10" fill="#404040">
								Patient education
							</tspan>
						</text>
					</g>
				</g>
				<g transform="matrix(1,0,0,1,352.200012207,160.121994019)">
					<g transform="matrix(1,0,0,1,0,0)" clip-path="url(#clip8)">
						<g transform="matrix(1,0,0,1,0,24)">
							<text>
								<tspan x="0" y="13.552000046" font-family="Montserrat" font-weight="bold" font-style="normal" font-size="14" fill="#404040">
									EDUCATION
								</tspan>
							</text>
						</g>
					</g>
				</g>
				<g transform="matrix(1,0,0,1,336.200012207,0)" clip-path="url(#clip9)">
					<g transform="matrix(1,0,0,1,16,209.18800354)">
						<text>
							<tspan x="0" y="9.840000153" font-family="Source Sans Pro" font-weight="bold" font-style="normal" font-size="10" fill="#404040">
								Masters degree in pharmacy
							</tspan>
							<tspan x="124.660003662" y="9.840000153" font-family="Source Sans Pro" font-weight="normal" font-style="normal" font-size="10" fill="#404040">
								,
							</tspan>
							<tspan x="0" y="22.409999847" font-family="Source Sans Pro" font-weight="normal" font-style="normal" font-size="10" fill="#404040">
								2010
							</tspan>
						</text>
					</g>
					<g transform="matrix(1,0,0,1,16,234.32800293)">
						<text>
							<tspan x="0" y="9.840000153" font-family="Source Sans Pro" font-weight="bold" font-style="normal" font-size="10" fill="#404040">
								Birmingham University
							</tspan>
							<tspan x="102.599998474" y="9.840000153" font-family="Source Sans Pro" font-weight="normal" font-style="normal" font-size="10" fill="#404040">
								-
							</tspan>
							<tspan x="0" y="22.409999847" font-family="Source Sans Pro" font-weight="normal" font-style="normal" font-size="10" fill="#404040">
								Birmingham
							</tspan>
						</text>
					</g>
				</g>
				<path d="M336.200012207,0 L336.200012207,464.161987305 " stroke-width="1" stroke-miterlimit="10" stroke="#404040" fill="none" fill-rule="evenodd">
				</path>
			</g>
			<g transform="matrix(1,0,0,1,368.200012207,140.046005249)">
				<path d="M5,2.5 C5,3.871459484 3.871459484,5 2.5,5 L2.5,5 C1.128540635,5 0,3.871459484 0,2.5 L0,2.5 C0,1.128540635 1.128540635,0 2.5,0 L2.5,0 C3.871459484,0 5,1.128540635 5,2.5 Z" fill="#404040" fill-rule="evenodd">
				</path>
				<path d="M5,2.5 C5,3.871459484 3.871459484,5 2.5,5 L2.5,5 C1.128540635,5 0,3.871459484 0,2.5 L0,2.5 C0,1.128540635 1.128540635,0 2.5,0 L2.5,0 C3.871459484,0 5,1.128540635 5,2.5 Z" stroke-width="0.75" stroke-miterlimit="10" stroke="#404040" fill="none" fill-rule="evenodd">
				</path>
			</g>
			<g transform="matrix(1,0,0,1,368.200012207,304.167999268)">
				<path d="M5,2.5 C5,3.871459484 3.871459484,5 2.5,5 L2.5,5 C1.128540635,5 0,3.871459484 0,2.5 L0,2.5 C0,1.128540635 1.128540635,0 2.5,0 L2.5,0 C3.871459484,0 5,1.128540635 5,2.5 Z" fill="#404040" fill-rule="evenodd">
				</path>
				<path d="M5,2.5 C5,3.871459484 3.871459484,5 2.5,5 L2.5,5 C1.128540635,5 0,3.871459484 0,2.5 L0,2.5 C0,1.128540635 1.128540635,0 2.5,0 L2.5,0 C3.871459484,0 5,1.128540635 5,2.5 Z" stroke-width="0.75" stroke-miterlimit="10" stroke="#404040" fill="none" fill-rule="evenodd">
				</path>
			</g>
		</g>
	</g>
</svg>
