<?xml version="1.0" encoding="utf-8" standalone="yes"?>
<svg xmlns="http://www.w3.org/2000/svg" xmlns:xlink="http://www.w3.org/1999/xlink" version="1.1" width="100%" height="100%" viewBox="0 0 816 1056">
	<!-- Generated by Aspose.Words for .NET 18.5 -->
	<defs>
		<clipPath id="clip1">
			<path d="M0,0 L612,0 L612,0.096000001 L0,0.096000001 Z" clip-rule="evenodd">
			</path>
		</clipPath>
		<clipPath id="clip10">
			<path d="M-1,-1 L145.850006104,-1 L145.850006104,72.861999512 L-1,72.861999512 Z" clip-rule="evenodd">
			</path>
		</clipPath>
		<clipPath id="clip11">
			<path d="M-1,-1 L145.850006104,-1 L145.850006104,72.861999512 L-1,72.861999512 Z" clip-rule="evenodd">
			</path>
		</clipPath>
		<clipPath id="clip12">
			<path d="M-1,-1 L118,-1 L118,37.5 L-1,37.5 Z" clip-rule="evenodd">
			</path>
		</clipPath>
		<clipPath id="clip13">
			<path d="M-1,-1 L436,-1 L436,37.5 L-1,37.5 Z" clip-rule="evenodd">
			</path>
		</clipPath>
		<clipPath id="clip14">
			<path d="M-1,-1 L118,-1 L118,33.880001068 L-1,33.880001068 Z" clip-rule="evenodd">
			</path>
		</clipPath>
		<clipPath id="clip15">
			<path d="M-1,-1 L436,-1 L436,33.880001068 L-1,33.880001068 Z" clip-rule="evenodd">
			</path>
		</clipPath>
		<clipPath id="clip2">
			<path d="M0,0 L612,0 L612,0.096000001 L0,0.096000001 Z" clip-rule="evenodd">
			</path>
		</clipPath>
		<clipPath id="clip3">
			<path d="M-1,-1 L613,-1 L613,55.979999542 L-1,55.979999542 Z" clip-rule="evenodd">
			</path>
		</clipPath>
		<clipPath id="clip4">
			<path d="M-1,-1 L118,-1 L118,93.5 L-1,93.5 Z" clip-rule="evenodd">
			</path>
		</clipPath>
		<clipPath id="clip5">
			<path d="M-1,-1 L436,-1 L436,93.5 L-1,93.5 Z" clip-rule="evenodd">
			</path>
		</clipPath>
		<clipPath id="clip6">
			<path d="M-1,-1 L118,-1 L118,216.5 L-1,216.5 Z" clip-rule="evenodd">
			</path>
		</clipPath>
		<clipPath id="clip7">
			<path d="M-1,-1 L436,-1 L436,216.5 L-1,216.5 Z" clip-rule="evenodd">
			</path>
		</clipPath>
		<clipPath id="clip8">
			<path d="M-1,-1 L118,-1 L118,81.361999512 L-1,81.361999512 Z" clip-rule="evenodd">
			</path>
		</clipPath>
		<clipPath id="clip9">
			<path d="M-1,-1 L145.800003052,-1 L145.800003052,72.861999512 L-1,72.861999512 Z" clip-rule="evenodd">
			</path>
		</clipPath>
		<style type="text/css">
			@import url('https://fonts.googleapis.com/css2?family=Open+Sans:wght@400;700');@import url('https://fonts.googleapis.com/css2?family=Montserrat:wght@400;600');svg{background:white}
		</style>
	</defs>
	<g transform="scale(1.33333)">
		<g>
			<path d="M0,0 L600,0 L600,450 L0,450 Z" fill="#ffffff" fill-rule="evenodd">
			</path>
			<g transform="matrix(1,0,0,1,600,0)">
				<path d="M0,0 L600,0 L600,450 L0,450 Z" fill="#ffffff" fill-rule="evenodd">
				</path>
			</g>
			<g transform="matrix(1,0,0,1,0,450)">
				<path d="M0,0 L600,0 L600,450 L0,450 Z" fill="#ffffff" fill-rule="evenodd">
				</path>
			</g>
			<g transform="matrix(1,0,0,1,600,450)">
				<path d="M0,0 L600,0 L600,450 L0,450 Z" fill="#ffffff" fill-rule="evenodd">
				</path>
			</g>
			<g transform="matrix(1,0,0,1,0,0)" clip-path="url(#clip1)">
				<text>
					<tspan x="0" y="0.077" font-family="Times New Roman" font-weight="normal" font-style="normal" font-size="1" fill="#ffffff">
						.
					</tspan>
				</text>
			</g>
			<g transform="matrix(1,0,0,1,0,791.903991699)" clip-path="url(#clip2)">
				<text>
					<tspan x="0" y="0.077" font-family="Times New Roman" font-weight="normal" font-style="normal" font-size="1" fill="#ffffff">
						.
					</tspan>
				</text>
			</g>
			<g transform="matrix(1,0,0,1,0,0.096000001)">
				<path d="M0,0 L612,0 L612,54.979999542 L0,54.979999542 Z" fill="#cee1ec" fill-rule="evenodd">
				</path>
				<g transform="matrix(1,0,0,1,0,0)" clip-path="url(#clip3)">
					<g transform="matrix(1,0,0,1,30,30)">
						<text>
							<tspan x="100.354000092" y="10.687999725" font-family="Open Sans" font-weight="normal" font-style="normal" font-size="10" fill="#000000">
								 Bradford, BD1 6YU
							</tspan>
							<tspan x="202.570007324" y="10.687999725" font-family="Open Sans" font-weight="bold" font-style="normal" font-size="10" fill="#0c6ba1">
								|
							</tspan>
							<tspan x="220.871994019" y="10.687999725" font-family="Open Sans" font-weight="normal" font-style="normal" font-size="10" fill="#000000">
								07941 234 567
							</tspan>
							<tspan x="310.160003662" y="10.687999725" font-family="Open Sans" font-weight="bold" font-style="normal" font-size="10" fill="#0c6ba1">
								|
							</tspan>
							<tspan x="323.462005615" y="10.687999725" font-family="Open Sans" font-weight="normal" font-style="normal" font-size="10" fill="#000000">
								lily.french@example.co.uk
							</tspan>
						</text>
					</g>
				</g>
				<path d="M0,55.479999542 L612,55.479999542 " stroke-width="1" stroke-miterlimit="10" stroke="#0c6ba1" fill="none" fill-rule="evenodd">
				</path>
				<g transform="matrix(1,0,0,1,0,55.979999542)">
					<text>
						<tspan x="0" y="0" font-family="Times New Roman" font-weight="normal" font-style="normal" font-size="1" fill="#ffffff">
							.
						</tspan>
					</text>
				</g>
			</g>
			<g transform="matrix(1,0,0,1,30,56.076000214)">
				<g transform="matrix(1,0,0,1,117,0)">
					<text>
						<tspan x="0" y="48.97600174" font-family="Montserrat" font-weight="normal" font-style="normal" font-size="24" fill="#000000">
							Lily French
						</tspan>
					</text>
				</g>
				<g transform="matrix(1,0,0,1,0.600000024,85)">
					<path d="M0,-1 L110,-1 L110,4 L0,4 Z" fill="#cee1ec" fill-rule="evenodd">
					</path>
					<path d="M0,4.5 L547,4.5 " stroke-width="1" stroke-miterlimit="10" stroke="#0c6ba1" fill="none" fill-rule="evenodd">
					</path>
				</g>
				<g transform="matrix(1,0,0,1,0,90)">
					<g transform="matrix(1,0,0,1,0,0)" clip-path="url(#clip4)">
						<g transform="matrix(1,0,0,1,0.25,8.25)">
							<text>
								<tspan x="0" y="9.680000305" font-family="Montserrat" font-weight="bold" font-style="normal" font-size="10" fill="#000000">
									SUMMARY
								</tspan>
							</text>
						</g>
					</g>
					<g transform="matrix(1,0,0,1,117,0)" clip-path="url(#clip5)">
						<g transform="matrix(1,0,0,1,0.25,8.25)">
							<text>
								<tspan x="0" y="11.069999695" font-family="Open Sans" font-weight="normal" font-style="normal" font-size="10" fill="#020303">
									Highly organised and disciplined pharmacy leader with excellent communication and
								</tspan>
								<tspan x="0" y="25.069999695" font-family="Open Sans" font-weight="normal" font-style="normal" font-size="10" fill="#020303">
									conflict resolution skills. Competent in managing supplies, reviewing service quality, and
								</tspan>
								<tspan x="0" y="39.069999695" font-family="Open Sans" font-weight="normal" font-style="normal" font-size="10" fill="#020303">
									maintaining patient confidentiality and satisfaction. Skilled at ordering, storing, and
								</tspan>
								<tspan x="0" y="53.069999695" font-family="Open Sans" font-weight="normal" font-style="normal" font-size="10" fill="#020303">
									preparing medications for customer use. Accomplished in increasing customer satisfaction
								</tspan>
								<tspan x="0" y="67.069999695" font-family="Open Sans" font-weight="normal" font-style="normal" font-size="10" fill="#020303">
									while improving controls, team operations, and loss prevention strategies. Knowledgeable in
								</tspan>
								<tspan x="0" y="81.069999695" font-family="Open Sans" font-weight="normal" font-style="normal" font-size="10" fill="#020303">
									preparing special compounds.
								</tspan>
							</text>
						</g>
					</g>
				</g>
				<g transform="matrix(1,0,0,1,0,182.5)">
					<text>
						<tspan x="0" y="26.721000671" font-family="Open Sans" font-weight="normal" font-style="normal" font-size="25" fill="#020303">
						</tspan>
					</text>
				</g>
				<g transform="matrix(1,0,0,1,0.600000024,216.544998169)">
					<path d="M0,0 L110,0 L110,4 L0,4 Z" fill="#cee1ec" fill-rule="evenodd">
					</path>
					<path d="M0,4.5 L547,4.5 " stroke-width="1" stroke-miterlimit="10" stroke="#0c6ba1" fill="none" fill-rule="evenodd">
					</path>
				</g>
				<g transform="matrix(1,0,0,1,0,221.544998169)">
					<g transform="matrix(1,0,0,1,0,0)" clip-path="url(#clip6)">
						<g transform="matrix(1,0,0,1,0.25,8.25)">
							<text>
								<tspan x="0" y="9.680000305" font-family="Montserrat" font-weight="bold" font-style="normal" font-size="10" fill="#000000">
									EXPERIENCE
								</tspan>
							</text>
						</g>
					</g>
					<g transform="matrix(1,0,0,1,117,0)" clip-path="url(#clip7)">
						<g transform="matrix(1,0,0,1,0.25,8.25)">
							<text>
								<tspan x="0" y="11.069999695" font-family="Open Sans" font-weight="bold" font-style="normal" font-size="10" fill="#020303">
									PHARMACIST
								</tspan>
								<tspan x="64.740997314" y="11.069999695" font-family="Open Sans" font-weight="normal" font-style="normal" font-size="10" fill="#020303">
									06/2017 to Current
								</tspan>
							</text>
						</g>
						<g transform="matrix(1,0,0,1,0.25,22.25)">
							<text>
								<tspan x="0" y="11.069999695" font-family="Open Sans" font-weight="bold" font-style="normal" font-size="10" fill="#020303">
									King Chemist
								</tspan>
								<tspan x="65.54699707" y="11.069999695" font-family="Open Sans" font-weight="normal" font-style="normal" font-size="10" fill="#020303">
									, Birmingham
								</tspan>
							</text>
						</g>
						<g transform="matrix(1,0,0,1,1.649999976,36.25)">
							<text>
								<tspan x="-0.5" y="15.319999695" font-family="Times New Roman" font-weight="normal" font-style="normal" font-size="7.5" fill="#020303">
									●
								</tspan>
								<tspan x="9.600000381" y="16.069999695" font-family="Open Sans" font-weight="normal" font-style="normal" font-size="10" fill="#020303">
									Checked more than 30 patient orders against histories each day, assessed insurance
								</tspan>
								<tspan x="9.600000381" y="30.069999695" font-family="Open Sans" font-weight="normal" font-style="normal" font-size="10" fill="#020303">
									coverage and counted out medicines.
								</tspan>
							</text>
						</g>
						<g transform="matrix(1,0,0,1,1.649999976,69.25)">
							<text>
								<tspan x="-0.5" y="10.319999695" font-family="Times New Roman" font-weight="normal" font-style="normal" font-size="7.5" fill="#020303">
									●
								</tspan>
								<tspan x="9.600000381" y="11.069999695" font-family="Open Sans" font-weight="normal" font-style="normal" font-size="10" fill="#020303">
									Provided patient counselling regarding OTC medications.
								</tspan>
							</text>
						</g>
						<g transform="matrix(1,0,0,1,1.649999976,83.25)">
							<text>
								<tspan x="-0.5" y="10.319999695" font-family="Times New Roman" font-weight="normal" font-style="normal" font-size="7.5" fill="#020303">
									●
								</tspan>
								<tspan x="9.600000381" y="11.069999695" font-family="Open Sans" font-weight="normal" font-style="normal" font-size="10" fill="#020303">
									Managed weekly schedules and requests for leave.
								</tspan>
							</text>
						</g>
						<g transform="matrix(1,0,0,1,0.25,97.25)">
							<text>
								<tspan x="0" y="26.069999695" font-family="Open Sans" font-weight="bold" font-style="normal" font-size="10" fill="#020303">
									PHARMACIST
								</tspan>
								<tspan x="64.740997314" y="26.069999695" font-family="Open Sans" font-weight="normal" font-style="normal" font-size="10" fill="#020303">
									02/2013 to 05/2017
								</tspan>
							</text>
						</g>
						<g transform="matrix(1,0,0,1,0.25,126.25)">
							<text>
								<tspan x="0" y="11.069999695" font-family="Open Sans" font-weight="bold" font-style="normal" font-size="10" fill="#020303">
									L Pharma
								</tspan>
								<tspan x="47.539001465" y="11.069999695" font-family="Open Sans" font-weight="normal" font-style="normal" font-size="10" fill="#020303">
									, Birmingham
								</tspan>
							</text>
						</g>
						<g transform="matrix(1,0,0,1,1.649999976,140.25)">
							<text>
								<tspan x="-0.5" y="15.319999695" font-family="Times New Roman" font-weight="normal" font-style="normal" font-size="7.5" fill="#020303">
									●
								</tspan>
								<tspan x="9.600000381" y="16.069999695" font-family="Open Sans" font-weight="normal" font-style="normal" font-size="10" fill="#020303">
									Used pharmacy software Meditab to verify prescription and insurance information.
								</tspan>
							</text>
						</g>
						<g transform="matrix(1,0,0,1,1.649999976,159.25)">
							<text>
								<tspan x="-0.5" y="10.319999695" font-family="Times New Roman" font-weight="normal" font-style="normal" font-size="7.5" fill="#020303">
									●
								</tspan>
								<tspan x="9.600000381" y="11.069999695" font-family="Open Sans" font-weight="normal" font-style="normal" font-size="10" fill="#020303">
									Compounded and prepared medications according to prescription orders for more than
								</tspan>
								<tspan x="9.600000381" y="25.069999695" font-family="Open Sans" font-weight="normal" font-style="normal" font-size="10" fill="#020303">
									160 prescriptions every week.
								</tspan>
							</text>
						</g>
						<g transform="matrix(1,0,0,1,1.649999976,187.25)">
							<text>
								<tspan x="-0.5" y="10.319999695" font-family="Times New Roman" font-weight="normal" font-style="normal" font-size="7.5" fill="#020303">
									●
								</tspan>
								<tspan x="9.600000381" y="11.069999695" font-family="Open Sans" font-weight="normal" font-style="normal" font-size="10" fill="#020303">
									Solicited medical history information from patients to provide best and most effective
								</tspan>
								<tspan x="9.600000381" y="25.069999695" font-family="Open Sans" font-weight="normal" font-style="normal" font-size="10" fill="#020303">
									medical advice.
								</tspan>
							</text>
						</g>
					</g>
				</g>
				<g transform="matrix(1,0,0,1,0,437.045013428)">
					<text>
						<tspan x="0" y="26.721000671" font-family="Open Sans" font-weight="normal" font-style="normal" font-size="25" fill="#020303">
						</tspan>
					</text>
				</g>
				<g transform="matrix(1,0,0,1,0.600000024,471.089996338)">
					<path d="M0,0 L110,0 L110,4 L0,4 Z" fill="#cee1ec" fill-rule="evenodd">
					</path>
					<path d="M0,4.5 L547,4.5 " stroke-width="1" stroke-miterlimit="10" stroke="#0c6ba1" fill="none" fill-rule="evenodd">
					</path>
				</g>
				<g transform="matrix(1,0,0,1,0,476.089996338)">
					<g transform="matrix(1,0,0,1,0,0)" clip-path="url(#clip8)">
						<g transform="matrix(1,0,0,1,0.25,8.25)">
							<text>
								<tspan x="0" y="9.680000305" font-family="Montserrat" font-weight="bold" font-style="normal" font-size="10" fill="#000000">
									SKILLS
								</tspan>
							</text>
						</g>
					</g>
				</g>
				<g transform="matrix(1,0,0,1,117.25,484.339996338)">
					<g transform="matrix(1,0,0,1,0,0)" clip-path="url(#clip9)">
						<g transform="matrix(1,0,0,1,1.649999976,0.25)">
							<text>
								<tspan x="-0.5" y="10.319999695" font-family="Times New Roman" font-weight="normal" font-style="normal" font-size="7.5" fill="#020303">
									●
								</tspan>
								<tspan x="9.600000381" y="11.069999695" font-family="Open Sans" font-weight="normal" font-style="normal" font-size="10" fill="#020303">
									Interpreting orders
								</tspan>
							</text>
						</g>
						<g transform="matrix(1,0,0,1,1.649999976,14.25)">
							<text>
								<tspan x="-0.5" y="10.319999695" font-family="Times New Roman" font-weight="normal" font-style="normal" font-size="7.5" fill="#020303">
									●
								</tspan>
								<tspan x="9.600000381" y="11.069999695" font-family="Open Sans" font-weight="normal" font-style="normal" font-size="10" fill="#020303">
									Dosing recommendations
								</tspan>
							</text>
						</g>
						<g transform="matrix(1,0,0,1,1.649999976,28.25)">
							<text>
								<tspan x="-0.5" y="10.319999695" font-family="Times New Roman" font-weight="normal" font-style="normal" font-size="7.5" fill="#020303">
									●
								</tspan>
								<tspan x="9.600000381" y="11.069999695" font-family="Open Sans" font-weight="normal" font-style="normal" font-size="10" fill="#020303">
									Compounding abilities
								</tspan>
							</text>
						</g>
						<g transform="matrix(1,0,0,1,1.649999976,42.25)">
							<text>
								<tspan x="-0.5" y="10.319999695" font-family="Times New Roman" font-weight="normal" font-style="normal" font-size="7.5" fill="#020303">
									●
								</tspan>
								<tspan x="9.600000381" y="11.069999695" font-family="Open Sans" font-weight="normal" font-style="normal" font-size="10" fill="#020303">
									Employee training
								</tspan>
							</text>
						</g>
						<g transform="matrix(1,0,0,1,1.649999976,56.25)">
							<text>
								<tspan x="-0.5" y="10.319999695" font-family="Times New Roman" font-weight="normal" font-style="normal" font-size="7.5" fill="#020303">
									●
								</tspan>
								<tspan x="9.600000381" y="11.069999695" font-family="Open Sans" font-weight="normal" font-style="normal" font-size="10" fill="#020303">
									Dispensing medicines
								</tspan>
							</text>
						</g>
					</g>
					<g transform="matrix(1,0,0,1,144.800003052,0)" clip-path="url(#clip10)">
						<g transform="matrix(1,0,0,1,1.649999976,0.25)">
							<text>
								<tspan x="-0.5" y="10.319999695" font-family="Times New Roman" font-weight="normal" font-style="normal" font-size="7.5" fill="#020303">
									●
								</tspan>
								<tspan x="9.600000381" y="11.069999695" font-family="Open Sans" font-weight="normal" font-style="normal" font-size="10" fill="#020303">
									Customer relations
								</tspan>
							</text>
						</g>
						<g transform="matrix(1,0,0,1,1.649999976,14.25)">
							<text>
								<tspan x="-0.5" y="10.319999695" font-family="Times New Roman" font-weight="normal" font-style="normal" font-size="7.5" fill="#020303">
									●
								</tspan>
								<tspan x="9.600000381" y="11.069999695" font-family="Open Sans" font-weight="normal" font-style="normal" font-size="10" fill="#020303">
									Resolving complaints
								</tspan>
							</text>
						</g>
						<g transform="matrix(1,0,0,1,1.649999976,28.25)">
							<text>
								<tspan x="-0.5" y="10.319999695" font-family="Times New Roman" font-weight="normal" font-style="normal" font-size="7.5" fill="#020303">
									●
								</tspan>
								<tspan x="9.600000381" y="11.069999695" font-family="Open Sans" font-weight="normal" font-style="normal" font-size="10" fill="#020303">
									Sales skills
								</tspan>
							</text>
						</g>
						<g transform="matrix(1,0,0,1,1.649999976,42.25)">
							<text>
								<tspan x="-0.5" y="10.319999695" font-family="Times New Roman" font-weight="normal" font-style="normal" font-size="7.5" fill="#020303">
									●
								</tspan>
								<tspan x="9.600000381" y="11.069999695" font-family="Open Sans" font-weight="normal" font-style="normal" font-size="10" fill="#020303">
									Patient education
								</tspan>
							</text>
						</g>
					</g>
					<g transform="matrix(1,0,0,1,289.649993896,0)" clip-path="url(#clip11)">
						<g transform="matrix(1,0,0,1,1.649999976,0.25)">
							<text>
								<tspan x="-0.5" y="10.319999695" font-family="Times New Roman" font-weight="normal" font-style="normal" font-size="7.5" fill="#020303">
									●
								</tspan>
								<tspan x="9.600000381" y="11.069999695" font-family="Open Sans" font-weight="normal" font-style="normal" font-size="10" fill="#020303">
									Attention to detail
								</tspan>
							</text>
						</g>
						<g transform="matrix(1,0,0,1,1.649999976,14.25)">
							<text>
								<tspan x="-0.5" y="10.319999695" font-family="Times New Roman" font-weight="normal" font-style="normal" font-size="7.5" fill="#020303">
									●
								</tspan>
								<tspan x="9.600000381" y="11.069999695" font-family="Open Sans" font-weight="normal" font-style="normal" font-size="10" fill="#020303">
									Communication skills
								</tspan>
							</text>
						</g>
						<g transform="matrix(1,0,0,1,1.649999976,28.25)">
							<text>
								<tspan x="-0.5" y="10.319999695" font-family="Times New Roman" font-weight="normal" font-style="normal" font-size="7.5" fill="#020303">
									●
								</tspan>
								<tspan x="9.600000381" y="11.069999695" font-family="Open Sans" font-weight="normal" font-style="normal" font-size="10" fill="#020303">
									Time management
								</tspan>
							</text>
						</g>
						<g transform="matrix(1,0,0,1,1.649999976,42.25)">
							<text>
								<tspan x="-0.5" y="10.319999695" font-family="Times New Roman" font-weight="normal" font-style="normal" font-size="7.5" fill="#020303">
									●
								</tspan>
								<tspan x="9.600000381" y="11.069999695" font-family="Open Sans" font-weight="normal" font-style="normal" font-size="10" fill="#020303">
									Project management
								</tspan>
							</text>
						</g>
					</g>
				</g>
				<g transform="matrix(1,0,0,1,0,556.452026367)">
					<text>
						<tspan x="0" y="26.721000671" font-family="Open Sans" font-weight="normal" font-style="normal" font-size="25" fill="#020303">
						</tspan>
					</text>
				</g>
				<g transform="matrix(1,0,0,1,0.600000024,590.497009277)">
					<path d="M0,0 L110,0 L110,4 L0,4 Z" fill="#cee1ec" fill-rule="evenodd">
					</path>
					<path d="M0,4.5 L547,4.5 " stroke-width="1" stroke-miterlimit="10" stroke="#0c6ba1" fill="none" fill-rule="evenodd">
					</path>
				</g>
				<g transform="matrix(1,0,0,1,0,595.497009277)">
					<g transform="matrix(1,0,0,1,0,0)" clip-path="url(#clip12)">
						<g transform="matrix(1,0,0,1,0.25,8.25)">
							<text>
								<tspan x="0" y="9.680000305" font-family="Montserrat" font-weight="bold" font-style="normal" font-size="10" fill="#000000">
									EDUCATION
								</tspan>
							</text>
						</g>
					</g>
					<g transform="matrix(1,0,0,1,117,0)" clip-path="url(#clip13)">
						<g transform="matrix(1,0,0,1,0.25,8.25)">
							<text>
								<tspan x="0" y="11.069999695" font-family="Open Sans" font-weight="bold" font-style="normal" font-size="10" fill="#020303">
									Birmingham University
								</tspan>
								<tspan x="115.805999756" y="11.069999695" font-family="Open Sans" font-weight="normal" font-style="normal" font-size="10" fill="#020303">
									, Birmingham
								</tspan>
							</text>
						</g>
						<g transform="matrix(1,0,0,1,0.25,22.25)">
							<text>
								<tspan x="0" y="11.069999695" font-family="Open Sans" font-weight="bold" font-style="normal" font-size="10" fill="#020303">
									Masters degree in pharmacy
								</tspan>
								<tspan x="142.031997681" y="11.069999695" font-family="Open Sans" font-weight="normal" font-style="normal" font-size="10" fill="#020303">
									, 2010
								</tspan>
							</text>
						</g>
					</g>
				</g>
				<g transform="matrix(1,0,0,1,0,631.997009277)">
					<text>
						<tspan x="0" y="26.721000671" font-family="Open Sans" font-weight="normal" font-style="normal" font-size="25" fill="#020303">
						</tspan>
					</text>
				</g>
				<g transform="matrix(1,0,0,1,0.600000024,666.041992188)">
					<path d="M0,0 L110,0 L110,4 L0,4 Z" fill="#cee1ec" fill-rule="evenodd">
					</path>
					<path d="M0,4.5 L547,4.5 " stroke-width="1" stroke-miterlimit="10" stroke="#0c6ba1" fill="none" fill-rule="evenodd">
					</path>
				</g>
				<g transform="matrix(1,0,0,1,0,671.041992188)">
					<g transform="matrix(1,0,0,1,0,0)" clip-path="url(#clip14)">
						<g transform="matrix(1,0,0,1,0.25,8.25)">
							<text>
								<tspan x="0" y="9.680000305" font-family="Montserrat" font-weight="bold" font-style="normal" font-size="10" fill="#000000">
									ADDITIONAL
								</tspan>
								<tspan x="0" y="21.869998932" font-family="Montserrat" font-weight="bold" font-style="normal" font-size="10" fill="#000000">
									INFORMATION
								</tspan>
							</text>
						</g>
					</g>
					<g transform="matrix(1,0,0,1,117,0)" clip-path="url(#clip15)">
						<g transform="matrix(1,0,0,1,0.25,8.25)">
							<text>
								<tspan x="0" y="11.069999695" font-family="Open Sans" font-weight="normal" font-style="normal" font-size="10" fill="#020303">
									Registered at General Pharmaceutical Council.
								</tspan>
							</text>
						</g>
					</g>
				</g>
			</g>
		</g>
	</g>
</svg>
