<?xml version="1.0" encoding="utf-8" standalone="yes"?>
<svg xmlns="http://www.w3.org/2000/svg" xmlns:xlink="http://www.w3.org/1999/xlink" version="1.1" width="100%" height="100%" viewBox="0 0 816 1056">
	<!-- Generated by Aspose.Words for .NET 18.5 -->
	<defs>
		<clipPath id="clip1">
			<path d="M-1,-1 L348,-1 L348,31 L-1,31 Z" clip-rule="evenodd">
			</path>
		</clipPath>
		<clipPath id="clip2">
			<path d="M-1,-1 L378,-1 L378,608 L-1,608 Z" clip-rule="evenodd">
			</path>
		</clipPath>
		<clipPath id="clip3">
			<path d="M-1,-1 L176,-1 L176,608 L-1,608 Z" clip-rule="evenodd">
			</path>
		</clipPath>
		<style type="text/css">
			@import url('https://fonts.googleapis.com/css2?family=Open+Sans:ital,wght@0,400;0,600;0,700;1,400');@import url('https://fonts.googleapis.com/css2?family=Montserrat:ital,wght@0,400;0,500;0,700;1,400');svg{background:white}
		</style>
	</defs>
	<g transform="scale(1.33333)">
		<g>
			<g transform="matrix(1,0,0,1,0,40)">
				<path d="M0,0 L30,0 L30,30 L0,30 Z" fill="#2c806f" fill-rule="evenodd">
				</path>
				<g transform="matrix(1,0,0,1,30,0)" clip-path="url(#clip1)">
					<g transform="matrix(1,0,0,1,15,0)">
						<text>
							<tspan x="0" y="23.975999832" font-family="Montserrat" font-weight="bold" font-style="normal" font-size="24" fill="#2a2a2a">
								Lily French
							</tspan>
						</text>
					</g>
				</g>
				<g transform="matrix(1,0,0,1,0,0)" clip-path="url(#clip2)">
					<g transform="matrix(1,0,0,1,30,30)">
						<text>
							<tspan x="0" y="16" font-family="Open Sans" font-weight="normal" font-style="normal" font-size="5" fill="#2a2a2a">
							</tspan>
						</text>
					</g>
					<g transform="matrix(1,0,0,1,30,50)">
						<text>
							<tspan x="0" y="11.987999916" font-family="Montserrat" font-weight="bold" font-style="normal" font-size="12" fill="#2a2a2a">
								SUMMARY
							</tspan>
						</text>
					</g>
					<g transform="matrix(1,0,0,1,30,75)">
						<text>
							<tspan x="0" y="11.069999695" font-family="Open Sans" font-weight="normal" font-style="normal" font-size="10" fill="#2a2a2a">
								Highly organised and disciplined pharmacy leader with excellent
							</tspan>
							<tspan x="0" y="25.069999695" font-family="Open Sans" font-weight="normal" font-style="normal" font-size="10" fill="#2a2a2a">
								communication and conflict resolution skills. Competent in managing
							</tspan>
							<tspan x="0" y="39.069999695" font-family="Open Sans" font-weight="normal" font-style="normal" font-size="10" fill="#2a2a2a">
								supplies, reviewing service quality, and maintaining patient confidentiality
							</tspan>
							<tspan x="0" y="53.069999695" font-family="Open Sans" font-weight="normal" font-style="normal" font-size="10" fill="#2a2a2a">
								and satisfaction. Skilled at ordering, storing, and preparing medications
							</tspan>
							<tspan x="0" y="67.069999695" font-family="Open Sans" font-weight="normal" font-style="normal" font-size="10" fill="#2a2a2a">
								for customer use. Accomplished in increasing customer satisfaction while
							</tspan>
							<tspan x="0" y="81.069999695" font-family="Open Sans" font-weight="normal" font-style="normal" font-size="10" fill="#2a2a2a">
								improving controls, team operations, and loss prevention strategies.
							</tspan>
							<tspan x="0" y="95.069999695" font-family="Open Sans" font-weight="normal" font-style="normal" font-size="10" fill="#2a2a2a">
								Knowledgeable in preparing special compounds.
							</tspan>
						</text>
					</g>
					<g transform="matrix(1,0,0,1,30,173)">
						<text>
							<tspan x="0" y="16" font-family="Open Sans" font-weight="normal" font-style="normal" font-size="5" fill="#2a2a2a">
							</tspan>
						</text>
					</g>
					<g transform="matrix(1,0,0,1,30,193)">
						<text>
							<tspan x="0" y="17" font-family="Open Sans" font-weight="normal" font-style="normal" font-size="5" fill="#2a2a2a">
							</tspan>
						</text>
					</g>
					<path d="M28.549999237,193.5 L378.449981689,193.5 " stroke-width="1" stroke-miterlimit="10" stroke="#2c806f" fill="none" fill-rule="evenodd">
					</path>
					<g transform="matrix(1,0,0,1,30,214)">
						<text>
							<tspan x="0" y="11.987999916" font-family="Montserrat" font-weight="bold" font-style="normal" font-size="12" fill="#2a2a2a">
								EXPERIENCE
							</tspan>
						</text>
					</g>
					<g transform="matrix(1,0,0,1,30,239)">
						<text>
							<tspan x="0" y="11.069999695" font-family="Open Sans" font-weight="bold" font-style="normal" font-size="10" fill="#2a2a2a">
								King Chemist
							</tspan>
							<tspan x="65.54699707" y="11.069999695" font-family="Open Sans" font-weight="normal" font-style="normal" font-size="10" fill="#2a2a2a">
								-
							</tspan>
							<tspan x="73.960998535" y="11.069999695" font-family="Open Sans" font-weight="bold" font-style="normal" font-size="10" fill="#2a2a2a">
								Pharmacist
							</tspan>
						</text>
					</g>
					<g transform="matrix(1,0,0,1,30,253)">
						<text>
							<tspan x="0" y="11.069999695" font-family="Open Sans" font-weight="normal" font-style="italic" font-size="10" fill="#2a2a2a">
								Birmingham
							</tspan>
						</text>
					</g>
					<g transform="matrix(1,0,0,1,30,267)">
						<text>
							<tspan x="0" y="11.069999695" font-family="Open Sans" font-weight="normal" font-style="italic" font-size="10" fill="#2a2a2a">
								06/2017 - Current
							</tspan>
						</text>
					</g>
					<g transform="matrix(1,0,0,1,30.399999619,281)">
						<text>
							<tspan x="-0.5" y="22.319999695" font-family="Times New Roman" font-weight="normal" font-style="normal" font-size="7.5" fill="#2a2a2a">
								●
							</tspan>
							<tspan x="12.600000381" y="23.069999695" font-family="Open Sans" font-weight="normal" font-style="normal" font-size="10" fill="#2a2a2a">
								Checked more than 30 patient orders against histories each day,
							</tspan>
							<tspan x="12.600000381" y="37.069999695" font-family="Open Sans" font-weight="normal" font-style="normal" font-size="10" fill="#2a2a2a">
								assessed insurance coverage and counted out medicines.
							</tspan>
						</text>
					</g>
					<g transform="matrix(1,0,0,1,30.399999619,321)">
						<text>
							<tspan x="-0.5" y="10.319999695" font-family="Times New Roman" font-weight="normal" font-style="normal" font-size="7.5" fill="#2a2a2a">
								●
							</tspan>
							<tspan x="12.600000381" y="11.069999695" font-family="Open Sans" font-weight="normal" font-style="normal" font-size="10" fill="#2a2a2a">
								Provided patient counselling regarding OTC medications.
							</tspan>
						</text>
					</g>
					<g transform="matrix(1,0,0,1,30.399999619,335)">
						<text>
							<tspan x="-0.5" y="10.319999695" font-family="Times New Roman" font-weight="normal" font-style="normal" font-size="7.5" fill="#2a2a2a">
								●
							</tspan>
							<tspan x="12.600000381" y="11.069999695" font-family="Open Sans" font-weight="normal" font-style="normal" font-size="10" fill="#2a2a2a">
								Managed weekly schedules and requests for leave.
							</tspan>
						</text>
					</g>
					<g transform="matrix(1,0,0,1,30,349)">
						<text>
							<tspan x="0" y="31.069999695" font-family="Open Sans" font-weight="bold" font-style="normal" font-size="10" fill="#2a2a2a">
								L Pharma
							</tspan>
							<tspan x="47.539001465" y="31.069999695" font-family="Open Sans" font-weight="normal" font-style="normal" font-size="10" fill="#2a2a2a">
								-
							</tspan>
							<tspan x="55.952999115" y="31.069999695" font-family="Open Sans" font-weight="bold" font-style="normal" font-size="10" fill="#2a2a2a">
								Pharmacist
							</tspan>
						</text>
					</g>
					<g transform="matrix(1,0,0,1,30,383)">
						<text>
							<tspan x="0" y="11.069999695" font-family="Open Sans" font-weight="normal" font-style="italic" font-size="10" fill="#2a2a2a">
								Birmingham
							</tspan>
						</text>
					</g>
					<g transform="matrix(1,0,0,1,30,397)">
						<text>
							<tspan x="0" y="11.069999695" font-family="Open Sans" font-weight="normal" font-style="italic" font-size="10" fill="#2a2a2a">
								02/2013 - 05/2017
							</tspan>
						</text>
					</g>
					<g transform="matrix(1,0,0,1,30.399999619,411)">
						<text>
							<tspan x="-0.5" y="22.319999695" font-family="Times New Roman" font-weight="normal" font-style="normal" font-size="7.5" fill="#2a2a2a">
								●
							</tspan>
							<tspan x="12.600000381" y="23.069999695" font-family="Open Sans" font-weight="normal" font-style="normal" font-size="10" fill="#2a2a2a">
								Used pharmacy software Meditab to verify prescription and insurance
							</tspan>
							<tspan x="12.600000381" y="37.069999695" font-family="Open Sans" font-weight="normal" font-style="normal" font-size="10" fill="#2a2a2a">
								information.
							</tspan>
						</text>
					</g>
					<g transform="matrix(1,0,0,1,30.399999619,451)">
						<text>
							<tspan x="-0.5" y="10.319999695" font-family="Times New Roman" font-weight="normal" font-style="normal" font-size="7.5" fill="#2a2a2a">
								●
							</tspan>
							<tspan x="12.600000381" y="11.069999695" font-family="Open Sans" font-weight="normal" font-style="normal" font-size="10" fill="#2a2a2a">
								Compounded and prepared medications according to prescription
							</tspan>
							<tspan x="12.600000381" y="25.069999695" font-family="Open Sans" font-weight="normal" font-style="normal" font-size="10" fill="#2a2a2a">
								orders for more than 160 prescriptions every week.
							</tspan>
						</text>
					</g>
					<g transform="matrix(1,0,0,1,30.399999619,479)">
						<text>
							<tspan x="-0.5" y="10.319999695" font-family="Times New Roman" font-weight="normal" font-style="normal" font-size="7.5" fill="#2a2a2a">
								●
							</tspan>
							<tspan x="12.600000381" y="11.069999695" font-family="Open Sans" font-weight="normal" font-style="normal" font-size="10" fill="#2a2a2a">
								Solicited medical history information from patients to provide best and
							</tspan>
							<tspan x="12.600000381" y="25.069999695" font-family="Open Sans" font-weight="normal" font-style="normal" font-size="10" fill="#2a2a2a">
								most effective medical advice.
							</tspan>
						</text>
					</g>
					<g transform="matrix(1,0,0,1,30,507)">
						<text>
							<tspan x="0" y="16" font-family="Open Sans" font-weight="normal" font-style="normal" font-size="5" fill="#2a2a2a">
							</tspan>
						</text>
					</g>
					<g transform="matrix(1,0,0,1,30,527)">
						<text>
							<tspan x="0" y="17" font-family="Open Sans" font-weight="normal" font-style="normal" font-size="5" fill="#2a2a2a">
							</tspan>
						</text>
					</g>
					<path d="M28.549999237,527.5 L378.449981689,527.5 " stroke-width="1" stroke-miterlimit="10" stroke="#2c806f" fill="none" fill-rule="evenodd">
					</path>
					<g transform="matrix(1,0,0,1,30,548)">
						<text>
							<tspan x="0" y="11.987999916" font-family="Montserrat" font-weight="bold" font-style="normal" font-size="12" fill="#2a2a2a">
								ADDITIONAL INFORMATION
							</tspan>
						</text>
					</g>
					<g transform="matrix(1,0,0,1,30,573)">
						<text>
							<tspan x="0" y="11.069999695" font-family="Open Sans" font-weight="normal" font-style="normal" font-size="10" fill="#2a2a2a">
								Registered at General Pharmaceutical Council.
							</tspan>
						</text>
					</g>
					<g transform="matrix(1,0,0,1,30,587)">
						<text>
							<tspan x="0" y="16" font-family="Open Sans" font-weight="normal" font-style="normal" font-size="5" fill="#2a2a2a">
							</tspan>
						</text>
					</g>
				</g>
				<g transform="matrix(1,0,0,1,407,0)" clip-path="url(#clip3)">
					<text>
						<tspan x="0" y="11.069999695" font-family="Open Sans" font-weight="normal" font-style="normal" font-size="10" fill="#2a2a2a">
							 Bradford,
						</tspan>
						<tspan x="0" y="25.069999695" font-family="Open Sans" font-weight="normal" font-style="normal" font-size="10" fill="#2a2a2a">
							 BD1 6YU
						</tspan>
					</text>
					<g transform="matrix(1,0,0,1,0,28)">
						<text>
							<tspan x="0" y="11.069999695" font-family="Open Sans" font-weight="normal" font-style="normal" font-size="10" fill="#2a2a2a">
								07941 234 567
							</tspan>
						</text>
					</g>
					<g transform="matrix(1,0,0,1,0,42)">
						<text>
							<tspan x="0" y="11.069999695" font-family="Open Sans" font-weight="normal" font-style="normal" font-size="10" fill="#2a2a2a">
								lily.french@example.co.uk
							</tspan>
							<tspan x="0" y="25.069999695" font-family="Open Sans" font-weight="normal" font-style="normal" font-size="10" fill="#2a2a2a">
							</tspan>
						</text>
					</g>
					<g transform="matrix(1,0,0,1,0,70)">
						<text>
							<tspan x="0" y="8.534999847" font-family="Open Sans" font-weight="normal" font-style="normal" font-size="5" fill="#2a2a2a">
							</tspan>
						</text>
					</g>
					<path d="M-1.450000048,85.5 L176.449996948,85.5 " stroke-width="11" stroke-miterlimit="10" stroke="#2c806f" fill="none" fill-rule="evenodd">
					</path>
					<g transform="matrix(1,0,0,1,0,91)">
						<text>
							<tspan x="0" y="16" font-family="Open Sans" font-weight="normal" font-style="normal" font-size="5" fill="#2a2a2a">
							</tspan>
						</text>
					</g>
					<g transform="matrix(1,0,0,1,0,111)">
						<text>
							<tspan x="0" y="11.987999916" font-family="Montserrat" font-weight="bold" font-style="normal" font-size="12" fill="#2a2a2a">
								SKILLS
							</tspan>
						</text>
					</g>
					<g transform="matrix(1,0,0,1,0.400000006,136)">
						<text>
							<tspan x="-0.5" y="10.319999695" font-family="Times New Roman" font-weight="normal" font-style="normal" font-size="7.5" fill="#2a2a2a">
								●
							</tspan>
							<tspan x="12.600000381" y="11.069999695" font-family="Open Sans" font-weight="normal" font-style="normal" font-size="10" fill="#2a2a2a">
								Interpreting orders
							</tspan>
						</text>
					</g>
					<g transform="matrix(1,0,0,1,0.400000006,150)">
						<text>
							<tspan x="-0.5" y="10.319999695" font-family="Times New Roman" font-weight="normal" font-style="normal" font-size="7.5" fill="#2a2a2a">
								●
							</tspan>
							<tspan x="12.600000381" y="11.069999695" font-family="Open Sans" font-weight="normal" font-style="normal" font-size="10" fill="#2a2a2a">
								Dosing recommendations
							</tspan>
						</text>
					</g>
					<g transform="matrix(1,0,0,1,0.400000006,164)">
						<text>
							<tspan x="-0.5" y="10.319999695" font-family="Times New Roman" font-weight="normal" font-style="normal" font-size="7.5" fill="#2a2a2a">
								●
							</tspan>
							<tspan x="12.600000381" y="11.069999695" font-family="Open Sans" font-weight="normal" font-style="normal" font-size="10" fill="#2a2a2a">
								Compounding abilities
							</tspan>
						</text>
					</g>
					<g transform="matrix(1,0,0,1,0.400000006,178)">
						<text>
							<tspan x="-0.5" y="10.319999695" font-family="Times New Roman" font-weight="normal" font-style="normal" font-size="7.5" fill="#2a2a2a">
								●
							</tspan>
							<tspan x="12.600000381" y="11.069999695" font-family="Open Sans" font-weight="normal" font-style="normal" font-size="10" fill="#2a2a2a">
								Employee training
							</tspan>
						</text>
					</g>
					<g transform="matrix(1,0,0,1,0.400000006,192)">
						<text>
							<tspan x="-0.5" y="10.319999695" font-family="Times New Roman" font-weight="normal" font-style="normal" font-size="7.5" fill="#2a2a2a">
								●
							</tspan>
							<tspan x="12.600000381" y="11.069999695" font-family="Open Sans" font-weight="normal" font-style="normal" font-size="10" fill="#2a2a2a">
								Dispensing medicines
							</tspan>
						</text>
					</g>
					<g transform="matrix(1,0,0,1,0.400000006,206)">
						<text>
							<tspan x="-0.5" y="10.319999695" font-family="Times New Roman" font-weight="normal" font-style="normal" font-size="7.5" fill="#2a2a2a">
								●
							</tspan>
							<tspan x="12.600000381" y="11.069999695" font-family="Open Sans" font-weight="normal" font-style="normal" font-size="10" fill="#2a2a2a">
								Customer relations
							</tspan>
						</text>
					</g>
					<g transform="matrix(1,0,0,1,0.400000006,220)">
						<text>
							<tspan x="-0.5" y="10.319999695" font-family="Times New Roman" font-weight="normal" font-style="normal" font-size="7.5" fill="#2a2a2a">
								●
							</tspan>
							<tspan x="12.600000381" y="11.069999695" font-family="Open Sans" font-weight="normal" font-style="normal" font-size="10" fill="#2a2a2a">
								Resolving complaints
							</tspan>
						</text>
					</g>
					<g transform="matrix(1,0,0,1,0.400000006,234)">
						<text>
							<tspan x="-0.5" y="10.319999695" font-family="Times New Roman" font-weight="normal" font-style="normal" font-size="7.5" fill="#2a2a2a">
								●
							</tspan>
							<tspan x="12.600000381" y="11.069999695" font-family="Open Sans" font-weight="normal" font-style="normal" font-size="10" fill="#2a2a2a">
								Sales skills
							</tspan>
						</text>
					</g>
					<g transform="matrix(1,0,0,1,0.400000006,248)">
						<text>
							<tspan x="-0.5" y="10.319999695" font-family="Times New Roman" font-weight="normal" font-style="normal" font-size="7.5" fill="#2a2a2a">
								●
							</tspan>
							<tspan x="12.600000381" y="11.069999695" font-family="Open Sans" font-weight="normal" font-style="normal" font-size="10" fill="#2a2a2a">
								Patient education
							</tspan>
						</text>
					</g>
					<g transform="matrix(1,0,0,1,0,262)">
						<text>
							<tspan x="0" y="18.534999847" font-family="Open Sans" font-weight="normal" font-style="normal" font-size="5" fill="#2a2a2a">
							</tspan>
						</text>
					</g>
					<g transform="matrix(1,0,0,1,0,282)">
						<text>
							<tspan x="0" y="17" font-family="Open Sans" font-weight="normal" font-style="normal" font-size="5" fill="#2a2a2a">
							</tspan>
						</text>
					</g>
					<path d="M-1.450000048,282.5 L176.449996948,282.5 " stroke-width="1" stroke-miterlimit="10" stroke="#2c806f" fill="none" fill-rule="evenodd">
					</path>
					<g transform="matrix(1,0,0,1,0,303)">
						<text>
							<tspan x="0" y="11.987999916" font-family="Montserrat" font-weight="bold" font-style="normal" font-size="12" fill="#2a2a2a">
								EDUCATION
							</tspan>
						</text>
					</g>
					<g transform="matrix(1,0,0,1,0,328)">
						<text>
							<tspan x="0" y="11.069999695" font-family="Open Sans" font-weight="normal" font-style="italic" font-size="10" fill="#2a2a2a">
								2010
							</tspan>
						</text>
					</g>
					<g transform="matrix(1,0,0,1,0,342)">
						<text>
							<tspan x="0" y="11.069999695" font-family="Open Sans" font-weight="bold" font-style="normal" font-size="10" fill="#2a2a2a">
								Birmingham University
							</tspan>
						</text>
					</g>
					<g transform="matrix(1,0,0,1,0,356)">
						<text>
							<tspan x="0" y="11.069999695" font-family="Open Sans" font-weight="normal" font-style="normal" font-size="10" fill="#2a2a2a">
								Birmingham
							</tspan>
						</text>
					</g>
					<g transform="matrix(1,0,0,1,0,370)">
						<text>
							<tspan x="0" y="17.069999695" font-family="Open Sans" font-weight="bold" font-style="normal" font-size="10" fill="#2a2a2a">
								Masters degree in pharmacy
							</tspan>
							<tspan x="142.031997681" y="17.069999695" font-family="Open Sans" font-weight="normal" font-style="normal" font-size="10" fill="#2a2a2a">
							</tspan>
						</text>
					</g>
					<g transform="matrix(1,0,0,1,0,390)">
						<text>
							<tspan x="0" y="16" font-family="Open Sans" font-weight="normal" font-style="normal" font-size="5" fill="#2a2a2a">
							</tspan>
						</text>
					</g>
				</g>
			</g>
		</g>
	</g>
</svg>
