<?xml version="1.0" encoding="utf-8" standalone="yes"?>
<svg xmlns="http://www.w3.org/2000/svg" xmlns:xlink="http://www.w3.org/1999/xlink" version="1.1" width="100%" height="100%" viewBox="0 0 816 1056">
	<!-- Generated by Aspose.Words for .NET 18.5 -->
	<defs>
		<clipPath id="clip1">
			<path d="M0,0 L612,0 L612,0.096000001 L0,0.096000001 Z" clip-rule="evenodd">
			</path>
		</clipPath>
		<clipPath id="clip10">
			<path d="M-1,-1 L152.5,-1 L152.5,83.774002075 L-1,83.774002075 Z" clip-rule="evenodd">
			</path>
		</clipPath>
		<clipPath id="clip11">
			<path d="M-1,-1 L152.5,-1 L152.5,83.774002075 L-1,83.774002075 Z" clip-rule="evenodd">
			</path>
		</clipPath>
		<clipPath id="clip12">
			<path d="M-1,-1 L98,-1 L98,39.979999542 L-1,39.979999542 Z" clip-rule="evenodd">
			</path>
		</clipPath>
		<clipPath id="clip13">
			<path d="M-1,-1 L456,-1 L456,39.979999542 L-1,39.979999542 Z" clip-rule="evenodd">
			</path>
		</clipPath>
		<clipPath id="clip2">
			<path d="M0,0 L612,0 L612,0.096000001 L0,0.096000001 Z" clip-rule="evenodd">
			</path>
		</clipPath>
		<clipPath id="clip3">
			<path d="M-1,-1 L613,-1 L613,61.462001801 L-1,61.462001801 Z" clip-rule="evenodd">
			</path>
		</clipPath>
		<clipPath id="clip4">
			<path d="M-1,-1 L98,-1 L98,87.199996948 L-1,87.199996948 Z" clip-rule="evenodd">
			</path>
		</clipPath>
		<clipPath id="clip5">
			<path d="M-1,-1 L456,-1 L456,87.199996948 L-1,87.199996948 Z" clip-rule="evenodd">
			</path>
		</clipPath>
		<clipPath id="clip6">
			<path d="M-1,-1 L98,-1 L98,224.380004883 L-1,224.380004883 Z" clip-rule="evenodd">
			</path>
		</clipPath>
		<clipPath id="clip7">
			<path d="M-1,-1 L456,-1 L456,224.380004883 L-1,224.380004883 Z" clip-rule="evenodd">
			</path>
		</clipPath>
		<clipPath id="clip8">
			<path d="M-1,-1 L98,-1 L98,89.274002075 L-1,89.274002075 Z" clip-rule="evenodd">
			</path>
		</clipPath>
		<clipPath id="clip9">
			<path d="M-1,-1 L152.5,-1 L152.5,83.774002075 L-1,83.774002075 Z" clip-rule="evenodd">
			</path>
		</clipPath>
		<style type="text/css">
			@import url('https://fonts.googleapis.com/css2?family=Saira+Semi+Condensed:wght@400;500;600');svg{background:white}
		</style>
	</defs>
	<g transform="scale(1.33333)">
		<g>
			<path d="M0,0 L600,0 L600,450 L0,450 Z" fill="#ffffff" fill-rule="evenodd">
			</path>
			<g transform="matrix(1,0,0,1,600,0)">
				<path d="M0,0 L600,0 L600,450 L0,450 Z" fill="#ffffff" fill-rule="evenodd">
				</path>
			</g>
			<g transform="matrix(1,0,0,1,0,450)">
				<path d="M0,0 L600,0 L600,450 L0,450 Z" fill="#ffffff" fill-rule="evenodd">
				</path>
			</g>
			<g transform="matrix(1,0,0,1,600,450)">
				<path d="M0,0 L600,0 L600,450 L0,450 Z" fill="#ffffff" fill-rule="evenodd">
				</path>
			</g>
			<g transform="matrix(1,0,0,1,0,0)" clip-path="url(#clip1)">
				<text>
					<tspan x="0" y="0.077" font-family="Times New Roman" font-weight="normal" font-style="normal" font-size="1" fill="#ffffff">
						.
					</tspan>
				</text>
			</g>
			<g transform="matrix(1,0,0,1,0,791.903991699)" clip-path="url(#clip2)">
				<text>
					<tspan x="0" y="0.077" font-family="Times New Roman" font-weight="normal" font-style="normal" font-size="1" fill="#ffffff">
						.
					</tspan>
				</text>
			</g>
			<g transform="matrix(1,0,0,1,0,0.096000001)">
				<path d="M0,0 L612,0 L612,60.462001801 L0,60.462001801 Z" fill="#494949" fill-rule="evenodd">
				</path>
				<g transform="matrix(1,0,0,1,0,0)" clip-path="url(#clip3)">
					<g transform="matrix(1,0,0,1,40,2)">
						<text>
							<tspan x="110.471001" y="45.755001068" font-family="Saira Semi Condensed" font-weight="normal" font-style="normal" font-size="10" fill="#ffffff">
								 Bradford, BD1 6YU
							</tspan>
							<tspan x="202.330993652" y="45.755001068" font-family="Saira Semi Condensed" font-weight="normal" font-style="normal" font-size="13" fill="#2c806f">
								|
							</tspan>
							<tspan x="220.875" y="45.755001068" font-family="Saira Semi Condensed" font-weight="normal" font-style="normal" font-size="10" fill="#ffffff">
								07941 234 567
							</tspan>
							<tspan x="299.875" y="45.755001068" font-family="Saira Semi Condensed" font-weight="normal" font-style="normal" font-size="13" fill="#2c806f">
								|
							</tspan>
							<tspan x="311.419006348" y="45.755001068" font-family="Saira Semi Condensed" font-weight="normal" font-style="normal" font-size="10" fill="#ffffff">
								lily.french@example.co.uk
							</tspan>
						</text>
					</g>
				</g>
				<g transform="matrix(1,0,0,1,0,60.462001801)">
					<path d="M0,0 L612,0 L612,15 L0,15 Z" fill="#2c806f" fill-rule="evenodd">
					</path>
				</g>
				<g transform="matrix(1,0,0,1,0,75.461997986)">
					<text>
						<tspan x="0" y="0" font-family="Times New Roman" font-weight="normal" font-style="normal" font-size="1" fill="#ffffff">
							.
						</tspan>
					</text>
				</g>
			</g>
			<g transform="matrix(1,0,0,1,30,75.557998657)">
				<g transform="matrix(1,0,0,1,97,0)">
					<text>
						<tspan x="0" y="50.799999237" font-family="Saira Semi Condensed" font-weight="normal" font-style="normal" font-size="30" fill="#494949">
							Lily French
						</tspan>
					</text>
				</g>
				<g transform="matrix(1,0,0,1,0.600000024,88)">
					<path d="M0,1.5 L552,1.5 " stroke-width="1" stroke-miterlimit="10" stroke="#2c806f" fill="none" fill-rule="evenodd">
					</path>
				</g>
				<g transform="matrix(1,0,0,1,0,90)">
					<g transform="matrix(1,0,0,1,0,0)" clip-path="url(#clip4)">
						<g transform="matrix(1,0,0,1,0.25,5.25)">
							<text>
								<tspan x="0" y="13.619999886" font-family="Saira Semi Condensed" font-weight="bold" font-style="normal" font-size="12" fill="#494949">
									Summary
								</tspan>
							</text>
						</g>
					</g>
					<g transform="matrix(1,0,0,1,97,0)" clip-path="url(#clip5)">
						<g transform="matrix(1,0,0,1,0.25,5.25)">
							<text>
								<tspan x="0" y="13.350000381" font-family="Saira Semi Condensed" font-weight="normal" font-style="normal" font-size="10" fill="#494949">
									Highly organised and disciplined pharmacy leader with excellent communication and conflict resolution skills.
								</tspan>
								<tspan x="0" y="29.090000153" font-family="Saira Semi Condensed" font-weight="normal" font-style="normal" font-size="10" fill="#494949">
									Competent in managing supplies, reviewing service quality, and maintaining patient confidentiality and
								</tspan>
								<tspan x="0" y="44.830001831" font-family="Saira Semi Condensed" font-weight="normal" font-style="normal" font-size="10" fill="#494949">
									satisfaction. Skilled at ordering, storing, and preparing medications for customer use. Accomplished in
								</tspan>
								<tspan x="0" y="60.569999695" font-family="Saira Semi Condensed" font-weight="normal" font-style="normal" font-size="10" fill="#494949">
									increasing customer satisfaction while improving controls, team operations, and loss prevention strategies.
								</tspan>
								<tspan x="0" y="76.309997559" font-family="Saira Semi Condensed" font-weight="normal" font-style="normal" font-size="10" fill="#494949">
									Knowledgeable in preparing special compounds.
								</tspan>
							</text>
						</g>
					</g>
				</g>
				<g transform="matrix(1,0,0,1,0,176.199996948)">
					<text>
						<tspan x="0" y="22.700000763" font-family="Saira Semi Condensed" font-weight="normal" font-style="normal" font-size="20" fill="#494949">
						</tspan>
					</text>
				</g>
				<g transform="matrix(1,0,0,1,0.600000024,207.679992676)">
					<path d="M0,1.5 L552,1.5 " stroke-width="1" stroke-miterlimit="10" stroke="#2c806f" fill="none" fill-rule="evenodd">
					</path>
				</g>
				<g transform="matrix(1,0,0,1,0,209.679992676)">
					<g transform="matrix(1,0,0,1,0,0)" clip-path="url(#clip6)">
						<g transform="matrix(1,0,0,1,0.25,5.25)">
							<text>
								<tspan x="0" y="13.619999886" font-family="Saira Semi Condensed" font-weight="bold" font-style="normal" font-size="12" fill="#494949">
									Experience
								</tspan>
							</text>
						</g>
					</g>
					<g transform="matrix(1,0,0,1,97,0)" clip-path="url(#clip7)">
						<g transform="matrix(1,0,0,1,0.25,5.25)">
							<text>
								<tspan x="0" y="13.350000381" font-family="Saira Semi Condensed" font-weight="bold" font-style="normal" font-size="10" fill="#494949">
									PHARMACIST
								</tspan>
								<tspan x="55.560001373" y="13.350000381" font-family="Saira Semi Condensed" font-weight="normal" font-style="normal" font-size="10" fill="#494949">
									06/2017 to Current
								</tspan>
							</text>
						</g>
						<g transform="matrix(1,0,0,1,0.25,22.989999771)">
							<text>
								<tspan x="0" y="11.350000381" font-family="Saira Semi Condensed" font-weight="bold" font-style="normal" font-size="10" fill="#494949">
									King Chemist
								</tspan>
								<tspan x="53.580001831" y="11.350000381" font-family="Saira Semi Condensed" font-weight="normal" font-style="normal" font-size="10" fill="#494949">
									, Birmingham
								</tspan>
							</text>
						</g>
						<g transform="matrix(1,0,0,1,0.25,38.729999542)">
							<text>
								<tspan x="0" y="17.350000381" font-family="Saira Semi Condensed" font-weight="normal" font-style="normal" font-size="10" fill="#494949">
									Checked more than 30 patient orders against histories each day, assessed insurance coverage and counted
								</tspan>
								<tspan x="0" y="33.090000153" font-family="Saira Semi Condensed" font-weight="normal" font-style="normal" font-size="10" fill="#494949">
									out medicines.
								</tspan>
							</text>
						</g>
						<g transform="matrix(1,0,0,1,0.25,76.209999084)">
							<text>
								<tspan x="0" y="11.350000381" font-family="Saira Semi Condensed" font-weight="normal" font-style="normal" font-size="10" fill="#494949">
									Provided patient counselling regarding OTC medications.
								</tspan>
							</text>
						</g>
						<g transform="matrix(1,0,0,1,0.25,91.949996948)">
							<text>
								<tspan x="0" y="11.350000381" font-family="Saira Semi Condensed" font-weight="normal" font-style="normal" font-size="10" fill="#494949">
									Managed weekly schedules and requests for leave.
								</tspan>
							</text>
						</g>
						<g transform="matrix(1,0,0,1,0.25,107.690002441)">
							<text>
								<tspan x="0" y="26.350000381" font-family="Saira Semi Condensed" font-weight="bold" font-style="normal" font-size="10" fill="#494949">
									PHARMACIST
								</tspan>
								<tspan x="55.560001373" y="26.350000381" font-family="Saira Semi Condensed" font-weight="normal" font-style="normal" font-size="10" fill="#494949">
									02/2013 to 05/2017
								</tspan>
							</text>
						</g>
						<g transform="matrix(1,0,0,1,0.25,138.429992676)">
							<text>
								<tspan x="0" y="11.350000381" font-family="Saira Semi Condensed" font-weight="bold" font-style="normal" font-size="10" fill="#494949">
									L Pharma
								</tspan>
								<tspan x="38.810001373" y="11.350000381" font-family="Saira Semi Condensed" font-weight="normal" font-style="normal" font-size="10" fill="#494949">
									, Birmingham
								</tspan>
							</text>
						</g>
						<g transform="matrix(1,0,0,1,0.25,154.169998169)">
							<text>
								<tspan x="0" y="17.350000381" font-family="Saira Semi Condensed" font-weight="normal" font-style="normal" font-size="10" fill="#494949">
									Used pharmacy software Meditab to verify prescription and insurance information.
								</tspan>
							</text>
						</g>
						<g transform="matrix(1,0,0,1,0.25,175.910003662)">
							<text>
								<tspan x="0" y="11.350000381" font-family="Saira Semi Condensed" font-weight="normal" font-style="normal" font-size="10" fill="#494949">
									Compounded and prepared medications according to prescription orders for more than 160 prescriptions every
								</tspan>
								<tspan x="0" y="27.090000153" font-family="Saira Semi Condensed" font-weight="normal" font-style="normal" font-size="10" fill="#494949">
									week.
								</tspan>
							</text>
						</g>
						<g transform="matrix(1,0,0,1,0.25,207.38999939)">
							<text>
								<tspan x="0" y="11.350000381" font-family="Saira Semi Condensed" font-weight="normal" font-style="normal" font-size="10" fill="#494949">
									Solicited medical history information from patients to provide best and most effective medical advice.
								</tspan>
							</text>
						</g>
					</g>
				</g>
				<g transform="matrix(1,0,0,1,0,433.059997559)">
					<text>
						<tspan x="0" y="22.700000763" font-family="Saira Semi Condensed" font-weight="normal" font-style="normal" font-size="20" fill="#494949">
						</tspan>
					</text>
				</g>
				<g transform="matrix(1,0,0,1,0.600000024,464.540008545)">
					<path d="M0,1.5 L552,1.5 " stroke-width="1" stroke-miterlimit="10" stroke="#2c806f" fill="none" fill-rule="evenodd">
					</path>
				</g>
				<g transform="matrix(1,0,0,1,0,466.540008545)">
					<g transform="matrix(1,0,0,1,0,0)" clip-path="url(#clip8)">
						<g transform="matrix(1,0,0,1,0.25,5.25)">
							<text>
								<tspan x="0" y="13.619999886" font-family="Saira Semi Condensed" font-weight="bold" font-style="normal" font-size="12" fill="#494949">
									Skills
								</tspan>
							</text>
						</g>
					</g>
				</g>
				<g transform="matrix(1,0,0,1,97.25,471.790008545)">
					<g transform="matrix(1,0,0,1,0,0)" clip-path="url(#clip9)">
						<g transform="matrix(1,0,0,1,1.649999976,2.25)">
							<text>
								<tspan x="-0.5" y="10.600000381" font-family="Times New Roman" font-weight="normal" font-style="normal" font-size="7.5" fill="#494949">
									●
								</tspan>
								<tspan x="9.600000381" y="11.350000381" font-family="Saira Semi Condensed" font-weight="normal" font-style="normal" font-size="10" fill="#494949">
									Interpreting orders
								</tspan>
							</text>
						</g>
						<g transform="matrix(1,0,0,1,1.649999976,17.989999771)">
							<text>
								<tspan x="-0.5" y="10.600000381" font-family="Times New Roman" font-weight="normal" font-style="normal" font-size="7.5" fill="#494949">
									●
								</tspan>
								<tspan x="9.600000381" y="11.350000381" font-family="Saira Semi Condensed" font-weight="normal" font-style="normal" font-size="10" fill="#494949">
									Dosing recommendations
								</tspan>
							</text>
						</g>
						<g transform="matrix(1,0,0,1,1.649999976,33.729999542)">
							<text>
								<tspan x="-0.5" y="10.600000381" font-family="Times New Roman" font-weight="normal" font-style="normal" font-size="7.5" fill="#494949">
									●
								</tspan>
								<tspan x="9.600000381" y="11.350000381" font-family="Saira Semi Condensed" font-weight="normal" font-style="normal" font-size="10" fill="#494949">
									Compounding abilities
								</tspan>
							</text>
						</g>
						<g transform="matrix(1,0,0,1,1.649999976,49.470001221)">
							<text>
								<tspan x="-0.5" y="10.600000381" font-family="Times New Roman" font-weight="normal" font-style="normal" font-size="7.5" fill="#494949">
									●
								</tspan>
								<tspan x="9.600000381" y="11.350000381" font-family="Saira Semi Condensed" font-weight="normal" font-style="normal" font-size="10" fill="#494949">
									Employee training
								</tspan>
							</text>
						</g>
						<g transform="matrix(1,0,0,1,1.649999976,65.209999084)">
							<text>
								<tspan x="-0.5" y="10.600000381" font-family="Times New Roman" font-weight="normal" font-style="normal" font-size="7.5" fill="#494949">
									●
								</tspan>
								<tspan x="9.600000381" y="11.350000381" font-family="Saira Semi Condensed" font-weight="normal" font-style="normal" font-size="10" fill="#494949">
									Dispensing medicines
								</tspan>
							</text>
						</g>
					</g>
					<g transform="matrix(1,0,0,1,151.5,0)" clip-path="url(#clip10)">
						<g transform="matrix(1,0,0,1,1.649999976,2.25)">
							<text>
								<tspan x="-0.5" y="10.600000381" font-family="Times New Roman" font-weight="normal" font-style="normal" font-size="7.5" fill="#494949">
									●
								</tspan>
								<tspan x="9.600000381" y="11.350000381" font-family="Saira Semi Condensed" font-weight="normal" font-style="normal" font-size="10" fill="#494949">
									Customer relations
								</tspan>
							</text>
						</g>
						<g transform="matrix(1,0,0,1,1.649999976,17.989999771)">
							<text>
								<tspan x="-0.5" y="10.600000381" font-family="Times New Roman" font-weight="normal" font-style="normal" font-size="7.5" fill="#494949">
									●
								</tspan>
								<tspan x="9.600000381" y="11.350000381" font-family="Saira Semi Condensed" font-weight="normal" font-style="normal" font-size="10" fill="#494949">
									Resolving complaints
								</tspan>
							</text>
						</g>
						<g transform="matrix(1,0,0,1,1.649999976,33.729999542)">
							<text>
								<tspan x="-0.5" y="10.600000381" font-family="Times New Roman" font-weight="normal" font-style="normal" font-size="7.5" fill="#494949">
									●
								</tspan>
								<tspan x="9.600000381" y="11.350000381" font-family="Saira Semi Condensed" font-weight="normal" font-style="normal" font-size="10" fill="#494949">
									Sales skills
								</tspan>
							</text>
						</g>
						<g transform="matrix(1,0,0,1,1.649999976,49.470001221)">
							<text>
								<tspan x="-0.5" y="10.600000381" font-family="Times New Roman" font-weight="normal" font-style="normal" font-size="7.5" fill="#494949">
									●
								</tspan>
								<tspan x="9.600000381" y="11.350000381" font-family="Saira Semi Condensed" font-weight="normal" font-style="normal" font-size="10" fill="#494949">
									Patient education
								</tspan>
							</text>
						</g>
					</g>
					<g transform="matrix(1,0,0,1,303,0)" clip-path="url(#clip11)">
						<g transform="matrix(1,0,0,1,1.649999976,2.25)">
							<text>
								<tspan x="-0.5" y="10.600000381" font-family="Times New Roman" font-weight="normal" font-style="normal" font-size="7.5" fill="#494949">
									●
								</tspan>
								<tspan x="9.600000381" y="11.350000381" font-family="Saira Semi Condensed" font-weight="normal" font-style="normal" font-size="10" fill="#494949">
									Attention to detail
								</tspan>
							</text>
						</g>
						<g transform="matrix(1,0,0,1,1.649999976,17.989999771)">
							<text>
								<tspan x="-0.5" y="10.600000381" font-family="Times New Roman" font-weight="normal" font-style="normal" font-size="7.5" fill="#494949">
									●
								</tspan>
								<tspan x="9.600000381" y="11.350000381" font-family="Saira Semi Condensed" font-weight="normal" font-style="normal" font-size="10" fill="#494949">
									Communication skills
								</tspan>
							</text>
						</g>
						<g transform="matrix(1,0,0,1,1.649999976,33.729999542)">
							<text>
								<tspan x="-0.5" y="10.600000381" font-family="Times New Roman" font-weight="normal" font-style="normal" font-size="7.5" fill="#494949">
									●
								</tspan>
								<tspan x="9.600000381" y="11.350000381" font-family="Saira Semi Condensed" font-weight="normal" font-style="normal" font-size="10" fill="#494949">
									Time management
								</tspan>
							</text>
						</g>
						<g transform="matrix(1,0,0,1,1.649999976,49.470001221)">
							<text>
								<tspan x="-0.5" y="10.600000381" font-family="Times New Roman" font-weight="normal" font-style="normal" font-size="7.5" fill="#494949">
									●
								</tspan>
								<tspan x="9.600000381" y="11.350000381" font-family="Saira Semi Condensed" font-weight="normal" font-style="normal" font-size="10" fill="#494949">
									Project management
								</tspan>
							</text>
						</g>
					</g>
				</g>
				<g transform="matrix(1,0,0,1,0,554.814025879)">
					<text>
						<tspan x="0" y="22.700000763" font-family="Saira Semi Condensed" font-weight="normal" font-style="normal" font-size="20" fill="#494949">
						</tspan>
					</text>
				</g>
				<g transform="matrix(1,0,0,1,0.600000024,586.294006348)">
					<path d="M0,1.5 L552,1.5 " stroke-width="1" stroke-miterlimit="10" stroke="#2c806f" fill="none" fill-rule="evenodd">
					</path>
				</g>
				<g transform="matrix(1,0,0,1,0,588.294006348)">
					<g transform="matrix(1,0,0,1,0,0)" clip-path="url(#clip12)">
						<g transform="matrix(1,0,0,1,0.25,5.25)">
							<text>
								<tspan x="0" y="13.619999886" font-family="Saira Semi Condensed" font-weight="bold" font-style="normal" font-size="12" fill="#494949">
									Education
								</tspan>
							</text>
						</g>
					</g>
					<g transform="matrix(1,0,0,1,97,0)" clip-path="url(#clip13)">
						<g transform="matrix(1,0,0,1,0.25,5.25)">
							<text>
								<tspan x="0" y="13.350000381" font-family="Saira Semi Condensed" font-weight="bold" font-style="normal" font-size="10" fill="#494949">
									Birmingham University
								</tspan>
								<tspan x="94.180000305" y="13.350000381" font-family="Saira Semi Condensed" font-weight="normal" font-style="normal" font-size="10" fill="#494949">
									, Birmingham
								</tspan>
							</text>
						</g>
						<g transform="matrix(1,0,0,1,0.25,22.989999771)">
							<text>
								<tspan x="0" y="11.350000381" font-family="Saira Semi Condensed" font-weight="bold" font-style="normal" font-size="10" fill="#494949">
									Masters degree in pharmacy,
								</tspan>
								<tspan x="120.88999939" y="11.350000381" font-family="Saira Semi Condensed" font-weight="normal" font-style="normal" font-size="10" fill="#494949">
									2010
								</tspan>
							</text>
						</g>
					</g>
				</g>
				<g transform="matrix(1,0,0,1,0,627.273986816)">
					<text>
						<tspan x="0" y="22.700000763" font-family="Saira Semi Condensed" font-weight="normal" font-style="normal" font-size="20" fill="#494949">
						</tspan>
					</text>
				</g>
				<g transform="matrix(1,0,0,1,0.600000024,658.75402832)">
					<path d="M0,1.5 L552,1.5 " stroke-width="1" stroke-miterlimit="10" stroke="#2c806f" fill="none" fill-rule="evenodd">
					</path>
				</g>
			</g>
			<g transform="matrix(1,0,0,1,0,60.557998657)">
				<path d="M0,0 L0,15 L612,15 Z" fill="#abccc5" fill-rule="evenodd">
				</path>
				<path d="M0,0 L0,15 L612,15 Z" stroke-width="0.75" stroke-miterlimit="10" stroke="#abccc5" fill="none" fill-rule="evenodd">
				</path>
			</g>
		</g>
	</g>
</svg>
