<?xml version="1.0" encoding="utf-8" standalone="yes"?><svg xmlns="http://www.w3.org/2000/svg" xmlns:xlink="http://www.w3.org/1999/xlink" version="1.1" width="816" height="1056"><!--Generated by Aspose.Words for .NET 18.5--><defs><clipPath id="clip1"><path d="M-1,-1 L301.399993896,-1 L301.399993896,49 L-1,49 Z" clip-rule="evenodd"></path></clipPath><clipPath id="clip2"><path d="M-1,-1 L232.600006104,-1 L232.600006104,49 L-1,49 Z" clip-rule="evenodd"></path></clipPath><clipPath id="clip3"><path d="M-1,-1 L266.899993896,-1 L266.899993896,68.449996948 L-1,68.449996948 Z" clip-rule="evenodd"></path></clipPath><clipPath id="clip4"><path d="M-0.5,-1 L266.899993896,-1 L266.899993896,68.449996948 L-0.5,68.449996948 Z" clip-rule="evenodd"></path></clipPath><style type="text/css">svg{background:white}</style></defs><g transform="scale(1.33333)"><g><path d="M0,0 L600,0 L600,450 L0,450 Z" fill="#ffffff" fill-rule="evenodd"></path><g transform="matrix(1,0,0,1,600,0)"><path d="M0,0 L600,0 L600,450 L0,450 Z" fill="#ffffff" fill-rule="evenodd"></path></g><g transform="matrix(1,0,0,1,0,450)"><path d="M0,0 L600,0 L600,450 L0,450 Z" fill="#ffffff" fill-rule="evenodd"></path></g><g transform="matrix(1,0,0,1,600,450)"><path d="M0,0 L600,0 L600,450 L0,450 Z" fill="#ffffff" fill-rule="evenodd"></path></g><g transform="matrix(1,0,0,1,40,30)"><text><tspan x="0" y="25.697999954" font-family="Arial" font-weight="bold" font-style="normal" font-size="21" fill="#000000">Lily French</tspan></text><g transform="matrix(1,0,0,1,0,32.14799881)"><text><tspan x="0" y="0.938000023" font-family="Arial" font-weight="normal" font-style="normal" font-size="1" fill="#000000"> </tspan></text></g><g transform="matrix(1,0,0,1,0,33.298000336)"><g transform="matrix(1,0,0,1,0,0)" clip-path="url(#clip1)"><g transform="matrix(1,0,0,1,0,6)"><text><tspan x="0" y="11.880999565" font-family="Arial" font-weight="normal" font-style="normal" font-size="10" fill="#000000"></tspan></text></g><g transform="matrix(1,0,0,1,0,20)"><text><tspan x="0" y="11.880999565" font-family="Arial" font-weight="normal" font-style="normal" font-size="10" fill="#000000">Bradford, BD1 6YU</tspan></text></g></g><g transform="matrix(1,0,0,1,300.399993896,0)" clip-path="url(#clip2)"><g transform="matrix(1,0,0,1,0,6)"><text><tspan x="165.408996582" y="11.880999565" font-family="Arial" font-weight="normal" font-style="normal" font-size="10" fill="#000000"> 07941 234 567</tspan></text></g><g transform="matrix(1,0,0,1,0,20)"><text><tspan x="115.858001709" y="11.880999565" font-family="Arial" font-weight="normal" font-style="normal" font-size="10" fill="#000000">lily.french@example.co.uk</tspan></text></g></g></g><g transform="matrix(1,0,0,1,0,81.297996521)"><text><tspan x="238.654006958" y="17.457000732" font-family="Arial" font-weight="bold" font-style="normal" font-size="12" fill="#000000">Summary</tspan></text></g><g transform="matrix(1,0,0,1,0,102.297996521)"><text><tspan x="0" y="10.668999672" font-family="Arial" font-weight="normal" font-style="normal" font-size="11" fill="#000000">Highly organised and disciplined pharmacy leader with excellent communication and conflict resolution skills. </tspan><tspan x="0" y="23.668998718" font-family="Arial" font-weight="normal" font-style="normal" font-size="11" fill="#000000">Competent in managing supplies, reviewing service quality, and maintaining patient confidentiality and </tspan><tspan x="0" y="36.668998718" font-family="Arial" font-weight="normal" font-style="normal" font-size="11" fill="#000000">satisfaction. Skilled at ordering, storing, and preparing medications for customer use. Accomplished in </tspan><tspan x="0" y="49.668998718" font-family="Arial" font-weight="normal" font-style="normal" font-size="11" fill="#000000">increasing customer satisfaction while improving controls, team operations, and loss prevention strategies. </tspan><tspan x="0" y="62.668998718" font-family="Arial" font-weight="normal" font-style="normal" font-size="11" fill="#000000">Knowledgeable in preparing special compounds.</tspan></text></g><g transform="matrix(1,0,0,1,0,167.29800415)"><text><tspan x="233.981002808" y="17.457000732" font-family="Arial" font-weight="bold" font-style="normal" font-size="12" fill="#000000">Experience</tspan></text></g><g transform="matrix(1,0,0,1,0,188.29800415)"><text><tspan x="0" y="10.668999672" font-family="Arial" font-weight="bold" font-style="normal" font-size="11" fill="#000000">Pharmacist</tspan><tspan x="59.307998657" y="10.668999672" font-family="Arial" font-weight="normal" font-style="normal" font-size="11" fill="#000000"> </tspan><tspan x="439.057006836" y="10.668999672" font-family="Arial" font-weight="normal" font-style="normal" font-size="11" fill="#000000"> 06/2017</tspan><tspan x="481.875" y="10.668999672" font-family="Arial" font-weight="normal" font-style="normal" font-size="8" fill="#000000"> </tspan><tspan x="484.097991943" y="10.668999672" font-family="MS Mincho" font-weight="normal" font-style="normal" font-size="8" fill="#000000">－</tspan><tspan x="492.097991943" y="10.668999672" font-family="Arial" font-weight="normal" font-style="normal" font-size="8" fill="#000000"> </tspan><tspan x="494.321014404" y="10.668999672" font-family="Arial" font-weight="normal" font-style="normal" font-size="11" fill="#000000">Current </tspan></text></g><g transform="matrix(1,0,0,1,0,201.29800415)"><text><tspan x="0" y="10.668999672" font-family="Arial" font-weight="normal" font-style="normal" font-size="11" fill="#000000">King Chemist </tspan><tspan x="469.259002686" y="10.668999672" font-family="Arial" font-weight="normal" font-style="normal" font-size="11" fill="#000000"> Birmingham </tspan></text></g><g transform="matrix(1,0,0,1,18.950000763,214.29800415)"><text><tspan x="-0.5" y="10.309000015" font-family="Times New Roman" font-weight="normal" font-style="normal" font-size="8.25" fill="#000000">●</tspan><tspan x="13.050000191" y="11.059000015" font-family="Arial" font-weight="normal" font-style="normal" font-size="11" fill="#000000">Checked more than 30 patient orders against histories each day, assessed insurance coverage and </tspan><tspan x="13.050000191" y="24.059000015" font-family="Arial" font-weight="normal" font-style="normal" font-size="11" fill="#000000">counted out medicines.</tspan></text></g><g transform="matrix(1,0,0,1,18.950000763,240.68800354)"><text><tspan x="-0.5" y="10.309000015" font-family="Times New Roman" font-weight="normal" font-style="normal" font-size="8.25" fill="#000000">●</tspan><tspan x="13.050000191" y="11.059000015" font-family="Arial" font-weight="normal" font-style="normal" font-size="11" fill="#000000">Provided patient counselling regarding OTC medications.</tspan></text></g><g transform="matrix(1,0,0,1,18.950000763,254.07800293)"><text><tspan x="-0.5" y="10.309000015" font-family="Times New Roman" font-weight="normal" font-style="normal" font-size="8.25" fill="#000000">●</tspan><tspan x="13.050000191" y="11.059000015" font-family="Arial" font-weight="normal" font-style="normal" font-size="11" fill="#000000">Managed weekly schedules and requests for leave.</tspan></text></g><g transform="matrix(1,0,0,1,0,267.467987061)"><text><tspan x="0" y="13.668999672" font-family="Arial" font-weight="bold" font-style="normal" font-size="11" fill="#000000">Pharmacist</tspan><tspan x="59.307998657" y="13.668999672" font-family="Arial" font-weight="normal" font-style="normal" font-size="11" fill="#000000"> </tspan><tspan x="435.973999023" y="13.668999672" font-family="Arial" font-weight="normal" font-style="normal" font-size="11" fill="#000000"> 02/2013</tspan><tspan x="478.791992188" y="13.668999672" font-family="Arial" font-weight="normal" font-style="normal" font-size="8" fill="#000000"> </tspan><tspan x="481.015014648" y="13.668999672" font-family="MS Mincho" font-weight="normal" font-style="normal" font-size="8" fill="#000000">－</tspan><tspan x="489.015014648" y="13.668999672" font-family="Arial" font-weight="normal" font-style="normal" font-size="8" fill="#000000"> </tspan><tspan x="491.238006592" y="13.668999672" font-family="Arial" font-weight="normal" font-style="normal" font-size="11" fill="#000000">05/2017 </tspan></text></g><g transform="matrix(1,0,0,1,0,283.467987061)"><text><tspan x="0" y="10.668999672" font-family="Arial" font-weight="normal" font-style="normal" font-size="11" fill="#000000">L Pharma </tspan><tspan x="469.259002686" y="10.668999672" font-family="Arial" font-weight="normal" font-style="normal" font-size="11" fill="#000000"> Birmingham </tspan></text></g><g transform="matrix(1,0,0,1,18.950000763,296.467987061)"><text><tspan x="-0.5" y="10.309000015" font-family="Times New Roman" font-weight="normal" font-style="normal" font-size="8.25" fill="#000000">●</tspan><tspan x="13.050000191" y="11.059000015" font-family="Arial" font-weight="normal" font-style="normal" font-size="11" fill="#000000">Used pharmacy software Meditab to verify prescription and insurance information.</tspan></text></g><g transform="matrix(1,0,0,1,18.950000763,309.858001709)"><text><tspan x="-0.5" y="10.309000015" font-family="Times New Roman" font-weight="normal" font-style="normal" font-size="8.25" fill="#000000">●</tspan><tspan x="13.050000191" y="11.059000015" font-family="Arial" font-weight="normal" font-style="normal" font-size="11" fill="#000000">Compounded and prepared medications according to prescription orders for more than 160 </tspan><tspan x="13.050000191" y="24.059000015" font-family="Arial" font-weight="normal" font-style="normal" font-size="11" fill="#000000">prescriptions every week.</tspan></text></g><g transform="matrix(1,0,0,1,18.950000763,336.24798584)"><text><tspan x="-0.5" y="10.309000015" font-family="Times New Roman" font-weight="normal" font-style="normal" font-size="8.25" fill="#000000">●</tspan><tspan x="13.050000191" y="11.059000015" font-family="Arial" font-weight="normal" font-style="normal" font-size="11" fill="#000000">Solicited medical history information from patients to provide best and most effective medical advice.</tspan></text></g><g transform="matrix(1,0,0,1,0,349.638000488)"><text><tspan x="250.322998047" y="17.457000732" font-family="Arial" font-weight="bold" font-style="normal" font-size="12" fill="#000000">Skills</tspan></text></g><g transform="matrix(1,0,0,1,0,370.638000488)"><g transform="matrix(1,0,0,1,0,0)" clip-path="url(#clip3)"><g transform="matrix(1,0,0,1,19.200000763,0.25)"><text><tspan x="-0.5" y="10.309000015" font-family="Times New Roman" font-weight="normal" font-style="normal" font-size="8.25" fill="#000000">●</tspan><tspan x="13.050000191" y="11.059000015" font-family="Arial" font-weight="normal" font-style="normal" font-size="11" fill="#000000">Interpreting orders</tspan></text></g><g transform="matrix(1,0,0,1,19.200000763,13.640000343)"><text><tspan x="-0.5" y="10.309000015" font-family="Times New Roman" font-weight="normal" font-style="normal" font-size="8.25" fill="#000000">●</tspan><tspan x="13.050000191" y="11.059000015" font-family="Arial" font-weight="normal" font-style="normal" font-size="11" fill="#000000">Dosing recommendations</tspan></text></g><g transform="matrix(1,0,0,1,19.200000763,27.030000687)"><text><tspan x="-0.5" y="10.309000015" font-family="Times New Roman" font-weight="normal" font-style="normal" font-size="8.25" fill="#000000">●</tspan><tspan x="13.050000191" y="11.059000015" font-family="Arial" font-weight="normal" font-style="normal" font-size="11" fill="#000000">Compounding abilities</tspan></text></g><g transform="matrix(1,0,0,1,19.200000763,40.419998169)"><text><tspan x="-0.5" y="10.309000015" font-family="Times New Roman" font-weight="normal" font-style="normal" font-size="8.25" fill="#000000">●</tspan><tspan x="13.050000191" y="11.059000015" font-family="Arial" font-weight="normal" font-style="normal" font-size="11" fill="#000000">Employee training</tspan></text></g><g transform="matrix(1,0,0,1,19.200000763,53.810001373)"><text><tspan x="-0.5" y="10.309000015" font-family="Times New Roman" font-weight="normal" font-style="normal" font-size="8.25" fill="#000000">●</tspan><tspan x="13.050000191" y="11.059000015" font-family="Arial" font-weight="normal" font-style="normal" font-size="11" fill="#000000">Dispensing medicines</tspan></text></g></g><g transform="matrix(1,0,0,1,265.899993896,0)" clip-path="url(#clip4)"><g transform="matrix(1,0,0,1,19.450000763,0.25)"><text><tspan x="-0.5" y="10.309000015" font-family="Times New Roman" font-weight="normal" font-style="normal" font-size="8.25" fill="#000000">●</tspan><tspan x="13.050000191" y="11.059000015" font-family="Arial" font-weight="normal" font-style="normal" font-size="11" fill="#000000">Customer relations</tspan></text></g><g transform="matrix(1,0,0,1,19.450000763,13.640000343)"><text><tspan x="-0.5" y="10.309000015" font-family="Times New Roman" font-weight="normal" font-style="normal" font-size="8.25" fill="#000000">●</tspan><tspan x="13.050000191" y="11.059000015" font-family="Arial" font-weight="normal" font-style="normal" font-size="11" fill="#000000">Resolving complaints</tspan></text></g><g transform="matrix(1,0,0,1,19.450000763,27.030000687)"><text><tspan x="-0.5" y="10.309000015" font-family="Times New Roman" font-weight="normal" font-style="normal" font-size="8.25" fill="#000000">●</tspan><tspan x="13.050000191" y="11.059000015" font-family="Arial" font-weight="normal" font-style="normal" font-size="11" fill="#000000">Sales skills</tspan></text></g><g transform="matrix(1,0,0,1,19.450000763,40.419998169)"><text><tspan x="-0.5" y="10.309000015" font-family="Times New Roman" font-weight="normal" font-style="normal" font-size="8.25" fill="#000000">●</tspan><tspan x="13.050000191" y="11.059000015" font-family="Arial" font-weight="normal" font-style="normal" font-size="11" fill="#000000">Patient education</tspan></text></g></g><path d="M265.899993896,0 L265.899993896,67.449996948 " stroke-width="1" stroke-miterlimit="10" stroke="#fefdfd" fill="none" fill-rule="evenodd"></path></g><g transform="matrix(1,0,0,1,0,438.088012695)"><text><tspan x="236.99899292" y="17.457000732" font-family="Arial" font-weight="bold" font-style="normal" font-size="12" fill="#000000">Education</tspan></text></g><g transform="matrix(1,0,0,1,0,459.088012695)"><text><tspan x="0" y="10.668999672" font-family="Arial" font-weight="bold" font-style="normal" font-size="11" fill="#000000">Masters degree in pharmacy:</tspan><tspan x="152.227005005" y="10.668999672" font-family="Arial" font-weight="normal" font-style="normal" font-size="11" fill="#000000"> </tspan><tspan x="155.283004761" y="10.668999672" font-family="Arial" font-weight="bold" font-style="normal" font-size="11" fill="#000000">Birmingham University</tspan><tspan x="275.70300293" y="10.668999672" font-family="Arial" font-weight="normal" font-style="normal" font-size="11" fill="#000000"> </tspan><tspan x="503.472991943" y="10.668999672" font-family="Arial" font-weight="normal" font-style="normal" font-size="11" fill="#000000"> 2010 </tspan></text></g><g transform="matrix(1,0,0,1,0,472.088012695)"><text><tspan x="0" y="10.668999672" font-family="Arial" font-weight="bold" font-style="normal" font-size="11" fill="#000000">Birmingham</tspan><tspan x="64.174003601" y="10.668999672" font-family="Arial" font-weight="normal" font-style="normal" font-size="11" fill="#000000"> </tspan></text></g><g transform="matrix(1,0,0,1,0,485.088012695)"><text><tspan x="202.007003784" y="17.457000732" font-family="Arial" font-weight="bold" font-style="normal" font-size="12" fill="#000000">Additional Information</tspan></text></g><g transform="matrix(1,0,0,1,0,506.088012695)"><text><tspan x="0" y="10.668999672" font-family="Arial" font-weight="normal" font-style="normal" font-size="11" fill="#000000">Registered at General Pharmaceutical Council.</tspan></text></g></g></g></g></svg>