<?xml version="1.0" encoding="utf-8" standalone="yes"?>
<svg xmlns="http://www.w3.org/2000/svg" xmlns:xlink="http://www.w3.org/1999/xlink" version="1.1" width="816" height="1056">
	<!-- Generated by Aspose.Words for .NET 18.5 -->
	<defs>
		<clipPath id="clip1">
			<path d="M-1,-1 L91,-1 L91,91 L-1,91 Z" clip-rule="evenodd">
			</path>
		</clipPath>
		<clipPath id="clip2">
			<path d="M-1,-1 L443,-1 L443,91 L-1,91 Z" clip-rule="evenodd">
			</path>
		</clipPath>
		<clipPath id="clip3">
			<path d="M-1,-1 L91,-1 L91,108 L-1,108 Z" clip-rule="evenodd">
			</path>
		</clipPath>
		<clipPath id="clip4">
			<path d="M-1,-1 L443,-1 L443,108 L-1,108 Z" clip-rule="evenodd">
			</path>
		</clipPath>
		<clipPath id="clip5">
			<path d="M-1,-1 L221.899993896,-1 L221.899993896,76.5 L-1,76.5 Z" clip-rule="evenodd">
			</path>
		</clipPath>
		<clipPath id="clip6">
			<path d="M-0.5,-1 L221.899993896,-1 L221.899993896,76.5 L-0.5,76.5 Z" clip-rule="evenodd">
			</path>
		</clipPath>
		<clipPath id="clip7">
			<path d="M-1,-1 L91,-1 L91,31 L-1,31 Z" clip-rule="evenodd">
			</path>
		</clipPath>
		<clipPath id="clip8">
			<path d="M-1,-1 L443,-1 L443,31 L-1,31 Z" clip-rule="evenodd">
			</path>
		</clipPath>
		<style type="text/css">
			svg{background:white}@font-face{font-family:'Palatino Linotype';font-weight:normal;font-style:normal;src:local('Palatino Linotype'),url('https://lccontentprod.blob.core.windows.net/fonts/pala.ttf') format('truetype')}@font-face{font-family:'Palatino Linotype';font-weight:bold;font-style:normal;src:local('Palatino Linotype Bold'),url('https://lccontentprod.blob.core.windows.net/fonts/palab.ttf') format('truetype')}@font-face{font-family:'Palatino Linotype';font-weight:bold;font-style:italic;src:local('Palatino Linotype Bold Italic'),url('https://lccontentprod.blob.core.windows.net/fonts/palabi.ttf') format('truetype')}@font-face{font-family:'Palatino Linotype';font-weight:normal;font-style:italic;src:local('Palatino Linotype Italic'),url('https://lccontentprod.blob.core.windows.net/fonts/palai.ttf') format('truetype')}
		</style>
	</defs>
	<g transform="scale(1.33333)">
		<g>
			<path d="M0,0 L600,0 L600,450 L0,450 Z" fill="#ffffff" fill-rule="evenodd">
			</path>
			<g transform="matrix(1,0,0,1,600,0)">
				<path d="M0,0 L600,0 L600,450 L0,450 Z" fill="#ffffff" fill-rule="evenodd">
				</path>
			</g>
			<g transform="matrix(1,0,0,1,0,450)">
				<path d="M0,0 L600,0 L600,450 L0,450 Z" fill="#ffffff" fill-rule="evenodd">
				</path>
			</g>
			<g transform="matrix(1,0,0,1,600,450)">
				<path d="M0,0 L600,0 L600,450 L0,450 Z" fill="#ffffff" fill-rule="evenodd">
				</path>
			</g>
			<g transform="matrix(1,0,0,1,40,37)">
				<text>
					<tspan x="217.768997192" y="25.611999512" font-family="Palatino Linotype" font-weight="bold" font-style="normal" font-size="18" fill="#000000">
						Lily French
					</tspan>
				</text>
				<g transform="matrix(1,0,0,1,0,31)">
					<text>
						<tspan x="231.962005615" y="11.006999969" font-family="Palatino Linotype" font-weight="normal" font-style="normal" font-size="10" fill="#000000">
							
						</tspan>
					</text>
				</g>
				<g transform="matrix(1,0,0,1,0,45)">
					<text>
						<tspan x="215.011001587" y="11.006999969" font-family="Palatino Linotype" font-weight="normal" font-style="normal" font-size="10" fill="#000000">
							Bradford, BD1 6YU
						</tspan>
					</text>
				</g>
				<g transform="matrix(1,0,0,1,0,59)">
					<text>
						<tspan x="231.270996094" y="11.006999969" font-family="Palatino Linotype" font-weight="normal" font-style="normal" font-size="10" fill="#000000">
							07941 234 567
						</tspan>
					</text>
				</g>
				<g transform="matrix(1,0,0,1,0,73)">
					<text>
						<tspan x="200.272994995" y="11.006999969" font-family="Palatino Linotype" font-weight="normal" font-style="normal" font-size="10" fill="#000000">
							lily.french@example.co.uk
						</tspan>
					</text>
				</g>
				<g transform="matrix(1,0,0,1,0,87)">
					<text>
						<tspan x="0" y="17.597000122" font-family="Palatino Linotype" font-weight="bold" font-style="normal" font-size="12" fill="#000000">
							Summary
						</tspan>
					</text>
				</g>
				<g transform="matrix(1,0,0,1,90,110.189002991)">
					<text>
						<tspan x="0" y="11.708000183" font-family="Palatino Linotype" font-weight="normal" font-style="normal" font-size="11" fill="#000000">
							Highly organised and disciplined pharmacy leader with excellent communication and
						</tspan>
						<tspan x="0" y="26.708000183" font-family="Palatino Linotype" font-weight="normal" font-style="normal" font-size="11" fill="#000000">
							conflict resolution skills. Competent in managing supplies, reviewing service quality, and
						</tspan>
						<tspan x="0" y="41.708000183" font-family="Palatino Linotype" font-weight="normal" font-style="normal" font-size="11" fill="#000000">
							maintaining patient confidentiality and satisfaction. Skilled at ordering, storing, and
						</tspan>
						<tspan x="0" y="56.708000183" font-family="Palatino Linotype" font-weight="normal" font-style="normal" font-size="11" fill="#000000">
							preparing medications for customer use. Accomplished in increasing customer satisfaction
						</tspan>
						<tspan x="0" y="71.708000183" font-family="Palatino Linotype" font-weight="normal" font-style="normal" font-size="11" fill="#000000">
							while improving controls, team operations, and loss prevention strategies. Knowledgeable
						</tspan>
						<tspan x="0" y="86.708000183" font-family="Palatino Linotype" font-weight="normal" font-style="normal" font-size="11" fill="#000000">
							in preparing special compounds.
						</tspan>
					</text>
				</g>
				<g transform="matrix(1,0,0,1,0,200.188995361)">
					<text>
						<tspan x="0" y="17.597000122" font-family="Palatino Linotype" font-weight="bold" font-style="normal" font-size="12" fill="#000000">
							Experience
						</tspan>
					</text>
				</g>
				<g transform="matrix(1,0,0,1,0,223.378005981)">
					<g transform="matrix(1,0,0,1,0,0)" clip-path="url(#clip1)">
						<text>
							<tspan x="23.763999939" y="12.006999969" font-family="Palatino Linotype" font-weight="normal" font-style="normal" font-size="10" fill="#000000">
								June 2017
							</tspan>
						</text>
						<g transform="matrix(1,0,0,1,0,15)">
							<text>
								<tspan x="40.638999939" y="12.006999969" font-family="Palatino Linotype" font-weight="normal" font-style="normal" font-size="10" fill="#000000">
									to
								</tspan>
							</text>
						</g>
						<g transform="matrix(1,0,0,1,0,30)">
							<text>
								<tspan x="27.552999496" y="12.006999969" font-family="Palatino Linotype" font-weight="normal" font-style="normal" font-size="10" fill="#000000">
									Current
								</tspan>
							</text>
						</g>
					</g>
					<g transform="matrix(1,0,0,1,90,0)" clip-path="url(#clip2)">
						<text>
							<tspan x="0" y="11.708000183" font-family="Palatino Linotype" font-weight="bold" font-style="normal" font-size="11" fill="#000000">
								King Chemist
							</tspan>
							<tspan x="69.861000061" y="11.708000183" font-family="Palatino Linotype" font-weight="normal" font-style="normal" font-size="11" fill="#000000">
							</tspan>
							<tspan x="376.938995361" y="11.708000183" font-family="Palatino Linotype" font-weight="normal" font-style="normal" font-size="11" fill="#000000">
								Birmingham
							</tspan>
						</text>
						<g transform="matrix(1,0,0,1,0,15)">
							<text>
								<tspan x="0" y="11.708000183" font-family="Palatino Linotype" font-weight="bold" font-style="normal" font-size="11" fill="#000000">
									Pharmacist
								</tspan>
							</text>
						</g>
						<g transform="matrix(1,0,0,1,18.950000763,30)">
							<text>
								<tspan x="-0.5" y="10.958000183" font-family="Times New Roman" font-weight="normal" font-style="normal" font-size="8.25" fill="#000000">
									●
								</tspan>
								<tspan x="13.050000191" y="11.708000183" font-family="Palatino Linotype" font-weight="normal" font-style="normal" font-size="11" fill="#000000">
									Checked more than 30 patient orders against histories each day, assessed insurance
								</tspan>
								<tspan x="13.050000191" y="26.708000183" font-family="Palatino Linotype" font-weight="normal" font-style="normal" font-size="11" fill="#000000">
									coverage and counted out medicines.
								</tspan>
							</text>
						</g>
						<g transform="matrix(1,0,0,1,18.950000763,60)">
							<text>
								<tspan x="-0.5" y="10.958000183" font-family="Times New Roman" font-weight="normal" font-style="normal" font-size="8.25" fill="#000000">
									●
								</tspan>
								<tspan x="13.050000191" y="11.708000183" font-family="Palatino Linotype" font-weight="normal" font-style="normal" font-size="11" fill="#000000">
									Provided patient counselling regarding OTC medications.
								</tspan>
							</text>
						</g>
						<g transform="matrix(1,0,0,1,18.950000763,75)">
							<text>
								<tspan x="-0.5" y="10.958000183" font-family="Times New Roman" font-weight="normal" font-style="normal" font-size="8.25" fill="#000000">
									●
								</tspan>
								<tspan x="13.050000191" y="11.708000183" font-family="Palatino Linotype" font-weight="normal" font-style="normal" font-size="11" fill="#000000">
									Managed weekly schedules and requests for leave.
								</tspan>
							</text>
						</g>
					</g>
				</g>
				<g transform="matrix(1,0,0,1,0,313.377990723)">
					<g transform="matrix(1,0,0,1,0,0)" clip-path="url(#clip3)">
						<g transform="matrix(1,0,0,1,0,2)">
							<text>
								<tspan x="13.562000275" y="12.006999969" font-family="Palatino Linotype" font-weight="normal" font-style="normal" font-size="10" fill="#000000">
									February 2013
								</tspan>
							</text>
						</g>
						<g transform="matrix(1,0,0,1,0,17)">
							<text>
								<tspan x="40.638999939" y="12.006999969" font-family="Palatino Linotype" font-weight="normal" font-style="normal" font-size="10" fill="#000000">
									to
								</tspan>
							</text>
						</g>
						<g transform="matrix(1,0,0,1,0,32)">
							<text>
								<tspan x="23.739999771" y="12.006999969" font-family="Palatino Linotype" font-weight="normal" font-style="normal" font-size="10" fill="#000000">
									May 2017
								</tspan>
							</text>
						</g>
					</g>
					<g transform="matrix(1,0,0,1,90,0)" clip-path="url(#clip4)">
						<g transform="matrix(1,0,0,1,0,2)">
							<text>
								<tspan x="0" y="11.708000183" font-family="Palatino Linotype" font-weight="bold" font-style="normal" font-size="11" fill="#000000">
									L Pharma
								</tspan>
								<tspan x="47.910999298" y="11.708000183" font-family="Palatino Linotype" font-weight="normal" font-style="normal" font-size="11" fill="#000000">
								</tspan>
								<tspan x="376.938995361" y="11.708000183" font-family="Palatino Linotype" font-weight="normal" font-style="normal" font-size="11" fill="#000000">
									Birmingham
								</tspan>
							</text>
						</g>
						<g transform="matrix(1,0,0,1,0,17)">
							<text>
								<tspan x="0" y="11.708000183" font-family="Palatino Linotype" font-weight="bold" font-style="normal" font-size="11" fill="#000000">
									Pharmacist
								</tspan>
							</text>
						</g>
						<g transform="matrix(1,0,0,1,18.950000763,32)">
							<text>
								<tspan x="-0.5" y="10.958000183" font-family="Times New Roman" font-weight="normal" font-style="normal" font-size="8.25" fill="#000000">
									●
								</tspan>
								<tspan x="13.050000191" y="11.708000183" font-family="Palatino Linotype" font-weight="normal" font-style="normal" font-size="11" fill="#000000">
									Used pharmacy software Meditab to verify prescription and insurance information.
								</tspan>
							</text>
						</g>
						<g transform="matrix(1,0,0,1,18.950000763,47)">
							<text>
								<tspan x="-0.5" y="10.958000183" font-family="Times New Roman" font-weight="normal" font-style="normal" font-size="8.25" fill="#000000">
									●
								</tspan>
								<tspan x="13.050000191" y="11.708000183" font-family="Palatino Linotype" font-weight="normal" font-style="normal" font-size="11" fill="#000000">
									Compounded and prepared medications according to prescription orders for more
								</tspan>
								<tspan x="13.050000191" y="26.708000183" font-family="Palatino Linotype" font-weight="normal" font-style="normal" font-size="11" fill="#000000">
									than 160 prescriptions every week.
								</tspan>
							</text>
						</g>
						<g transform="matrix(1,0,0,1,18.950000763,77)">
							<text>
								<tspan x="-0.5" y="10.958000183" font-family="Times New Roman" font-weight="normal" font-style="normal" font-size="8.25" fill="#000000">
									●
								</tspan>
								<tspan x="13.050000191" y="11.708000183" font-family="Palatino Linotype" font-weight="normal" font-style="normal" font-size="11" fill="#000000">
									Solicited medical history information from patients to provide best and most
								</tspan>
								<tspan x="13.050000191" y="26.708000183" font-family="Palatino Linotype" font-weight="normal" font-style="normal" font-size="11" fill="#000000">
									effective medical advice.
								</tspan>
							</text>
						</g>
					</g>
				</g>
				<g transform="matrix(1,0,0,1,0,420.377990723)">
					<text>
						<tspan x="0" y="17.597000122" font-family="Palatino Linotype" font-weight="bold" font-style="normal" font-size="12" fill="#000000">
							Skills
						</tspan>
					</text>
				</g>
				<g transform="matrix(1,0,0,1,90,443.566986084)">
					<g transform="matrix(1,0,0,1,0,0)" clip-path="url(#clip5)">
						<g transform="matrix(1,0,0,1,19.200000763,0.25)">
							<text>
								<tspan x="-0.5" y="10.958000183" font-family="Times New Roman" font-weight="normal" font-style="normal" font-size="8.25" fill="#000000">
									●
								</tspan>
								<tspan x="13.050000191" y="11.708000183" font-family="Palatino Linotype" font-weight="normal" font-style="normal" font-size="11" fill="#000000">
									Interpreting orders
								</tspan>
							</text>
						</g>
						<g transform="matrix(1,0,0,1,19.200000763,15.25)">
							<text>
								<tspan x="-0.5" y="10.958000183" font-family="Times New Roman" font-weight="normal" font-style="normal" font-size="8.25" fill="#000000">
									●
								</tspan>
								<tspan x="13.050000191" y="11.708000183" font-family="Palatino Linotype" font-weight="normal" font-style="normal" font-size="11" fill="#000000">
									Dosing recommendations
								</tspan>
							</text>
						</g>
						<g transform="matrix(1,0,0,1,19.200000763,30.25)">
							<text>
								<tspan x="-0.5" y="10.958000183" font-family="Times New Roman" font-weight="normal" font-style="normal" font-size="8.25" fill="#000000">
									●
								</tspan>
								<tspan x="13.050000191" y="11.708000183" font-family="Palatino Linotype" font-weight="normal" font-style="normal" font-size="11" fill="#000000">
									Compounding abilities
								</tspan>
							</text>
						</g>
						<g transform="matrix(1,0,0,1,19.200000763,45.25)">
							<text>
								<tspan x="-0.5" y="10.958000183" font-family="Times New Roman" font-weight="normal" font-style="normal" font-size="8.25" fill="#000000">
									●
								</tspan>
								<tspan x="13.050000191" y="11.708000183" font-family="Palatino Linotype" font-weight="normal" font-style="normal" font-size="11" fill="#000000">
									Employee training
								</tspan>
							</text>
						</g>
						<g transform="matrix(1,0,0,1,19.200000763,60.25)">
							<text>
								<tspan x="-0.5" y="10.958000183" font-family="Times New Roman" font-weight="normal" font-style="normal" font-size="8.25" fill="#000000">
									●
								</tspan>
								<tspan x="13.050000191" y="11.708000183" font-family="Palatino Linotype" font-weight="normal" font-style="normal" font-size="11" fill="#000000">
									Dispensing medicines
								</tspan>
							</text>
						</g>
					</g>
					<g transform="matrix(1,0,0,1,220.899993896,0)" clip-path="url(#clip6)">
						<g transform="matrix(1,0,0,1,19.450000763,0.25)">
							<text>
								<tspan x="-0.5" y="10.958000183" font-family="Times New Roman" font-weight="normal" font-style="normal" font-size="8.25" fill="#000000">
									●
								</tspan>
								<tspan x="13.050000191" y="11.708000183" font-family="Palatino Linotype" font-weight="normal" font-style="normal" font-size="11" fill="#000000">
									Customer relations
								</tspan>
							</text>
						</g>
						<g transform="matrix(1,0,0,1,19.450000763,15.25)">
							<text>
								<tspan x="-0.5" y="10.958000183" font-family="Times New Roman" font-weight="normal" font-style="normal" font-size="8.25" fill="#000000">
									●
								</tspan>
								<tspan x="13.050000191" y="11.708000183" font-family="Palatino Linotype" font-weight="normal" font-style="normal" font-size="11" fill="#000000">
									Resolving complaints
								</tspan>
							</text>
						</g>
						<g transform="matrix(1,0,0,1,19.450000763,30.25)">
							<text>
								<tspan x="-0.5" y="10.958000183" font-family="Times New Roman" font-weight="normal" font-style="normal" font-size="8.25" fill="#000000">
									●
								</tspan>
								<tspan x="13.050000191" y="11.708000183" font-family="Palatino Linotype" font-weight="normal" font-style="normal" font-size="11" fill="#000000">
									Sales skills
								</tspan>
							</text>
						</g>
						<g transform="matrix(1,0,0,1,19.450000763,45.25)">
							<text>
								<tspan x="-0.5" y="10.958000183" font-family="Times New Roman" font-weight="normal" font-style="normal" font-size="8.25" fill="#000000">
									●
								</tspan>
								<tspan x="13.050000191" y="11.708000183" font-family="Palatino Linotype" font-weight="normal" font-style="normal" font-size="11" fill="#000000">
									Patient education
								</tspan>
							</text>
						</g>
					</g>
					<path d="M220.899993896,0 L220.899993896,75.5 " stroke-width="1" stroke-miterlimit="10" stroke="#fefdfd" fill="none" fill-rule="evenodd">
					</path>
				</g>
				<g transform="matrix(1,0,0,1,0,519.067016602)">
					<text>
						<tspan x="0" y="17.597000122" font-family="Palatino Linotype" font-weight="bold" font-style="normal" font-size="12" fill="#000000">
							Education
						</tspan>
					</text>
				</g>
				<g transform="matrix(1,0,0,1,0,542.255981445)">
					<g transform="matrix(1,0,0,1,0,0)" clip-path="url(#clip7)">
						<text>
							<tspan x="35" y="12.006999969" font-family="Palatino Linotype" font-weight="normal" font-style="normal" font-size="10" fill="#000000">
								2010
							</tspan>
						</text>
					</g>
					<g transform="matrix(1,0,0,1,90,0)" clip-path="url(#clip8)">
						<text>
							<tspan x="0" y="11.708000183" font-family="Palatino Linotype" font-weight="bold" font-style="normal" font-size="11" fill="#000000">
								Birmingham University
							</tspan>
							<tspan x="119.393997192" y="11.708000183" font-family="Palatino Linotype" font-weight="normal" font-style="normal" font-size="11" fill="#000000">
							</tspan>
							<tspan x="376.938995361" y="11.708000183" font-family="Palatino Linotype" font-weight="normal" font-style="normal" font-size="11" fill="#000000">
								Birmingham
							</tspan>
						</text>
						<g transform="matrix(1,0,0,1,0,15)">
							<text>
								<tspan x="0" y="11.708000183" font-family="Palatino Linotype" font-weight="bold" font-style="normal" font-size="11" fill="#000000">
									Masters degree in pharmacy
								</tspan>
								<tspan x="141.45199585" y="11.708000183" font-family="Palatino Linotype" font-weight="normal" font-style="normal" font-size="11" fill="#000000">
								</tspan>
							</text>
						</g>
					</g>
				</g>
				<g transform="matrix(1,0,0,1,0,572.255981445)">
					<text>
						<tspan x="0" y="17.597000122" font-family="Palatino Linotype" font-weight="bold" font-style="normal" font-size="12" fill="#000000">
							Additional Information
						</tspan>
					</text>
				</g>
				<g transform="matrix(1,0,0,1,90,595.445007324)">
					<text>
						<tspan x="0" y="11.708000183" font-family="Palatino Linotype" font-weight="normal" font-style="normal" font-size="11" fill="#000000">
							Registered at General Pharmaceutical Council.
						</tspan>
					</text>
				</g>
			</g>
		</g>
	</g>
</svg>
