<?xml version="1.0" encoding="utf-8" standalone="yes"?>
<svg xmlns="http://www.w3.org/2000/svg" xmlns:xlink="http://www.w3.org/1999/xlink" version="1.1" width="816" height="1056">
	<!-- Generated by Aspose.Words for .NET 18.5 -->
	<defs>
		<clipPath id="clip1">
			<path d="M-1,-1 L266.899993896,-1 L266.899993896,74.800003052 L-1,74.800003052 Z" clip-rule="evenodd">
			</path>
		</clipPath>
		<clipPath id="clip2">
			<path d="M-0.5,-1 L266.899993896,-1 L266.899993896,74.800003052 L-0.5,74.800003052 Z" clip-rule="evenodd">
			</path>
		</clipPath>
		<style type="text/css">
			svg{background:white}
		</style>
	</defs>
	<g transform="scale(1.33333)">
		<g>
			<path d="M0,0 L600,0 L600,450 L0,450 Z" fill="#ffffff" fill-rule="evenodd">
			</path>
			<g transform="matrix(1,0,0,1,600,0)">
				<path d="M0,0 L600,0 L600,450 L0,450 Z" fill="#ffffff" fill-rule="evenodd">
				</path>
			</g>
			<g transform="matrix(1,0,0,1,0,450)">
				<path d="M0,0 L600,0 L600,450 L0,450 Z" fill="#ffffff" fill-rule="evenodd">
				</path>
			</g>
			<g transform="matrix(1,0,0,1,600,450)">
				<path d="M0,0 L600,0 L600,450 L0,450 Z" fill="#ffffff" fill-rule="evenodd">
				</path>
			</g>
			<g transform="matrix(1,0,0,1,40,32)">
				<text>
					<tspan x="235.029006958" y="25.73800087" font-family="Times New Roman" font-weight="bold" font-style="normal" font-size="19" fill="#000000">
						Lily French
					</tspan>
				</text>
				<path d="M-1.450000048,32.847999573 L533.450012207,32.847999573 " stroke-width="2" stroke-miterlimit="10" stroke="#000000" fill="none" fill-rule="evenodd">
				</path>
				<path d="M-1.450000048,35.90599823 L533.450012207,35.90599823 " stroke-width="2" stroke-miterlimit="10" stroke="#000000" fill="none" fill-rule="evenodd">
				</path>
				<g transform="matrix(1,0,0,1,0,36.90599823)">
					<text>
						<tspan x="0" y="0.934000015" font-family="Times New Roman" font-weight="normal" font-style="normal" font-size="1" fill="#000000">
						</tspan>
					</text>
				</g>
				<g transform="matrix(1,0,0,1,0,38.055999756)">
					<text>
						<tspan x="230.11000061" y="13.62100029" font-family="Times New Roman" font-weight="normal" font-style="normal" font-size="11" fill="#000000">
							 Bradford, BD1 6YU
						</tspan>
					</text>
				</g>
				<g transform="matrix(1,0,0,1,0,54.055999756)">
					<text>
						<tspan x="246.958999634" y="10.62100029" font-family="Times New Roman" font-weight="normal" font-style="normal" font-size="11" fill="#000000">
							07941 234 567
						</tspan>
					</text>
				</g>
				<g transform="matrix(1,0,0,1,0,67.055999756)">
					<text>
						<tspan x="220.863998413" y="10.62100029" font-family="Times New Roman" font-weight="normal" font-style="normal" font-size="11" fill="#000000">
							lily.french@example.co.uk
						</tspan>
					</text>
				</g>
				<g transform="matrix(1,0,0,1,0,80.055999756)">
					<text>
						<tspan x="0" y="21.070999146" font-family="Times New Roman" font-weight="bold" font-style="normal" font-size="14" fill="#000000">
							Summary
						</tspan>
					</text>
				</g>
				<g transform="matrix(1,0,0,1,0,107.154998779)">
					<text>
						<tspan x="0" y="11.404000282" font-family="Times New Roman" font-weight="normal" font-style="normal" font-size="12" fill="#000000">
							Highly organised and disciplined pharmacy leader with excellent communication and conflict resolution
						</tspan>
						<tspan x="0" y="25.403999329" font-family="Times New Roman" font-weight="normal" font-style="normal" font-size="12" fill="#000000">
							skills. Competent in managing supplies, reviewing service quality, and maintaining patient confidentiality and
						</tspan>
						<tspan x="0" y="39.403999329" font-family="Times New Roman" font-weight="normal" font-style="normal" font-size="12" fill="#000000">
							satisfaction. Skilled at ordering, storing, and preparing medications for customer use. Accomplished in
						</tspan>
						<tspan x="0" y="53.403999329" font-family="Times New Roman" font-weight="normal" font-style="normal" font-size="12" fill="#000000">
							increasing customer satisfaction while improving controls, team operations, and loss prevention strategies.
						</tspan>
						<tspan x="0" y="67.403999329" font-family="Times New Roman" font-weight="normal" font-style="normal" font-size="12" fill="#000000">
							Knowledgeable in preparing special compounds.
						</tspan>
					</text>
				</g>
				<g transform="matrix(1,0,0,1,0,177.154998779)">
					<text>
						<tspan x="0" y="21.070999146" font-family="Times New Roman" font-weight="bold" font-style="normal" font-size="14" fill="#000000">
							Experience
						</tspan>
					</text>
				</g>
				<g transform="matrix(1,0,0,1,0,204.253997803)">
					<text>
						<tspan x="0" y="11.404000282" font-family="Times New Roman" font-weight="normal" font-style="normal" font-size="12" fill="#000000">
							King Chemist
						</tspan>
						<tspan x="427.014007568" y="11.404000282" font-family="Times New Roman" font-weight="normal" font-style="normal" font-size="12" fill="#000000">
							June 2017 to Current
						</tspan>
					</text>
				</g>
				<g transform="matrix(1,0,0,1,0,218.253997803)">
					<text>
						<tspan x="0" y="11.404000282" font-family="Times New Roman" font-weight="bold" font-style="normal" font-size="12" fill="#000000">
							Pharmacist
						</tspan>
						<tspan x="0" y="25.403999329" font-family="Times New Roman" font-weight="normal" font-style="normal" font-size="12" fill="#000000">
							Birmingham
						</tspan>
					</text>
				</g>
				<g transform="matrix(1,0,0,1,18.5,246.253997803)">
					<text>
						<tspan x="-0.5" y="11.31400013" font-family="Times New Roman" font-weight="normal" font-style="normal" font-size="9" fill="#000000">
							●
						</tspan>
						<tspan x="13.5" y="12.06400013" font-family="Times New Roman" font-weight="normal" font-style="normal" font-size="12" fill="#000000">
							Checked more than 30 patient orders against histories each day, assessed insurance coverage and
						</tspan>
						<tspan x="13.5" y="26.063999176" font-family="Times New Roman" font-weight="normal" font-style="normal" font-size="12" fill="#000000">
							counted out medicines.
						</tspan>
					</text>
				</g>
				<g transform="matrix(1,0,0,1,18.5,274.914001465)">
					<text>
						<tspan x="-0.5" y="11.31400013" font-family="Times New Roman" font-weight="normal" font-style="normal" font-size="9" fill="#000000">
							●
						</tspan>
						<tspan x="13.5" y="12.06400013" font-family="Times New Roman" font-weight="normal" font-style="normal" font-size="12" fill="#000000">
							Provided patient counselling regarding OTC medications.
						</tspan>
					</text>
				</g>
				<g transform="matrix(1,0,0,1,18.5,289.574005127)">
					<text>
						<tspan x="-0.5" y="11.31400013" font-family="Times New Roman" font-weight="normal" font-style="normal" font-size="9" fill="#000000">
							●
						</tspan>
						<tspan x="13.5" y="12.06400013" font-family="Times New Roman" font-weight="normal" font-style="normal" font-size="12" fill="#000000">
							Managed weekly schedules and requests for leave.
						</tspan>
					</text>
				</g>
				<g transform="matrix(1,0,0,1,0,304.234008789)">
					<text>
						<tspan x="0" y="17.403999329" font-family="Times New Roman" font-weight="normal" font-style="normal" font-size="12" fill="#000000">
							L Pharma
						</tspan>
						<tspan x="393.351989746" y="17.403999329" font-family="Times New Roman" font-weight="normal" font-style="normal" font-size="12" fill="#000000">
							February 2013 to May 2017
						</tspan>
					</text>
				</g>
				<g transform="matrix(1,0,0,1,0,324.234008789)">
					<text>
						<tspan x="0" y="11.404000282" font-family="Times New Roman" font-weight="bold" font-style="normal" font-size="12" fill="#000000">
							Pharmacist
						</tspan>
						<tspan x="0" y="25.403999329" font-family="Times New Roman" font-weight="normal" font-style="normal" font-size="12" fill="#000000">
							Birmingham
						</tspan>
					</text>
				</g>
				<g transform="matrix(1,0,0,1,18.5,352.234008789)">
					<text>
						<tspan x="-0.5" y="11.31400013" font-family="Times New Roman" font-weight="normal" font-style="normal" font-size="9" fill="#000000">
							●
						</tspan>
						<tspan x="13.5" y="12.06400013" font-family="Times New Roman" font-weight="normal" font-style="normal" font-size="12" fill="#000000">
							Used pharmacy software Meditab to verify prescription and insurance information.
						</tspan>
					</text>
				</g>
				<g transform="matrix(1,0,0,1,18.5,366.894012451)">
					<text>
						<tspan x="-0.5" y="11.31400013" font-family="Times New Roman" font-weight="normal" font-style="normal" font-size="9" fill="#000000">
							●
						</tspan>
						<tspan x="13.5" y="12.06400013" font-family="Times New Roman" font-weight="normal" font-style="normal" font-size="12" fill="#000000">
							Compounded and prepared medications according to prescription orders for more than 160
						</tspan>
						<tspan x="13.5" y="26.063999176" font-family="Times New Roman" font-weight="normal" font-style="normal" font-size="12" fill="#000000">
							prescriptions every week.
						</tspan>
					</text>
				</g>
				<g transform="matrix(1,0,0,1,18.5,395.553985596)">
					<text>
						<tspan x="-0.5" y="11.31400013" font-family="Times New Roman" font-weight="normal" font-style="normal" font-size="9" fill="#000000">
							●
						</tspan>
						<tspan x="13.5" y="12.06400013" font-family="Times New Roman" font-weight="normal" font-style="normal" font-size="12" fill="#000000">
							Solicited medical history information from patients to provide best and most effective medical advice.
						</tspan>
					</text>
				</g>
				<g transform="matrix(1,0,0,1,0,410.213989258)">
					<text>
						<tspan x="0" y="21.070999146" font-family="Times New Roman" font-weight="bold" font-style="normal" font-size="14" fill="#000000">
							Skills
						</tspan>
					</text>
				</g>
				<g transform="matrix(1,0,0,1,0,437.312988281)">
					<g transform="matrix(1,0,0,1,0,0)" clip-path="url(#clip1)">
						<g transform="matrix(1,0,0,1,18.75,0.25)">
							<text>
								<tspan x="-0.5" y="11.31400013" font-family="Times New Roman" font-weight="normal" font-style="normal" font-size="9" fill="#000000">
									●
								</tspan>
								<tspan x="13.5" y="12.06400013" font-family="Times New Roman" font-weight="normal" font-style="normal" font-size="12" fill="#000000">
									Interpreting orders
								</tspan>
							</text>
						</g>
						<g transform="matrix(1,0,0,1,18.75,14.909999847)">
							<text>
								<tspan x="-0.5" y="11.31400013" font-family="Times New Roman" font-weight="normal" font-style="normal" font-size="9" fill="#000000">
									●
								</tspan>
								<tspan x="13.5" y="12.06400013" font-family="Times New Roman" font-weight="normal" font-style="normal" font-size="12" fill="#000000">
									Dosing recommendations
								</tspan>
							</text>
						</g>
						<g transform="matrix(1,0,0,1,18.75,29.569999695)">
							<text>
								<tspan x="-0.5" y="11.31400013" font-family="Times New Roman" font-weight="normal" font-style="normal" font-size="9" fill="#000000">
									●
								</tspan>
								<tspan x="13.5" y="12.06400013" font-family="Times New Roman" font-weight="normal" font-style="normal" font-size="12" fill="#000000">
									Compounding abilities
								</tspan>
							</text>
						</g>
						<g transform="matrix(1,0,0,1,18.75,44.229999542)">
							<text>
								<tspan x="-0.5" y="11.31400013" font-family="Times New Roman" font-weight="normal" font-style="normal" font-size="9" fill="#000000">
									●
								</tspan>
								<tspan x="13.5" y="12.06400013" font-family="Times New Roman" font-weight="normal" font-style="normal" font-size="12" fill="#000000">
									Employee training
								</tspan>
							</text>
						</g>
						<g transform="matrix(1,0,0,1,18.75,58.88999939)">
							<text>
								<tspan x="-0.5" y="11.31400013" font-family="Times New Roman" font-weight="normal" font-style="normal" font-size="9" fill="#000000">
									●
								</tspan>
								<tspan x="13.5" y="12.06400013" font-family="Times New Roman" font-weight="normal" font-style="normal" font-size="12" fill="#000000">
									Dispensing medicines
								</tspan>
							</text>
						</g>
					</g>
					<g transform="matrix(1,0,0,1,265.899993896,0)" clip-path="url(#clip2)">
						<g transform="matrix(1,0,0,1,19,0.25)">
							<text>
								<tspan x="-0.5" y="11.31400013" font-family="Times New Roman" font-weight="normal" font-style="normal" font-size="9" fill="#000000">
									●
								</tspan>
								<tspan x="13.5" y="12.06400013" font-family="Times New Roman" font-weight="normal" font-style="normal" font-size="12" fill="#000000">
									Customer relations
								</tspan>
							</text>
						</g>
						<g transform="matrix(1,0,0,1,19,14.909999847)">
							<text>
								<tspan x="-0.5" y="11.31400013" font-family="Times New Roman" font-weight="normal" font-style="normal" font-size="9" fill="#000000">
									●
								</tspan>
								<tspan x="13.5" y="12.06400013" font-family="Times New Roman" font-weight="normal" font-style="normal" font-size="12" fill="#000000">
									Resolving complaints
								</tspan>
							</text>
						</g>
						<g transform="matrix(1,0,0,1,19,29.569999695)">
							<text>
								<tspan x="-0.5" y="11.31400013" font-family="Times New Roman" font-weight="normal" font-style="normal" font-size="9" fill="#000000">
									●
								</tspan>
								<tspan x="13.5" y="12.06400013" font-family="Times New Roman" font-weight="normal" font-style="normal" font-size="12" fill="#000000">
									Sales skills
								</tspan>
							</text>
						</g>
						<g transform="matrix(1,0,0,1,19,44.229999542)">
							<text>
								<tspan x="-0.5" y="11.31400013" font-family="Times New Roman" font-weight="normal" font-style="normal" font-size="9" fill="#000000">
									●
								</tspan>
								<tspan x="13.5" y="12.06400013" font-family="Times New Roman" font-weight="normal" font-style="normal" font-size="12" fill="#000000">
									Patient education
								</tspan>
							</text>
						</g>
					</g>
					<path d="M265.899993896,0 L265.899993896,73.800003052 " stroke-width="1" stroke-miterlimit="10" stroke="#fefdfd" fill="none" fill-rule="evenodd">
					</path>
				</g>
				<g transform="matrix(1,0,0,1,0,511.113006592)">
					<text>
						<tspan x="0" y="21.070999146" font-family="Times New Roman" font-weight="bold" font-style="normal" font-size="14" fill="#000000">
							Education
						</tspan>
					</text>
				</g>
				<g transform="matrix(1,0,0,1,0,538.211975098)">
					<text>
						<tspan x="0" y="11.404000282" font-family="Times New Roman" font-weight="bold" font-style="normal" font-size="12" fill="#000000">
							Birmingham University
						</tspan>
						<tspan x="121.664001465" y="11.404000282" font-family="Times New Roman" font-weight="normal" font-style="normal" font-size="12" fill="#000000">
						</tspan>
						<tspan x="504" y="11.404000282" font-family="Times New Roman" font-weight="normal" font-style="normal" font-size="12" fill="#000000">
							2010
						</tspan>
					</text>
				</g>
				<g transform="matrix(1,0,0,1,0,552.211975098)">
					<text>
						<tspan x="0" y="11.404000282" font-family="Times New Roman" font-weight="bold" font-style="normal" font-size="12" fill="#000000">
							Masters degree in pharmacy
						</tspan>
						<tspan x="146.29699707" y="11.404000282" font-family="Times New Roman" font-weight="normal" font-style="normal" font-size="12" fill="#000000">
						</tspan>
					</text>
				</g>
				<g transform="matrix(1,0,0,1,0,566.211975098)">
					<text>
						<tspan x="0" y="11.404000282" font-family="Times New Roman" font-weight="normal" font-style="normal" font-size="12" fill="#000000">
							Birmingham
						</tspan>
					</text>
				</g>
				<g transform="matrix(1,0,0,1,0,580.211975098)">
					<text>
						<tspan x="0" y="21.070999146" font-family="Times New Roman" font-weight="bold" font-style="normal" font-size="14" fill="#000000">
							Additional Information
						</tspan>
					</text>
				</g>
				<g transform="matrix(1,0,0,1,0,607.310974121)">
					<text>
						<tspan x="0" y="11.404000282" font-family="Times New Roman" font-weight="normal" font-style="normal" font-size="12" fill="#000000">
							Registered at General Pharmaceutical Council.
						</tspan>
					</text>
				</g>
			</g>
		</g>
	</g>
</svg>
