<?xml version="1.0" encoding="utf-8" standalone="yes"?>
<svg xmlns="http://www.w3.org/2000/svg" xmlns:xlink="http://www.w3.org/1999/xlink" version="1.1" width="816" height="1056">
	<!-- Generated by Aspose.Words for .NET 18.5 -->
	<defs>
		<clipPath id="clip1">
			<path d="M-1,-1 L256.899993896,-1 L256.899993896,81.5 L-1,81.5 Z" clip-rule="evenodd">
			</path>
		</clipPath>
		<clipPath id="clip2">
			<path d="M-0.5,-1 L256.899993896,-1 L256.899993896,81.5 L-0.5,81.5 Z" clip-rule="evenodd">
			</path>
		</clipPath>
		<style type="text/css">
			svg{background:white}
		</style>
	</defs>
	<g transform="scale(1.33333)">
		<g>
			<path d="M0,0 L600,0 L600,450 L0,450 Z" fill="#ffffff" fill-rule="evenodd">
			</path>
			<g transform="matrix(1,0,0,1,600,0)">
				<path d="M0,0 L600,0 L600,450 L0,450 Z" fill="#ffffff" fill-rule="evenodd">
				</path>
			</g>
			<g transform="matrix(1,0,0,1,0,450)">
				<path d="M0,0 L600,0 L600,450 L0,450 Z" fill="#ffffff" fill-rule="evenodd">
				</path>
			</g>
			<g transform="matrix(1,0,0,1,600,450)">
				<path d="M0,0 L600,0 L600,450 L0,450 Z" fill="#ffffff" fill-rule="evenodd">
				</path>
			</g>
			<g transform="matrix(1,0,0,1,40,27)">
				<text>
					<tspan x="410.324005127" y="33.615001678" font-family="Georgia" font-weight="bold" font-style="normal" font-size="20" fill="#000000">
						Lily French
					</tspan>
				</text>
				<path d="M-1.450000048,45 L533.450012207,45 " stroke-width="2" stroke-miterlimit="10" stroke="#000000" fill="none" fill-rule="evenodd">
				</path>
				<path d="M-1.450000048,48.056999207 L533.450012207,48.056999207 " stroke-width="2" stroke-miterlimit="10" stroke="#000000" fill="none" fill-rule="evenodd">
				</path>
				<g transform="matrix(1,0,0,1,0,49.056999207)">
					<text>
						<tspan x="0" y="0.916999996" font-family="Georgia" font-weight="normal" font-style="normal" font-size="1" fill="#000000">
						</tspan>
					</text>
				</g>
				<g transform="matrix(1,0,0,1,0,50.193000793)">
					<text>
						<tspan x="130.238998413" y="19.027000427" font-family="Georgia" font-weight="normal" font-style="normal" font-size="9" fill="#000000">
							 Bradford, BD1 6YU -  07941 234 567 - lily.french@example.co.uk
						</tspan>
					</text>
				</g>
				<g transform="matrix(1,0,0,1,0,71.193000793)">
					<text>
						<tspan x="0" y="27.368999481" font-family="Georgia" font-weight="bold" font-style="normal" font-size="12" fill="#000000">
							Summary
						</tspan>
					</text>
				</g>
				<g transform="matrix(1,0,0,1,20,104.193000793)">
					<text>
						<tspan x="0" y="13.807999611" font-family="Georgia" font-weight="normal" font-style="normal" font-size="10" fill="#000000">
							Highly organised and disciplined pharmacy leader with excellent communication and conflict resolution skills.
						</tspan>
						<tspan x="0" y="29.807998657" font-family="Georgia" font-weight="normal" font-style="normal" font-size="10" fill="#000000">
							Competent in managing supplies, reviewing service quality, and maintaining patient confidentiality and
						</tspan>
						<tspan x="0" y="45.807998657" font-family="Georgia" font-weight="normal" font-style="normal" font-size="10" fill="#000000">
							satisfaction. Skilled at ordering, storing, and preparing medications for customer use. Accomplished in increasing
						</tspan>
						<tspan x="0" y="61.807998657" font-family="Georgia" font-weight="normal" font-style="normal" font-size="10" fill="#000000">
							customer satisfaction while improving controls, team operations, and loss prevention strategies. Knowledgeable in
						</tspan>
						<tspan x="0" y="77.807998657" font-family="Georgia" font-weight="normal" font-style="normal" font-size="10" fill="#000000">
							preparing special compounds.
						</tspan>
					</text>
				</g>
				<g transform="matrix(1,0,0,1,0,184.192993164)">
					<text>
						<tspan x="0" y="27.368999481" font-family="Georgia" font-weight="bold" font-style="normal" font-size="12" fill="#000000">
							Experience
						</tspan>
					</text>
				</g>
				<g transform="matrix(1,0,0,1,20,217.192993164)">
					<text>
						<tspan x="0" y="13.807999611" font-family="Georgia" font-weight="normal" font-style="normal" font-size="10" fill="#000000">
							King Chemist
						</tspan>
						<tspan x="415.233001709" y="13.807999611" font-family="Georgia" font-weight="normal" font-style="normal" font-size="10" fill="#000000">
							June 2017 to Current
						</tspan>
					</text>
				</g>
				<g transform="matrix(1,0,0,1,20,233.192993164)">
					<text>
						<tspan x="0" y="13.807999611" font-family="Georgia" font-weight="bold" font-style="normal" font-size="10" fill="#000000">
							Pharmacist
						</tspan>
						<tspan x="0" y="29.807998657" font-family="Georgia" font-weight="normal" font-style="normal" font-size="10" fill="#000000">
							Birmingham
						</tspan>
					</text>
				</g>
				<g transform="matrix(1,0,0,1,39.400001526,265.192993164)">
					<text>
						<tspan x="-0.5" y="13.057999611" font-family="Times New Roman" font-weight="normal" font-style="normal" font-size="7.5" fill="#000000">
							●
						</tspan>
						<tspan x="12.600000381" y="13.807999611" font-family="Georgia" font-weight="normal" font-style="normal" font-size="10" fill="#000000">
							Checked more than 30 patient orders against histories each day, assessed insurance coverage and counted
						</tspan>
						<tspan x="12.600000381" y="29.807998657" font-family="Georgia" font-weight="normal" font-style="normal" font-size="10" fill="#000000">
							out medicines.
						</tspan>
					</text>
				</g>
				<g transform="matrix(1,0,0,1,39.400001526,297.192993164)">
					<text>
						<tspan x="-0.5" y="13.057999611" font-family="Times New Roman" font-weight="normal" font-style="normal" font-size="7.5" fill="#000000">
							●
						</tspan>
						<tspan x="12.600000381" y="13.807999611" font-family="Georgia" font-weight="normal" font-style="normal" font-size="10" fill="#000000">
							Provided patient counselling regarding OTC medications.
						</tspan>
					</text>
				</g>
				<g transform="matrix(1,0,0,1,39.400001526,313.192993164)">
					<text>
						<tspan x="-0.5" y="13.057999611" font-family="Times New Roman" font-weight="normal" font-style="normal" font-size="7.5" fill="#000000">
							●
						</tspan>
						<tspan x="12.600000381" y="13.807999611" font-family="Georgia" font-weight="normal" font-style="normal" font-size="10" fill="#000000">
							Managed weekly schedules and requests for leave.
						</tspan>
					</text>
				</g>
				<g transform="matrix(1,0,0,1,20,329.192993164)">
					<text>
						<tspan x="0" y="25.808000565" font-family="Georgia" font-weight="normal" font-style="normal" font-size="10" fill="#000000">
							L Pharma
						</tspan>
						<tspan x="387.949005127" y="25.808000565" font-family="Georgia" font-weight="normal" font-style="normal" font-size="10" fill="#000000">
							February 2013 to May 2017
						</tspan>
					</text>
				</g>
				<g transform="matrix(1,0,0,1,20,357.192993164)">
					<text>
						<tspan x="0" y="13.807999611" font-family="Georgia" font-weight="bold" font-style="normal" font-size="10" fill="#000000">
							Pharmacist
						</tspan>
						<tspan x="0" y="29.807998657" font-family="Georgia" font-weight="normal" font-style="normal" font-size="10" fill="#000000">
							Birmingham
						</tspan>
					</text>
				</g>
				<g transform="matrix(1,0,0,1,39.400001526,389.192993164)">
					<text>
						<tspan x="-0.5" y="13.057999611" font-family="Times New Roman" font-weight="normal" font-style="normal" font-size="7.5" fill="#000000">
							●
						</tspan>
						<tspan x="12.600000381" y="13.807999611" font-family="Georgia" font-weight="normal" font-style="normal" font-size="10" fill="#000000">
							Used pharmacy software Meditab to verify prescription and insurance information.
						</tspan>
					</text>
				</g>
				<g transform="matrix(1,0,0,1,39.400001526,405.192993164)">
					<text>
						<tspan x="-0.5" y="13.057999611" font-family="Times New Roman" font-weight="normal" font-style="normal" font-size="7.5" fill="#000000">
							●
						</tspan>
						<tspan x="12.600000381" y="13.807999611" font-family="Georgia" font-weight="normal" font-style="normal" font-size="10" fill="#000000">
							Compounded and prepared medications according to prescription orders for more than 160 prescriptions
						</tspan>
						<tspan x="12.600000381" y="29.807998657" font-family="Georgia" font-weight="normal" font-style="normal" font-size="10" fill="#000000">
							every week.
						</tspan>
					</text>
				</g>
				<g transform="matrix(1,0,0,1,39.400001526,437.192993164)">
					<text>
						<tspan x="-0.5" y="13.057999611" font-family="Times New Roman" font-weight="normal" font-style="normal" font-size="7.5" fill="#000000">
							●
						</tspan>
						<tspan x="12.600000381" y="13.807999611" font-family="Georgia" font-weight="normal" font-style="normal" font-size="10" fill="#000000">
							Solicited medical history information from patients to provide best and most effective medical advice.
						</tspan>
					</text>
				</g>
				<g transform="matrix(1,0,0,1,0,453.192993164)">
					<text>
						<tspan x="0" y="27.368999481" font-family="Georgia" font-weight="bold" font-style="normal" font-size="12" fill="#000000">
							Skills
						</tspan>
					</text>
				</g>
				<g transform="matrix(1,0,0,1,20,486.192993164)">
					<g transform="matrix(1,0,0,1,0,0)" clip-path="url(#clip1)">
						<g transform="matrix(1,0,0,1,19.649999619,0.25)">
							<text>
								<tspan x="-0.5" y="13.057999611" font-family="Times New Roman" font-weight="normal" font-style="normal" font-size="7.5" fill="#000000">
									●
								</tspan>
								<tspan x="12.600000381" y="13.807999611" font-family="Georgia" font-weight="normal" font-style="normal" font-size="10" fill="#000000">
									Interpreting orders
								</tspan>
							</text>
						</g>
						<g transform="matrix(1,0,0,1,19.649999619,16.25)">
							<text>
								<tspan x="-0.5" y="13.057999611" font-family="Times New Roman" font-weight="normal" font-style="normal" font-size="7.5" fill="#000000">
									●
								</tspan>
								<tspan x="12.600000381" y="13.807999611" font-family="Georgia" font-weight="normal" font-style="normal" font-size="10" fill="#000000">
									Dosing recommendations
								</tspan>
							</text>
						</g>
						<g transform="matrix(1,0,0,1,19.649999619,32.25)">
							<text>
								<tspan x="-0.5" y="13.057999611" font-family="Times New Roman" font-weight="normal" font-style="normal" font-size="7.5" fill="#000000">
									●
								</tspan>
								<tspan x="12.600000381" y="13.807999611" font-family="Georgia" font-weight="normal" font-style="normal" font-size="10" fill="#000000">
									Compounding abilities
								</tspan>
							</text>
						</g>
						<g transform="matrix(1,0,0,1,19.649999619,48.25)">
							<text>
								<tspan x="-0.5" y="13.057999611" font-family="Times New Roman" font-weight="normal" font-style="normal" font-size="7.5" fill="#000000">
									●
								</tspan>
								<tspan x="12.600000381" y="13.807999611" font-family="Georgia" font-weight="normal" font-style="normal" font-size="10" fill="#000000">
									Employee training
								</tspan>
							</text>
						</g>
						<g transform="matrix(1,0,0,1,19.649999619,64.25)">
							<text>
								<tspan x="-0.5" y="13.057999611" font-family="Times New Roman" font-weight="normal" font-style="normal" font-size="7.5" fill="#000000">
									●
								</tspan>
								<tspan x="12.600000381" y="13.807999611" font-family="Georgia" font-weight="normal" font-style="normal" font-size="10" fill="#000000">
									Dispensing medicines
								</tspan>
							</text>
						</g>
					</g>
					<g transform="matrix(1,0,0,1,255.899993896,0)" clip-path="url(#clip2)">
						<g transform="matrix(1,0,0,1,19.899999619,0.25)">
							<text>
								<tspan x="-0.5" y="13.057999611" font-family="Times New Roman" font-weight="normal" font-style="normal" font-size="7.5" fill="#000000">
									●
								</tspan>
								<tspan x="12.600000381" y="13.807999611" font-family="Georgia" font-weight="normal" font-style="normal" font-size="10" fill="#000000">
									Customer relations
								</tspan>
							</text>
						</g>
						<g transform="matrix(1,0,0,1,19.899999619,16.25)">
							<text>
								<tspan x="-0.5" y="13.057999611" font-family="Times New Roman" font-weight="normal" font-style="normal" font-size="7.5" fill="#000000">
									●
								</tspan>
								<tspan x="12.600000381" y="13.807999611" font-family="Georgia" font-weight="normal" font-style="normal" font-size="10" fill="#000000">
									Resolving complaints
								</tspan>
							</text>
						</g>
						<g transform="matrix(1,0,0,1,19.899999619,32.25)">
							<text>
								<tspan x="-0.5" y="13.057999611" font-family="Times New Roman" font-weight="normal" font-style="normal" font-size="7.5" fill="#000000">
									●
								</tspan>
								<tspan x="12.600000381" y="13.807999611" font-family="Georgia" font-weight="normal" font-style="normal" font-size="10" fill="#000000">
									Sales skills
								</tspan>
							</text>
						</g>
						<g transform="matrix(1,0,0,1,19.899999619,48.25)">
							<text>
								<tspan x="-0.5" y="13.057999611" font-family="Times New Roman" font-weight="normal" font-style="normal" font-size="7.5" fill="#000000">
									●
								</tspan>
								<tspan x="12.600000381" y="13.807999611" font-family="Georgia" font-weight="normal" font-style="normal" font-size="10" fill="#000000">
									Patient education
								</tspan>
							</text>
						</g>
					</g>
					<path d="M255.899993896,0 L255.899993896,80.5 " stroke-width="1" stroke-miterlimit="10" stroke="#fefdfd" fill="none" fill-rule="evenodd">
					</path>
				</g>
				<g transform="matrix(1,0,0,1,0,566.692993164)">
					<text>
						<tspan x="0" y="27.368999481" font-family="Georgia" font-weight="bold" font-style="normal" font-size="12" fill="#000000">
							Education
						</tspan>
					</text>
				</g>
				<g transform="matrix(1,0,0,1,20,599.692993164)">
					<text>
						<tspan x="0" y="13.807999611" font-family="Georgia" font-weight="bold" font-style="normal" font-size="10" fill="#000000">
							Birmingham University
						</tspan>
						<tspan x="121.727996826" y="13.807999611" font-family="Georgia" font-weight="normal" font-style="normal" font-size="10" fill="#000000">
						</tspan>
						<tspan x="486.429992676" y="13.807999611" font-family="Georgia" font-weight="normal" font-style="normal" font-size="10" fill="#000000">
							2010
						</tspan>
					</text>
				</g>
				<g transform="matrix(1,0,0,1,20,615.692993164)">
					<text>
						<tspan x="0" y="13.807999611" font-family="Georgia" font-weight="bold" font-style="normal" font-size="10" fill="#000000">
							Masters degree in pharmacy
						</tspan>
						<tspan x="145.718002319" y="13.807999611" font-family="Georgia" font-weight="normal" font-style="normal" font-size="10" fill="#000000">
						</tspan>
					</text>
				</g>
				<g transform="matrix(1,0,0,1,20,631.692993164)">
					<text>
						<tspan x="0" y="13.807999611" font-family="Georgia" font-weight="normal" font-style="normal" font-size="10" fill="#000000">
							Birmingham
						</tspan>
					</text>
				</g>
				<g transform="matrix(1,0,0,1,0,647.692993164)">
					<text>
						<tspan x="0" y="27.368999481" font-family="Georgia" font-weight="bold" font-style="normal" font-size="12" fill="#000000">
							Additional Information
						</tspan>
					</text>
				</g>
				<g transform="matrix(1,0,0,1,20,680.692993164)">
					<text>
						<tspan x="0" y="13.807999611" font-family="Georgia" font-weight="normal" font-style="normal" font-size="10" fill="#000000">
							Registered at General Pharmaceutical Council.
						</tspan>
					</text>
				</g>
			</g>
		</g>
	</g>
</svg>
